<svg viewBox="0 0 24 24"><path fill-rule="evenodd" clip-rule="evenodd" d="M17.6688 1.99878C19.3688 2.09878 21.0688 2.79878 22.1688 4.09878C23.4688 5.59878 24.0687 7.69878 23.8687 9.99878C23.8687 10.7988 23.0688 18.7988 12.9688 22.4988L12.4688 22.6988L11.9688 22.4988C1.86882 18.7988 1.06892 10.6988 1.06892 9.99878C0.768918 7.69878 1.46887 5.59878 2.76887 4.09878C3.86887 2.79878 5.46887 1.99878 7.26887 1.99878H7.46882C9.36882 1.99878 11.1688 2.79878 12.4688 4.29878C13.7688 2.79878 15.4688 1.99878 17.4688 1.99878H17.6688ZM7.93878 10.1796C7.90504 10.2515 7.8334 10.2988 7.75391 10.2988H6.66875C6.55829 10.2988 6.46875 10.2093 6.46875 10.0988V9.99883C6.46875 9.88837 6.55829 9.79883 6.66875 9.79883H6.88452C6.96268 9.79883 7.03344 9.7531 7.06756 9.68277C8.03952 7.67976 10.0929 6.29883 12.4687 6.29883C14.8446 6.29883 16.898 7.67976 17.8699 9.68277C17.904 9.7531 17.9748 9.79883 18.053 9.79883H18.2687C18.3792 9.79883 18.4688 9.88837 18.4688 9.99883V10.0988C18.4688 10.2093 18.3792 10.2988 18.2687 10.2988H17.1836C17.1041 10.2988 17.0324 10.2515 16.9987 10.1796C16.2011 8.4776 14.4726 7.29883 12.4687 7.29883C10.4649 7.29883 8.73638 8.4776 7.93878 10.1796ZM16.9987 14.4181C17.0324 14.3461 17.1041 14.2988 17.1836 14.2988H18.2687C18.3792 14.2988 18.4688 14.3884 18.4688 14.4988V14.5988C18.4688 14.7093 18.3792 14.7988 18.2687 14.7988H18.053C17.9748 14.7988 17.904 14.8446 17.8699 14.9149C16.898 16.9179 14.8446 18.2988 12.4687 18.2988C10.0929 18.2988 8.03952 16.9179 7.06756 14.9149C7.03344 14.8446 6.96268 14.7988 6.88452 14.7988H6.66875C6.55829 14.7988 6.46875 14.7093 6.46875 14.5988V14.4988C6.46875 14.3884 6.55829 14.2988 6.66875 14.2988H7.75391C7.8334 14.2988 7.90504 14.3461 7.93878 14.4181C8.73638 16.1201 10.4649 17.2988 12.4687 17.2988C14.4726 17.2988 16.2011 16.1201 16.9987 14.4181ZM19.4688 11.771C19.4688 11.5092 19.2668 11.2915 19.0055 11.2735C16.8491 11.1248 14.6692 11.0488 12.4688 11.0488C10.2684 11.0488 8.08843 11.1248 5.93197 11.2735C5.67075 11.2915 5.46875 11.5092 5.46875 11.771V12.8267C5.46875 13.0885 5.67075 13.3061 5.93197 13.3242C8.08839 13.4729 10.2683 13.5488 12.4687 13.5488C14.6691 13.5488 16.8491 13.4729 19.0055 13.3242C19.2668 13.3061 19.4688 13.0885 19.4688 12.8267V11.771Z"/></svg>