<svg viewBox="0 0 24 24"><g clip-path="url(#clip0_783_922)"><path d="M12.5 2.29C12.5 1.025 13.525 0 14.79 0C16.055 0 17.08 1.025 17.08 2.29C17.08 3.555 16.055 4.58 14.79 4.58C14.788 4.58 14.786 4.58 14.783 4.58C13.522 4.58 12.5 3.558 12.5 2.297C12.5 2.295 12.5 2.292 12.5 2.29ZM14.52 10.62L15.33 8.17C15.395 7.963 15.433 7.725 15.433 7.478C15.433 6.168 14.371 5.106 13.061 5.106C12.041 5.106 11.171 5.75 10.836 6.654L10.831 6.67L9.971 9.28L12.561 11.87C13.121 11.367 13.768 10.947 14.475 10.638L14.521 10.62H14.52ZM24 17.5C24 17.501 24 17.503 24 17.504C24 21.094 21.09 24.004 17.5 24.004C13.91 24.004 11 21.094 11 17.504C11 16.426 11.262 15.409 11.727 14.514L11.71 14.55C11.979 14.019 12.299 13.562 12.674 13.156L12.67 13.16C12.854 12.947 13.047 12.754 13.253 12.576L13.26 12.57C13.5 12.36 13.764 12.166 14.045 11.994L14.07 11.98C15.045 11.365 16.231 11 17.502 11C21.091 11 24 13.909 24 17.498C24 17.499 24 17.499 24 17.5ZM18.28 19.44H16.72V21H18.28V19.44ZM18.38 14H16.62L16.72 18.67H18.28L18.38 14ZM6.94 11.67C6.878 11.666 6.805 11.663 6.731 11.663C5.259 11.663 4.02 12.661 3.655 14.018L3.65 14.04L1.67 20H5L6.8 14.58H10.56L7.64 11.67H6.94ZM9.36 9.85C9.216 9.702 9.014 9.61 8.791 9.61C8.787 9.61 8.783 9.61 8.779 9.61H8.78C8.772 9.61 8.763 9.61 8.755 9.61C8.53 9.61 8.327 9.702 8.181 9.85C8.033 10 7.941 10.207 7.941 10.435C7.941 10.663 8.033 10.87 8.181 11.02L10.981 13.82C11.264 13.302 11.593 12.855 11.973 12.458L11.971 12.46L9.36 9.85ZM8.33 5C8.327 2.702 6.464 0.84 4.165 0.84C1.865 0.84 0 2.705 0 5.005C0 7.305 1.865 9.17 4.165 9.17C4.167 9.17 4.169 9.17 4.17 9.17C6.468 9.167 8.33 7.303 8.33 5.005C8.33 5.003 8.33 5.002 8.33 5Z"/></g></svg>