<svg viewBox="0 0 24 24"><path d="M3.72074 7.50693C2.94074 7.50693 2.30774 8.14093 2.30774 8.91993L2.30874 14.8389C2.30874 15.6209 2.94174 16.2529 3.72274 16.2529C4.50374 16.2529 5.13674 15.6209 5.13574 14.8389V8.91993C5.13474 8.13993 4.50174 7.50693 3.72074 7.50693ZM5.68274 7.77393L5.68474 16.9459C5.68474 17.7799 6.35874 18.4539 7.19274 18.4539H8.21974L8.22074 21.5859C8.22074 22.3659 8.85374 22.9999 9.63274 22.9999C10.4137 22.9999 11.0467 22.3649 11.0467 21.5849L11.0457 18.4539H12.9537L12.9547 21.5859C12.9547 22.3649 13.5887 22.9999 14.3677 22.9989C15.1487 22.9989 15.7817 22.3649 15.7817 21.5849L15.7807 18.4539L16.8107 18.4529C17.6427 18.4529 18.3197 17.7789 18.3197 16.9449L18.3187 7.77293L5.68274 7.77393ZM21.6907 8.91893C21.6907 8.13793 21.0577 7.50593 20.2777 7.50593C19.4977 7.50593 18.8647 8.13893 18.8647 8.91993L18.8657 14.8389C18.8657 15.6199 19.4977 16.2519 20.2797 16.2519C21.0597 16.2519 21.6927 15.6199 21.6927 14.8379L21.6907 8.91893ZM15.0987 2.07693L16.0777 0.28893C16.1297 0.19493 16.0957 0.0759296 16.0007 0.0239296C15.9057 -0.0270704 15.7877 0.00792957 15.7367 0.10193L14.7477 1.90893C13.9147 1.53893 12.9837 1.33093 11.9977 1.33193C11.0157 1.33093 10.0837 1.53793 9.25574 1.90593L8.26574 0.10393C8.21374 0.00892957 8.09574 -0.0260704 8.00174 0.0259296C7.90674 0.0769296 7.87174 0.19693 7.92474 0.28993L8.90374 2.07693C6.98074 3.06893 5.68074 4.95893 5.68174 7.12993L18.3197 7.12893C18.3197 4.95793 17.0207 3.07193 15.0987 2.07693ZM9.12474 4.83993C8.83374 4.83893 8.59674 4.60293 8.59674 4.30993C8.59674 4.01893 8.83374 3.77993 9.12574 3.77993C9.41874 3.77993 9.65574 4.01893 9.65574 4.30993C9.65574 4.60293 9.41874 4.83993 9.12474 4.83993ZM14.8797 4.83893C14.5877 4.83893 14.3497 4.60193 14.3497 4.30893C14.3507 4.01893 14.5867 3.77893 14.8797 3.77793C15.1707 3.77893 15.4087 4.01793 15.4087 4.30893C15.4097 4.60193 15.1717 4.83893 14.8797 4.83893Z"/></svg>