<svg viewBox="0 0 24 24"><g clip-path="url(#clip0_783_934)"><path d="M5.55 13.78C5.558 13.789 5.565 13.799 5.57 13.809V13.81C5.65 13.89 5.93999 14.22 6.43 14.75C6.81999 15.15 7.31999 15.68 7.93 16.3C8.21 16.57 8.5 16.86 8.81 17.18H8.81999C8.87 17.23 8.92 17.28 8.97 17.34C9.72 18.06 10.58 18.88 11.54 19.77C11.676 19.909 11.865 19.995 12.075 19.995C12.285 19.995 12.474 19.909 12.61 19.77C13.61 18.89 14.48 18.07 15.23 17.34C15.277 17.291 15.326 17.246 15.377 17.202L15.38 17.2C15.51 17.06 15.64 16.94 15.76 16.82C15.94 16.64 16.11 16.47 16.26 16.31H16.27C17.2 15.37 17.85 14.65 18.22 14.22C18.48 13.94 18.6 13.78 18.6 13.78C18.859 13.463 19.11 13.111 19.336 12.742L19.36 12.7C19.46 12.545 19.566 12.359 19.663 12.167L19.68 12.13C20.172 11.204 20.46 10.106 20.46 8.941C20.46 8.754 20.453 8.569 20.438 8.386L20.44 8.41C20.44 8.407 20.44 8.403 20.44 8.399C20.44 6.221 19.604 4.238 18.235 2.754L18.24 2.76C18.24 2.75 18.24 2.75 18.23 2.75C18.14 2.65 18.05 2.56 17.95 2.46C17.01 1.521 15.848 0.805 14.549 0.396L14.49 0.38C14.23 0.3 13.96 0.23 13.68 0.17C13.161 0.062 12.565 0 11.955 0C10.981 0 10.044 0.157 9.168 0.448L9.231 0.43C9.011 0.5 8.791 0.57 8.581 0.66C7.721 1.008 6.982 1.477 6.345 2.056L6.351 2.05C6.18099 2.2 6.031 2.35 5.881 2.51C5.811 2.58 5.751 2.65 5.681 2.73C5.473 2.966 5.273 3.223 5.089 3.493L5.071 3.52C4.125 4.909 3.561 6.624 3.561 8.471C3.561 8.502 3.561 8.534 3.561 8.565V8.56C3.645 10.056 4.072 11.437 4.765 12.645L4.741 12.6C5 13.048 5.268 13.434 5.564 13.796L5.551 13.78H5.55ZM12.15 3.81C14.691 3.81 16.75 5.87 16.75 8.41C16.75 10.95 14.691 13.01 12.15 13.01C9.609 13.01 7.55 10.951 7.55 8.41C7.558 5.873 9.613 3.818 12.149 3.81H12.15ZM23 20C23 22.21 18.1 24 12.06 24C6.02 24 1.12 22.21 1.12 20C1.12 18.67 2.88 17.5 5.59 16.78C5.84 17.02 6.11 17.3 6.4 17.6C3.71 18.24 2.11999 19.25 2.11999 20C2.11999 21.19 6.08 23 12.06 23C18.03 23 22 21.19 22 20C22 19.25 20.43 18.26 17.79 17.62C18.08 17.32 18.35 17.04 18.59 16.79C21.26 17.52 23 18.68 23 20Z"/></g></svg>