<svg viewBox="0 0 24 24"><path d="M9.49971 4H10.3537C10.2177 4.314 10.0807 4.71 10.0377 5.139C10.0377 5.139 9.99771 5.489 9.99771 6V9.5C9.99771 9.776 10.2217 10 10.4977 10H11.4977C11.7737 10 11.9977 9.776 11.9977 9.5V8.47C13.8157 8.69 16.2437 8.686 17.9977 8.473V9.5C17.9977 9.776 18.2217 10 18.4977 10H19.4977C19.7737 10 19.9977 9.776 19.9977 9.5V6.208C20.0097 5.581 19.9657 5.139 19.9657 5.139C19.9207 4.71 19.7837 4.314 19.6487 4H20.4997C20.7757 4 20.9997 3.776 20.9997 3.5C20.9997 3.224 20.7757 3 20.4997 3H19.4997C19.3037 3 19.1377 3.116 19.0557 3.28C18.8367 3.139 18.7127 2.882 18.7127 2.882H18.7067C18.4407 2.4 18.1417 1.925 17.9167 1.588C17.6977 1.26 17.3497 1.044 16.9577 0.992005C16.3527 0.912005 15.7047 0.887005 15.2647 0.881005C15.2647 0.881005 15.1917 0.880005 15.0677 0.880005C15.0537 0.880005 15.0387 0.880005 15.0237 0.880005C15.0077 0.880005 14.9937 0.880005 14.9787 0.880005C14.8547 0.880005 14.7817 0.881005 14.7817 0.881005V0.882005C14.3407 0.889005 13.6667 0.913005 13.0477 0.994005C12.6557 1.045 12.3057 1.262 12.0857 1.591C11.8607 1.928 11.5627 2.402 11.2967 2.884H11.2877C11.2877 2.884 11.1907 3.107 10.9317 3.262C10.8457 3.108 10.6877 3 10.4997 3H9.49971C9.22371 3 8.99971 3.224 8.99971 3.5C8.99971 3.776 9.22371 4 9.49971 4ZM12.7637 2.938C12.8867 2.737 13.0217 2.528 13.1657 2.312C13.1767 2.295 13.1937 2.285 13.2157 2.282C13.7677 2.21 14.3827 2.187 14.8017 2.181L14.8957 2.179L15.0277 2.178V2.177L15.0687 2.178V2.179H15.1287L15.2457 2.181C15.6517 2.187 16.2477 2.21 16.7877 2.281C16.8087 2.284 16.8247 2.294 16.8367 2.311C16.9917 2.542 17.1347 2.767 17.2657 2.981L17.8057 3.846C15.5477 4.477 13.3137 4.096 12.2117 3.823L12.7637 2.938ZM5.21071 11.297L0.313709 22.297C0.165709 22.627 0.407709 23 0.769709 23H2.73371L8.07671 11H5.66671C5.46971 11 5.29071 11.116 5.21071 11.297ZM21.9997 11V13H19.9997V11H9.49871L4.15671 23H23.4997C23.7757 23 23.9997 22.776 23.9997 22.5V11.5C23.9997 11.224 23.7757 11 23.4997 11H21.9997ZM21.9997 20H19.9997V16H21.9997V20Z"/></svg>