<svg viewBox="0 0 24 24"><path d="M18.115 10H13.952L12.471 5.854C12.313 5.412 11.687 5.412 11.529 5.854L10.048 10H5.885C5.411 10 5.203 10.598 5.575 10.892L8.841 13.479L7.679 17.576C7.553 18.022 8.048 18.385 8.435 18.13L12 15.782L15.565 18.13C15.952 18.385 16.447 18.022 16.321 17.576L15.159 13.479L18.425 10.892C18.796 10.598 18.588 10 18.115 10ZM12 0C5.373 0 0 5.373 0 12C0 18.627 5.373 24 12 24C18.627 24 24 18.627 24 12C24 5.373 18.627 0 12 0ZM12 22C6.486 22 2 17.514 2 12C2 6.486 6.486 2 12 2C17.514 2 22 6.486 22 12C22 17.514 17.514 22 12 22Z"/></svg>