<svg viewBox="0 0 24 24"><path fill-rule="evenodd" clip-rule="evenodd" d="M1 12C1 5.925 5.925 1 12 1C18.075 1 23 5.925 23 12C23 18.075 18.075 23 12 23C5.925 23 1 18.075 1 12ZM15.493 16.575C16.137 15.932 16.137 14.885 15.493 14.242L13.251 12L15.493 9.758C16.137 9.115 16.137 8.068 15.493 7.425L12.621 4.553C12.349 4.281 11.942 4.2 11.586 4.347C11.23 4.494 11 4.839 11 5.224V10.431L8.291 7.722L7.372 8.641L10.731 12L7.372 15.358L8.291 16.277L11 13.569V18.775C11 19.161 11.23 19.506 11.586 19.653C11.704 19.702 11.828 19.726 11.951 19.726C12.197 19.726 12.439 19.629 12.621 19.447L15.493 16.575ZM12.2999 6.06909V11.0481L12.3319 11.0801L14.5739 8.83809C14.6399 8.77209 14.6769 8.68409 14.6769 8.59009C14.6769 8.49609 14.6399 8.41009 14.5739 8.34309L12.2999 6.06909ZM12.2999 12.9509V17.9309L14.5739 15.6569C14.7099 15.5199 14.7099 15.2979 14.5739 15.1609L12.3319 12.9189L12.2999 12.9509Z"/></svg>