<svg viewBox="0 0 24 24"><path d="M19.8006 2.97145C20.446 2.97145 20.9715 3.49688 20.9715 4.14231V19.8002C20.9715 20.446 20.446 20.9715 19.8006 20.9715H4.14231C3.49688 20.9715 2.97145 20.446 2.97145 19.8006V4.14231C2.97145 3.49688 3.49688 2.97145 4.14231 2.97145H19.8006ZM19.8006 0.400024H4.14231C2.07574 0.400024 0.400024 2.07574 0.400024 4.14231V19.8002C0.400024 21.8672 2.07574 23.5429 4.14231 23.5429H19.8002C21.8672 23.5429 23.5429 21.8672 23.5429 19.8006V4.14231C23.5429 2.07574 21.8672 0.400024 19.8006 0.400024Z"/></svg>