<svg viewBox="0 0 24 24"><path d="M14.9842 0.18L16.2092 3.951C16.2882 4.195 16.1552 4.457 15.9112 4.536C15.8632 4.552 15.8152 4.559 15.7672 4.559C15.5712 4.559 15.3892 4.434 15.3252 4.238L13.9752 0.082C13.1552 0.037 12.3322 0 11.5002 0C10.6682 0 9.84523 0.037 9.02423 0.083L7.67423 4.239C7.61023 4.435 7.42823 4.56 7.23323 4.56C7.18623 4.56 7.13723 4.552 7.08923 4.537C6.84523 4.457 6.71223 4.195 6.79123 3.951L8.01623 0.18C6.29323 0.525 5.00023 2.01 5.00023 3.813V20.413C5.00023 21.853 6.09523 23.067 7.52923 23.194C8.83723 23.31 10.1622 23.37 11.5002 23.37C12.8382 23.37 14.1632 23.31 15.4712 23.194C16.9052 23.066 18.0002 21.853 18.0002 20.413V3.813C18.0002 2.01 16.7072 0.525 14.9842 0.18ZM11.5002 5.797C12.8652 5.797 14.2052 5.899 15.5272 6.059L13.7732 10H9.22723L7.47323 6.059C8.79523 5.899 10.1352 5.797 11.5002 5.797ZM6.50023 20.39V7.869L8.00023 11.238V18.602L6.50023 20.39ZM15.3382 21.7C14.0692 21.813 12.7782 21.87 11.5002 21.87C10.2222 21.87 8.93123 21.813 7.66223 21.7C7.62223 21.696 7.58823 21.675 7.54923 21.667L8.94823 20H14.0512L15.4502 21.667C15.4112 21.675 15.3782 21.696 15.3382 21.7ZM16.5002 20.39L15.0002 18.602V11.238L16.5002 7.869V20.39ZM0.0632324 12.25C0.0632324 14.646 0.874232 16.847 2.22523 18.614L4.00023 16.839V7.661L2.22523 5.886C0.874232 7.653 0.0632324 9.854 0.0632324 12.25ZM20.7752 5.886L19.0002 7.661V16.839L20.7752 18.614C22.1262 16.847 22.9372 14.646 22.9372 12.25C22.9382 9.854 22.1262 7.653 20.7752 5.886Z"/></svg>