<svg viewBox="0 0 24 24"><g clip-path="url(#clip0_783_911)"><path d="M17.5 11C17.494 11 17.487 11 17.48 11C16.418 11 15.416 11.259 14.535 11.717L14.571 11.7C12.44 12.795 11.008 14.979 11.008 17.497C11.008 21.085 13.917 23.994 17.505 23.994C21.093 23.994 24.002 21.085 24.002 17.497C24.002 13.909 21.093 11 17.505 11C17.504 11 17.503 11 17.501 11H17.5ZM21 20H16.2V21.5L13 19.5L16.2 17.5V19H21V20ZM18.8 17.5V16H14V15H18.8V13.5L22 15.5L18.8 17.5ZM10 17.5C10 17.509 10 17.52 10 17.531C10 18.417 10.161 19.266 10.456 20.049L10.44 20H0V13.5V13.499C0 11.29 1.79 9.5 3.999 9.5H4H11C11.002 9.5 11.004 9.5 11.006 9.5C12.203 9.5 13.277 10.029 14.006 10.865L14.01 10.87C11.608 12.144 10 14.629 10 17.489C10 17.493 10 17.497 10 17.5V17.499V17.5ZM3 4.5C3 2.015 5.015 0 7.5 0C9.985 0 12 2.015 12 4.5C12 6.985 9.985 9 7.5 9C7.498 9 7.496 9 7.494 9C5.012 9 3 6.988 3 4.506C3 4.504 3 4.502 3 4.5Z"/></g></svg>