<svg viewBox="0 0 24 24"><path d="M15.5 0C10.806 0 7 3.806 7 8.5C7 9.37 7.132 10.209 7.375 11H14C14.009 11 14.018 11.003 14.027 11.003L14.875 8.393C14.938 8.199 14.794 8 14.59 8H13.784C13.529 8 13.39 7.702 13.554 7.507L16.957 3.452C17.169 3.199 17.574 3.424 17.472 3.738L16.215 7.608C16.152 7.801 16.296 8 16.5 8H17.306C17.561 8 17.7 8.298 17.536 8.493L15.134 11.355C15.656 11.716 16 12.318 16 13V16.975C20.46 16.715 24 13.026 24 8.5C24 3.806 20.194 0 15.5 0ZM0 22C0 22.55 0.45 23 1 23H14C14.55 23 15 22.55 15 22V17H0V22ZM14 12H1C0.45 12 0 12.45 0 13V15H15V13C15 12.45 14.55 12 14 12Z"/></svg>