<svg viewBox="0 0 24 24"><path d="M19 2H16V3.13C15.998 4.162 15.162 4.998 14.13 5H9.87C8.838 4.998 8.002 4.162 8 3.13V2H5C4.448 2.002 4.002 2.448 4 3V23C4.002 23.552 4.448 23.998 5 24H19C19.552 23.998 19.998 23.552 20 23V3C19.998 2.448 19.552 2.002 19 2ZM17.5 20H6.5C6.224 20 6 19.776 6 19.5C6 19.224 6.224 19 6.5 19H17.5C17.776 19 18 19.224 18 19.5C18 19.776 17.776 20 17.5 20ZM17.5 15H6.5C6.224 15 6 14.776 6 14.5C6 14.224 6.224 14 6.5 14H17.5C17.776 14 18 14.224 18 14.5C18 14.776 17.776 15 17.5 15ZM17.5 10H6.5C6.224 10 6 9.776 6 9.5C6 9.224 6.224 9 6.5 9H17.5C17.776 9 18 9.224 18 9.5C18 9.776 17.776 10 17.5 10ZM9 3.13V0.87C9 0.39 9.39 0 9.87 0H14.13C14.61 0 15 0.39 15 0.87V3.13C15 3.61 14.61 4 14.13 4H9.87C9.39 4 9 3.61 9 3.13Z"/></svg>