<svg viewBox="0 0 24 24"><path fill-rule="evenodd" clip-rule="evenodd" d="M1 12C1 5.925 5.925 1 12 1C18.075 1 23 5.925 23 12C23 18.075 18.075 23 12 23C5.925 23 1 18.075 1 12ZM3 12C3 16.971 7.029 21 12 21C16.971 21 21 16.971 21 12C21 7.029 16.971 3 12 3C7.029 3 3 7.029 3 12ZM4 12C4 7.589 7.589 4 12 4C16.411 4 20 7.589 20 12C20 16.411 16.411 20 12 20C7.589 20 4 16.411 4 12ZM12.001 13C12.114 13 12.228 12.961 12.321 12.883C12.533 12.706 12.561 12.39 12.382 12.179L8.194 7.187C8.018 6.975 7.702 6.948 7.49 7.125C7.278 7.303 7.251 7.618 7.429 7.83L11.618 12.821C11.716 12.939 11.858 13 12.001 13ZM13.621 11.345L15.524 9.077C15.702 8.866 15.674 8.55 15.463 8.372C15.251 8.195 14.936 8.223 14.759 8.434L12.979 10.555L13.531 11.213C13.551 11.2377 13.5679 11.2641 13.5847 11.2904C13.5965 11.3089 13.6082 11.3273 13.621 11.345Z"/></svg>