<svg viewBox="0 0 24 24"><path d="M5 11.5C5 10.652 5.167 9.844 5.464 9.102C5.558 8.867 5.477 8.601 5.258 8.474L1.772 6.461C1.52 6.316 1.189 6.411 1.067 6.675C0.385 8.143 0 9.775 0 11.5C0 13.225 0.385 14.858 1.066 16.325C1.189 16.589 1.519 16.684 1.771 16.539L5.258 14.526C5.477 14.399 5.558 14.133 5.464 13.898C5.167 13.156 5 12.348 5 11.5ZM17.244 7.606L20.723 5.597C20.975 5.451 21.058 5.116 20.89 4.878C18.997 2.199 15.99 0.371 12.541 0.061C12.251 0.035 12 0.275 12 0.566V4.583C12 4.836 12.191 5.038 12.441 5.074C14.121 5.317 15.592 6.2 16.599 7.471C16.755 7.669 17.026 7.732 17.244 7.606ZM11.5 0C11.499 0 11.498 0 11.498 0H11.503C11.502 0 11.501 0 11.5 0ZM11 4.583V0.566C11 0.274 10.749 0.035 10.459 0.061C7.009 0.371 4.003 2.198 2.11 4.878C1.941 5.116 2.024 5.452 2.276 5.597L5.755 7.606C5.974 7.732 6.244 7.669 6.401 7.471C7.408 6.2 8.88 5.317 10.559 5.074C10.809 5.038 11 4.835 11 4.583ZM12 18.417V22.434C12 22.726 12.251 22.965 12.541 22.939C15.991 22.629 18.997 20.802 20.89 18.122C21.058 17.884 20.976 17.548 20.723 17.403L17.243 15.394C17.024 15.268 16.754 15.331 16.597 15.529C15.591 16.8 14.119 17.683 12.44 17.926C12.191 17.962 12 18.165 12 18.417ZM5.756 15.394L2.277 17.403C2.025 17.549 1.942 17.884 2.11 18.122C4.003 20.801 7.01 22.629 10.459 22.939C10.75 22.965 11 22.725 11 22.434V18.417C11 18.164 10.809 17.962 10.559 17.926C8.879 17.683 7.408 16.8 6.401 15.529C6.245 15.331 5.974 15.268 5.756 15.394ZM21.228 6.461L17.741 8.474C17.522 8.601 17.441 8.867 17.535 9.102C17.833 9.844 18 10.652 18 11.5C18 12.348 17.833 13.156 17.535 13.898C17.441 14.133 17.522 14.399 17.741 14.526L21.228 16.539C21.48 16.685 21.811 16.589 21.933 16.325C22.615 14.858 23 13.225 23 11.5C23 9.775 22.615 8.143 21.934 6.675C21.811 6.411 21.48 6.316 21.228 6.461ZM15 12.688C15 12.564 14.99 12.438 14.975 12.316C14.94 12.048 14.857 11.683 14.759 11.431C14.759 11.431 13.943 9.287 12.01 6.797C11.753 6.466 11.247 6.466 10.989 6.797C9.056 9.287 8.24 11.431 8.24 11.431C8.143 11.682 8.059 12.047 8.025 12.316C8.01 12.439 8 12.564 8 12.688C8 14.621 9.567 16.188 11.5 16.188C13.433 16.188 15 14.622 15 12.688Z"/></svg>