<svg viewBox="0 0 24 24"><path fill-rule="evenodd" clip-rule="evenodd" d="M18.5066 10.7517C14.961 8.64612 9.1125 8.45262 5.72737 9.48012C5.18362 9.64512 4.60912 9.33799 4.44487 8.79462C4.27987 8.25087 4.58625 7.67637 5.13075 7.51137C9.0165 6.33162 15.4751 6.55999 19.5574 8.98249C20.046 9.27312 20.2065 9.90387 19.9166 10.3925C19.6267 10.8807 18.9952 11.0424 18.5066 10.7517ZM18.3911 13.871C18.1417 14.2745 17.6145 14.4009 17.2114 14.1534C14.2552 12.3365 9.74775 11.8096 6.24975 12.8709C5.79675 13.0085 5.3175 12.7527 5.17987 12.2997C5.04337 11.846 5.29912 11.3682 5.75175 11.2299C9.74662 10.0179 14.7131 10.6047 18.1084 12.692C18.5119 12.9399 18.6386 13.4686 18.3911 13.871ZM17.0445 16.8657C16.8472 17.1901 16.425 17.2921 16.1021 17.0941C13.5191 15.5157 10.2675 15.1591 6.43875 16.0336C6.07012 16.118 5.70262 15.887 5.61825 15.5184C5.53387 15.149 5.76412 14.7815 6.1335 14.6971C10.3237 13.739 13.9177 14.1515 16.8172 15.9237C17.1405 16.1206 17.2425 16.5432 17.0445 16.8657ZM12 1.00024C5.92537 1.00024 1.00012 5.92549 1.00012 12.0001C1.00012 18.0759 5.92537 23 12 23C18.0757 23 22.9999 18.0755 22.9999 12.0001C22.9999 5.92549 18.0757 1.00024 12 1.00024Z"/></svg>