<svg viewBox="0 0 24 24"><path d="M16.4577 13.8333C16.229 13.7082 15.1107 13.1064 14.904 13.0183C14.6979 12.9308 14.5411 12.89 14.3779 13.116C14.2153 13.3415 13.7514 13.8456 13.6102 13.9959C13.4701 14.1462 13.3354 14.1586 13.1061 14.0335C13.069 14.0132 13.0186 13.9891 12.9566 13.9593C12.6357 13.8055 12.0028 13.5022 11.2862 12.8122C10.6189 12.1728 10.1835 11.396 10.0584 11.1581C9.93332 10.9198 10.0584 10.8011 10.1776 10.6884C10.254 10.6158 10.332 10.5274 10.4103 10.4385C10.4536 10.3894 10.4971 10.3401 10.5405 10.2933C10.6458 10.1805 10.6907 10.0949 10.7532 9.97568C10.7633 9.95637 10.7739 9.9361 10.7853 9.91478C10.8664 9.7607 10.8352 9.62649 10.7821 9.50731C10.7457 9.42568 10.5373 8.85782 10.3532 8.35609C10.2685 8.12544 10.1888 7.90824 10.1336 7.75932C9.98005 7.34445 9.80919 7.34884 9.67859 7.35219C9.6603 7.35266 9.6428 7.35311 9.62625 7.35239C9.56817 7.34961 9.50661 7.34334 9.44281 7.33685C9.35857 7.32827 9.27039 7.3193 9.1812 7.31744C8.94337 7.31481 8.71521 7.41144 8.55147 7.58377C8.53808 7.59718 8.52326 7.61174 8.5072 7.62751C8.25664 7.87359 7.70669 8.41369 7.66835 9.4853C7.62755 10.6256 8.41081 11.7691 8.52355 11.9253C8.53313 11.9386 8.55196 11.9687 8.57983 12.0132C8.87986 12.4921 10.2273 14.6432 12.3518 15.5716C14.2792 16.4146 14.6145 16.3458 14.9166 16.2838C14.9782 16.2711 15.0386 16.2587 15.1107 16.2545C15.537 16.2292 16.5017 15.7439 16.7175 15.2114C16.9344 14.6788 16.95 14.2123 16.8936 14.1146C16.8469 14.0353 16.7377 13.977 16.5735 13.8892C16.5375 13.87 16.4988 13.8494 16.4577 13.8268V13.8333Z"/><path fill-rule="evenodd" clip-rule="evenodd" d="M1 12C1 5.92514 5.92514 1 12 1C18.0749 1 23 5.92514 23 12C23 18.0749 18.0749 23 12 23C5.92514 23 1 18.0749 1 12ZM12 5C15.8673 5 19 8.13275 19 12C19 15.8673 15.8673 19 12 19C10.6508 19 9.39101 18.6187 8.32245 17.9579L5.33204 19.1598L6.19115 15.9084C5.43898 14.7924 5 13.4476 5 12C5 8.13275 8.13275 5 12 5Z"/></svg>