<svg viewBox="0 0 24 24"><g clip-path="url(#clip0_783_932)"><path d="M17.77 11.01C17.703 11.003 17.624 11 17.545 11C17.529 11 17.513 11 17.498 11H17.5C13.91 11 11 13.91 11 17.5C11 17.513 11 17.529 11 17.545C11 17.624 11.004 17.703 11.011 17.78L11.01 17.77C11.158 21.242 14.008 24 17.502 24C21.091 24 24 21.091 24 17.502C24 14.008 21.242 11.157 17.783 11.01H17.77ZM18.28 21H16.72V19.44H18.28V21ZM18.28 18.67H16.72L16.62 14H18.38L18.28 18.67ZM17.5 10C17.522 9.999 17.547 9.999 17.573 9.999C17.702 9.999 17.83 10.007 17.955 10.021L17.94 10.02C17.978 9.718 18 9.368 18 9.013C18 9.008 18 9.004 18 8.999V9C18 4.029 13.971 0 9 0C4.029 0 0 4.029 0 9C0 13.971 4.029 18 9 18C9.36 18 9.714 17.978 10.062 17.936L10.02 17.94C10.007 17.83 9.999 17.703 9.999 17.573C9.999 17.547 9.999 17.522 10 17.496V17.5C10.002 13.358 13.358 10.002 17.5 10ZM9 9.75C8.773 9.748 8.57 9.649 8.431 9.491L8.43 9.49L3.94 4.22L5.08 3.24L9 7.84L11.57 4.82L12.71 5.79L9.57 9.49C9.43 9.649 9.227 9.749 9 9.75Z"/></g></svg>