<svg viewBox="0 0 24 24"><g clip-path="url(#clip0_950_378)"><path d="M16.125 19.2177V16.7068C16.125 16.5306 16.1041 16.3587 16.071 16.1956C16.2228 16.1226 16.3663 16.0261 16.4954 15.9039C16.8452 15.573 17 15.1373 17 14.7129V14.1264C17 13.6058 16.7511 13.162 16.3581 12.8787C16.0026 12.6224 15.5925 12.5384 15.2552 12.5384H14.3255C14.2429 12.5384 14.1583 12.5439 14.073 12.5551L13.2931 11.381L13.2923 11.3798C12.9012 10.7884 12.2411 10.287 11.4372 10.1188L11.5889 9.89109C11.9037 9.41584 12.4704 9.05941 13.1001 9.05941C13.9186 9 15.1815 9 16 9C16.8185 9 18.0814 9 18.8999 9.05941C19.5296 9.05941 20.0963 9.41584 20.4111 9.89109L21.7963 11.9703C21.8593 11.7327 22.1111 11.5714 22.4259 11.5714H23.3704C23.6852 11.5714 24 11.7327 24 12.0891V12.6832C24 13.0396 23.7482 13.2772 23.3704 13.2772L22.6667 13.2857C22.7069 13.387 22.7503 13.488 22.7935 13.5887C22.9529 13.9603 23.1111 14.3291 23.1111 14.703V20.1429C23.1111 20.4993 22.6 21 22.2222 21H21.3333C20.9556 21 20.4444 20.4993 20.4444 20.1429V19.0396C19.0362 19.1551 17.593 19.2145 16.125 19.2177Z"/><path fill-rule="evenodd" clip-rule="evenodd" d="M8 21.2178C6.48889 21.2178 5.0037 21.1584 3.55556 21.0396V22.1429C3.55556 22.4993 3.04445 23 2.66667 23H1.77778C1.4 23 0.888889 22.4993 0.888889 22.1429V16.703C0.888889 16.3291 1.04703 15.9605 1.20646 15.5889C1.2497 15.4881 1.29303 15.3871 1.33333 15.2857L0.62963 15.2772C0.251852 15.2772 0 15.0396 0 14.6832V14.0891C0 13.7327 0.314815 13.5714 0.62963 13.5714H1.57407C1.88889 13.5714 2.14074 13.7327 2.2037 13.9703L3.58886 11.8911C3.90367 11.4158 4.47043 11.0594 5.10006 11.0594C5.91858 11 7.18148 11 8 11C8.81852 11 10.0814 11 10.8999 11.0594C11.5296 11.0594 12.0963 11.4158 12.4111 11.8911L13.7963 13.9703C13.8593 13.7327 14.1111 13.5714 14.4259 13.5714H15.3704C15.6852 13.5714 16 13.7327 16 14.0891V14.6832C16 15.0396 15.7481 15.2772 15.3704 15.2772L14.6667 15.2857C14.7069 15.387 14.7503 15.4882 14.7935 15.5889C14.953 15.9605 15.1111 16.3291 15.1111 16.703V22.1429C15.1111 22.4993 14.6 23 14.2222 23H13.3333C12.9556 23 12.4444 22.4993 12.4444 22.1429V21.0396C10.9963 21.1584 9.51111 21.2178 8 21.2178ZM5.22596 11.9505C5.98151 11.8911 7.24444 11.8571 8 11.8571C8.75556 11.8571 10.0185 11.8911 10.774 11.9505C11.0889 11.9505 11.3407 12.1287 11.5296 12.3663L12.9149 14.4456C11.4038 14.6238 9.06667 14.6832 7.55556 14.6832C6.04445 14.6832 4.59624 14.6238 3.08512 14.4456L4.47043 12.3663C4.65932 12.1287 4.91114 11.9505 5.22596 11.9505ZM9.80438 20.4286H6.19562C6.00895 20.4286 5.75997 20.3118 5.63553 20.1365L4.14225 17.8586C3.58225 17.8586 3.02219 17.6834 2.52441 17.5081C2.27553 17.3913 2.02664 17.1577 1.90219 16.9825C1.83997 16.9241 1.77778 16.8073 1.77778 16.6904V16.34C1.77778 16.1648 2.02664 16.1064 2.2133 16.1648C2.71108 16.3984 3.27114 16.5736 3.83114 16.632C3.86173 16.6416 3.8955 16.6512 3.931 16.6613C4.11214 16.7127 4.34041 16.7776 4.44444 16.9241L6.0605 19.3962C6.07515 19.41 6.08989 19.4271 6.10536 19.445C6.15557 19.5032 6.21439 19.5714 6.30948 19.5714H9.69052C9.78561 19.5714 9.84451 19.5031 9.89473 19.4449C9.9102 19.427 9.92485 19.41 9.9395 19.3962L11.5556 16.9241C11.6596 16.7776 11.8879 16.7127 12.0691 16.6612C12.1046 16.6512 12.1383 16.6416 12.1689 16.632C12.7289 16.5736 13.2889 16.3984 13.7867 16.1648C13.9734 16.1064 14.2222 16.1648 14.2222 16.34V16.6904C14.2222 16.8073 14.16 16.9241 14.0978 16.9825C13.9734 17.1577 13.7245 17.3913 13.4756 17.5081C12.9778 17.6834 12.4177 17.8586 11.8577 17.8586L10.3645 20.1365C10.24 20.3118 9.99105 20.4286 9.80438 20.4286ZM9.24444 18.7143H6.75556C6.56889 18.7143 6.32006 18.5595 6.19562 18.3843L5.07559 16.6904C5.32448 16.7488 5.81088 16.7488 5.99755 16.7488L6.59713 17.6C6.60688 17.6092 6.6195 17.6219 6.63413 17.6366C6.71277 17.716 6.85267 17.8571 6.95755 17.8571H9.04245C9.14733 17.8571 9.28735 17.7159 9.36599 17.6365C9.38062 17.6218 9.39312 17.6092 9.40287 17.6L10.0025 16.7488C10.1891 16.7488 10.6755 16.7488 10.9244 16.6904L9.80438 18.3843C9.67994 18.5595 9.43111 18.7143 9.24444 18.7143Z"/><path d="M5 6C5 6.55228 3.88071 7 2.5 7C1.11929 7 0 6.55228 0 6L3 1H21L24 6C24 6.55228 22.8807 7 21.5 7C20.1193 7 19 6.55228 19 6C19 6.55228 17.8807 7 16.5 7C15.1193 7 14 6.55228 14 6C14 6.55228 13.1046 7 12 7C10.8954 7 10 6.55228 10 6C10 6.55228 8.88071 7 7.5 7C6.11929 7 5 6.55228 5 6Z"/></g></svg>