<svg viewBox="0 0 24 24"><path fill-rule="evenodd" clip-rule="evenodd" d="M18 0H6C4.9 0 4 0.9 4 2V21C4 22.1 4.9 23 6 23H18C19.1 23 20 22.1 20 21V2C20 0.9 19.1 0 18 0ZM18 21H6V2H18V21ZM17.04 2.95898H6.95898V20.04H17.04V2.95898ZM12 19C11.448 19 11 18.552 11 18C11 17.448 11.448 17 12 17C12.552 17 13 17.448 13 18C13 18.552 12.552 19 12 19ZM16 10.954L15.104 11.245C15.025 11.575 14.894 11.884 14.721 12.165L15.15 13.007L14.846 13.311L14.508 13.649L13.666 13.22C13.384 13.393 13.076 13.524 12.746 13.603L12.454 14.5H11.546L11.255 13.604C10.925 13.525 10.616 13.394 10.335 13.221L9.49298 13.65L9.15498 13.312L8.84998 13.007L9.27898 12.165C9.10598 11.883 8.97498 11.575 8.89598 11.245L7.99998 10.954V10.046L8.89598 9.75498C8.97498 9.42498 9.10598 9.11598 9.27898 8.83498L8.84998 7.99298L9.49198 7.35098L10.334 7.77998C10.616 7.60698 10.924 7.47598 11.254 7.39698L11.546 6.49998H12.454L12.745 7.39598C13.075 7.47498 13.384 7.60598 13.665 7.77898L14.507 7.34998L15.149 7.99198L14.72 8.83398C14.893 9.11598 15.024 9.42398 15.103 9.75398L16 10.046V10.954ZM13.8001 10.5C13.8001 11.4941 12.9942 12.3 12.0001 12.3C11.006 12.3 10.2001 11.4941 10.2001 10.5C10.2001 9.50584 11.006 8.69995 12.0001 8.69995C12.9942 8.69995 13.8001 9.50584 13.8001 10.5Z"/></svg>