<svg viewBox="0 0 24 24"><path d="M18.18 21.5H5.82C6.688 18.867 9.126 17 12 17C14.874 17 17.312 18.867 18.167 21.454L18.18 21.5ZM12 10.5C14.485 10.5 16.5 8.485 16.5 6C16.5 3.515 14.485 1.5 12 1.5C9.515 1.5 7.5 3.515 7.5 6C7.5 6.002 7.5 6.004 7.5 6.006C7.5 8.488 9.512 10.5 11.994 10.5C11.996 10.5 11.998 10.5 12 10.5ZM17.17 17.62C17.304 17.601 17.418 17.527 17.489 17.422L17.49 17.42C17.553 17.334 17.59 17.227 17.59 17.111C17.59 17.107 17.59 17.104 17.59 17.1V17.101C17.59 17.081 17.58 17.061 17.58 17.041C17.55 16.909 17.475 16.797 17.372 16.722L17.37 16.721L15.73 15.571C15.651 15.519 15.555 15.488 15.451 15.488C15.329 15.488 15.217 15.531 15.129 15.602L15.13 15.601C15.098 15.632 15.068 15.664 15.042 15.699L15.04 15.701C14.98 15.782 14.944 15.883 14.944 15.994C14.944 16.021 14.946 16.048 14.95 16.074V16.071C14.977 16.204 15.053 16.317 15.158 16.39L15.16 16.391L16.8 17.541C16.874 17.598 16.969 17.632 17.071 17.632C17.106 17.632 17.14 17.628 17.173 17.62L17.17 17.621V17.62ZM7.2 17.54L8.84 16.39C8.947 16.316 9.023 16.203 9.049 16.073L9.05 16.07C9.054 16.047 9.056 16.02 9.056 15.993C9.056 15.883 9.02 15.781 8.959 15.699L8.96 15.7C8.938 15.659 8.908 15.626 8.871 15.601L8.87 15.6C8.785 15.525 8.673 15.48 8.551 15.48C8.446 15.48 8.348 15.514 8.269 15.571L8.27 15.57L6.63 16.72C6.525 16.796 6.45 16.908 6.421 17.036L6.42 17.04C6.42 17.06 6.41 17.08 6.41 17.1C6.41 17.102 6.41 17.103 6.41 17.105C6.41 17.222 6.444 17.33 6.501 17.422L6.5 17.42C6.578 17.525 6.694 17.599 6.827 17.62H6.83C6.86 17.627 6.894 17.631 6.929 17.631C7.031 17.631 7.126 17.597 7.201 17.539L7.2 17.54ZM15.5 11H8.5H8.499C6.29 11 4.5 12.79 4.5 14.999V15V19.51C4.828 18.89 5.204 18.355 5.637 17.873L5.63 17.88C5.496 17.666 5.417 17.405 5.417 17.127C5.417 17.036 5.425 16.948 5.441 16.862L5.44 16.871C5.514 16.47 5.736 16.13 6.046 15.904L6.05 15.901L7.69 14.751C7.927 14.585 8.22 14.486 8.537 14.486C8.633 14.486 8.728 14.495 8.819 14.513L8.81 14.512C9.214 14.579 9.556 14.803 9.777 15.117L9.78 15.122L9.87 15.272C10.509 15.101 11.243 15.002 12 15.002C12.757 15.002 13.491 15.1 14.19 15.285L14.13 15.272L14.22 15.122C14.444 14.803 14.786 14.579 15.181 14.513L15.19 14.512C15.272 14.496 15.366 14.487 15.463 14.487C15.78 14.487 16.074 14.586 16.315 14.755L16.31 14.752L17.95 15.902C18.264 16.131 18.486 16.471 18.559 16.863L18.56 16.872C18.575 16.949 18.583 17.038 18.583 17.129C18.583 17.408 18.504 17.668 18.366 17.888L18.37 17.882C18.796 18.357 19.172 18.892 19.479 19.469L19.5 19.512V15.002V15.001C19.5 12.792 17.71 11.002 15.501 11.002H15.5V11Z"/></svg>