<svg viewBox="0 0 24 24"><path d="M23.301 9.31694C23.218 9.31694 23.134 9.33193 23.05 9.36393L20.924 10.1779C20.606 10.2999 20.324 10.5009 20.106 10.7619L17.459 13.9229C17.1181 14.3299 16.6291 14.5849 16.1001 14.6309L13.6801 14.8429C13.4941 14.8589 13.3111 14.9009 13.1361 14.9679L10.5641 15.9529C10.2471 16.0749 9.96611 16.2749 9.74811 16.5349L7.92412 18.7089C7.70512 18.9689 7.42412 19.1699 7.10713 19.2909L4.53615 20.2749C4.21815 20.3969 3.93615 20.5978 3.71715 20.8588L2.88816 21.8498C2.50516 22.3058 2.82816 22.9998 3.42216 22.9998H23C23.552 22.9998 24 22.5518 24 21.9998V10.0169C24 9.61593 23.671 9.31694 23.301 9.31694ZM21.55 20.2529H20.782V21.1648H19.574V20.2529H16.6861V19.2849C17.2941 18.3249 18.214 17.2179 19.446 15.9649H20.95C19.579 17.3039 18.619 18.3859 18.07 19.2129H19.574V18.0769H20.782V19.2129H21.55V20.2529ZM4.76614 12.9749C5.24314 12.6769 5.79214 12.5189 6.35413 12.5189C7.39413 12.5189 8.34412 13.0449 8.89611 13.9249L15.6821 9.68493C15.2601 9.00694 15.1261 8.20494 15.3061 7.42595C15.4861 6.64495 15.9601 5.98096 16.6391 5.55696C17.1161 5.25797 17.665 5.09997 18.226 5.09997C19.266 5.09997 20.216 5.62596 20.768 6.50596L21.614 5.97696C22.091 5.67896 22.229 5.04697 21.918 4.57797C21.492 3.93498 20.842 3.00498 20.05 2.03699C19.856 1.79999 19.568 1.66699 19.27 1.66699C19.181 1.66699 19.091 1.67899 19.002 1.70299C17.95 1.99499 16.9041 2.35399 15.8701 2.78198C15.1391 3.08498 14.4291 3.41698 13.7401 3.77498C12.9311 3.82598 12.1181 3.90698 11.3021 4.02197C9.74311 4.24097 8.22712 4.57097 6.76013 5.00197C5.61914 5.64096 4.50915 6.36896 3.44016 7.18995C2.37116 8.01094 1.37017 8.90694 0.459178 9.84693L0.722176 10.2679C0.475178 10.9279 0.248179 11.5989 0.0431808 12.2829C-0.0398185 12.5609 -0.00281883 12.8609 0.15118 13.1059L0.662176 13.9239C0.787175 14.1229 0.837175 14.3599 0.804175 14.5929L0.686176 15.4309C0.654176 15.6639 0.705176 15.8999 0.829175 16.0999L1.42917 17.0599C1.61617 17.3589 1.94017 17.5299 2.27716 17.5299C2.39016 17.5299 2.50516 17.5109 2.61616 17.4699C2.94916 17.3489 3.35716 17.1909 3.76815 17.0219C2.96016 15.6299 3.39116 13.8339 4.76614 12.9749ZM2.18016 10.6089C2.28116 10.3119 2.36816 10.0709 2.36816 10.0709C3.00116 9.47493 3.66615 8.90794 4.35415 8.37994C5.30314 7.65095 6.30913 6.98395 7.34613 6.39596C8.70612 6.00496 10.1061 5.70696 11.5121 5.50996C12.0651 5.43196 12.6351 5.38596 13.2021 5.33896L3.70715 11.2719H2.65316C2.31016 11.2709 2.06917 10.9339 2.18016 10.6089ZM6.35313 13.5189C5.99114 13.5189 5.62514 13.6169 5.29514 13.8229C4.35815 14.4079 4.07415 15.6419 4.65915 16.5789C5.03814 17.1859 5.69014 17.5189 6.35713 17.5189C6.71913 17.5189 7.08513 17.4209 7.41512 17.2149C8.35212 16.6299 8.63712 15.3959 8.05112 14.4589C7.67212 13.8519 7.02013 13.5189 6.35313 13.5189ZM18.226 6.09996C17.864 6.09996 17.498 6.19796 17.1681 6.40396C16.2311 6.98895 15.9461 8.22294 16.5321 9.15994C16.9111 9.76693 17.563 10.0999 18.23 10.0999C18.592 10.0999 18.958 10.0019 19.288 9.79593C20.225 9.21094 20.509 7.97694 19.924 7.03995C19.545 6.43296 18.893 6.09996 18.226 6.09996Z"/></svg>