<svg viewBox="0 0 24 24"><path d="M21.933 17C21.046 17 20.204 16.608 19.634 15.928L15.199 10.642C14.844 10.219 14.899 9.588 15.322 9.233C15.746 8.878 16.376 8.933 16.731 9.357L21.166 14.642C21.356 14.869 21.637 15 21.933 15H24V6C24 5.448 23.552 5 23 5H20.466C20.171 5 19.89 4.869 19.7 4.643L18.082 2.715C17.702 2.262 17.141 2 16.55 2H7.45C6.859 2 6.298 2.262 5.918 2.714L4.3 4.643C4.11 4.869 3.829 5 3.534 5H1C0.448 5 0 5.448 0 6V18C0 18.552 0.448 19 1 19H2.663C2.959 19 3.239 19.131 3.429 19.357L5.886 22.285C6.266 22.738 6.827 23 7.419 23H23C23.552 23 24 22.552 24 22V17H21.933ZM9.933 17C9.044 17 8.207 16.609 7.635 15.929L3.2 10.643C2.844 10.22 2.9 9.589 3.323 9.234C3.746 8.879 4.377 8.934 4.732 9.358L9.167 14.644C9.357 14.87 9.636 15 9.933 15H10.898L12.486 16.892C12.52 16.932 12.563 16.961 12.599 17H9.933ZM15.933 17C15.044 17 14.207 16.609 13.635 15.929L9.2 10.643C8.844 10.22 8.9 9.589 9.323 9.234C9.746 8.879 10.377 8.934 10.732 9.358L15.167 14.644C15.357 14.87 15.636 15 15.933 15H16.898L18.486 16.892C18.52 16.932 18.563 16.961 18.599 17H15.933Z"/></svg>