<svg viewBox="0 0 24 24"><path fill-rule="evenodd" clip-rule="evenodd" d="M23.6327 7.96295L23.6897 8.01095C24.0577 8.31995 24.1057 8.86895 23.7957 9.23695L18.9187 15.0499C18.4557 15.6019 17.6317 15.6749 17.0797 15.2109L14.1307 12.7359C13.8947 12.5369 13.8427 12.1939 14.0107 11.9349C14.1547 11.7129 14.0667 11.4169 13.8277 11.3039C10.5577 9.75395 8.42468 7.94695 8.42468 7.94695L8.42668 7.94395C7.57768 7.23195 6.75368 6.47695 5.96268 5.66895C4.95468 4.64095 4.02568 3.56395 3.17468 2.44795C2.91068 2.10095 2.95268 1.60895 3.26468 1.30295L3.95868 0.62295C4.70068 -0.10405 5.85368 -0.20805 6.70968 0.38195C7.50168 0.92795 8.53468 1.59095 9.58368 2.12195L9.58668 2.11695C11.2497 2.13495 12.9327 2.26795 14.6247 2.52795C15.7537 2.70195 16.8607 2.92895 17.9457 3.20395C18.3297 3.30195 18.5967 3.65295 18.5967 4.04995V5.91395C18.5967 6.42895 18.8247 6.91695 19.2187 7.24795L19.7557 7.69895C20.1507 8.02995 20.6707 8.16995 21.1777 8.07995L22.9227 7.77295C23.1757 7.72795 23.4357 7.79795 23.6327 7.96295ZM5.12495 8.88997C5.12544 8.88923 5.12593 8.88849 5.12642 8.888L19.8884 21.233C20.6044 21.832 20.1814 23 19.2464 23H1.02642C0.464422 23 -0.00157775 22.535 0.0234222 21.974C0.219422 17.716 1.63442 13.78 3.91542 10.49L0.895422 7.956C0.472422 7.601 0.417422 6.97 0.772422 6.547C1.12742 6.124 1.75842 6.069 2.18142 6.424L5.12342 8.892C5.12393 8.89149 5.12444 8.89073 5.12495 8.88997ZM5.00042 18L7.00042 21.201L9.00042 18H5.00042ZM7.00042 12.799L5.00042 16H9.00042L7.00042 12.799Z"/></svg>