<svg viewBox="0 0 24 24"><g clip-path="url(#clip0_783_916)"><path d="M1.5 13.5001C1.502 7.84312 5.981 3.23312 11.587 3.02012L11.606 3.01912L10.293 1.70612C10.109 1.52512 9.996 1.27312 9.996 0.995117C9.996 0.443117 10.444 -0.00488281 10.996 -0.00488281C11.274 -0.00488281 11.526 0.109117 11.707 0.292117L15.414 3.99912L11.707 7.70612C11.526 7.88912 11.275 8.00212 10.997 8.00212C10.445 8.00212 9.997 7.55412 9.997 7.00212C9.997 6.72412 10.11 6.47312 10.293 6.29212L11.564 5.02112C7.074 5.26612 3.527 8.96712 3.527 13.4961C3.527 18.1831 7.327 21.9831 12.014 21.9831C16.701 21.9831 20.501 18.1831 20.501 13.4961C20.501 10.5081 18.957 7.88112 16.624 6.36912L16.591 6.34912L18.031 4.91912C20.742 6.84212 22.49 9.96912 22.49 13.5041C22.49 19.3001 17.791 23.9991 11.995 23.9991C6.199 23.9991 1.5 19.3001 1.5 13.5041C1.5 13.5021 1.5 13.5001 1.5 13.4981V13.5001ZM13.414 13.5001L15.535 11.3791C15.715 11.1981 15.827 10.9491 15.827 10.6731C15.827 10.1211 15.379 9.67312 14.827 9.67312C14.551 9.67312 14.302 9.78412 14.121 9.96512L12 12.0861L9.879 9.96512C9.698 9.78312 9.447 9.67112 9.171 9.67112C8.619 9.67112 8.171 10.1191 8.171 10.6711C8.171 10.9481 8.283 11.1981 8.465 11.3791L10.586 13.5001L8.465 15.6211C8.283 15.8021 8.171 16.0531 8.171 16.3291C8.171 16.8811 8.619 17.3291 9.171 17.3291C9.448 17.3291 9.698 17.2171 9.879 17.0351L12 14.9141L14.121 17.0351C14.302 17.2151 14.551 17.3271 14.827 17.3271C15.379 17.3271 15.827 16.8791 15.827 16.3271C15.827 16.0511 15.716 15.8021 15.535 15.6211L13.414 13.5001Z"/></g></svg>