<svg viewBox="0 0 24 24"><path fill-rule="evenodd" clip-rule="evenodd" d="M8 4.5C8 5.88071 6.88071 7 5.5 7C4.11929 7 3 5.88071 3 4.5C3 3.11929 4.11929 2 5.5 2C6.88071 2 8 3.11929 8 4.5ZM1.10469 21.3724C0.389505 21.9725 0.813869 23.1384 1.74748 23.1384H23L23 9C23 8.44772 22.5523 8 22 8H17.4052C17.1701 8 16.9425 8.08283 16.7624 8.23396L1.10469 21.3724ZM9 10V12.442L2 18.3157V10C2 8.89543 2.89543 8 4 8H7C8.10457 8 9 8.89543 9 10ZM12 15.833C11.9979 15.5787 12.0948 15.3243 12.2886 15.1306C12.6733 14.7459 13.2977 14.7459 13.6824 15.1306C13.8761 15.3243 13.9723 15.5794 13.9709 15.833V17.6353L19.6062 12L21 13.3938L15.3647 19.0291H17.167C17.4192 19.0291 17.6715 19.1253 17.8639 19.3176C18.2486 19.7023 18.2486 20.3268 17.8639 20.7115C17.6715 20.9038 17.4192 21 17.167 21H12L12 15.833Z"/></svg>