<svg viewBox="0 0 24 24"><path d="M5.19995 11.3L0.299949 22.3C0.282949 22.35 0.272949 22.407 0.272949 22.467C0.272949 22.759 0.507949 22.996 0.799949 23H2.79995L8.09995 11H5.69995C5.67995 10.997 5.65795 10.995 5.63395 10.995C5.43495 10.995 5.26595 11.12 5.20095 11.296L5.19995 11.299V11.3ZM21.9999 11V13H19.9999V11H9.49995L4.19995 23H23.4999C23.5089 23.001 23.5179 23.001 23.5279 23.001C23.7889 23.001 23.9999 22.789 23.9999 22.529C23.9999 22.519 23.9999 22.509 23.9989 22.499V22.5V11.5C23.9999 11.491 23.9999 11.482 23.9999 11.472C23.9999 11.211 23.7889 11 23.5279 11C23.5179 11 23.5079 11 23.4979 11.001H23.4989L21.9999 11ZM21.9999 20H19.9999V16H21.9999V20ZM14.7499 3C13.6449 3 12.7499 3.895 12.7499 5C12.7499 6.105 13.6449 7 14.7499 7C15.8549 7 16.7499 6.105 16.7499 5C16.7499 4.999 16.7499 4.998 16.7499 4.998C16.7499 3.895 15.8559 3 14.7519 3C14.7509 3 14.7499 3 14.7499 3ZM14.2499 5C13.9749 4.996 13.7539 4.775 13.7499 4.5C13.7689 4.232 13.9819 4.019 14.2479 4H14.2499C14.5259 4 14.7499 4.224 14.7499 4.5C14.7499 4.776 14.5259 5 14.2499 5ZM20.5999 4.472C19.4249 2.408 17.2519 1.032 14.7539 1H14.7499C12.2549 1.054 10.091 2.423 8.91795 4.439L8.89995 4.472C8.80595 4.622 8.74995 4.805 8.74995 5C8.74995 5.195 8.80595 5.378 8.90295 5.533L8.90095 5.529C10.0759 7.593 12.2489 8.969 14.7469 9.001H14.7509C17.2459 8.947 19.4099 7.578 20.5829 5.562L20.6009 5.529C20.6949 5.379 20.7509 5.196 20.7509 5.001C20.7509 4.806 20.6949 4.623 20.5979 4.468L20.5999 4.472ZM14.7499 8C13.0929 8 11.7499 6.657 11.7499 5C11.7499 3.343 13.0929 2 14.7499 2C16.4069 2 17.7499 3.343 17.7499 5C17.7449 6.655 16.4049 7.995 14.7499 8Z"/></svg>