<svg viewBox="0 0 24 24"><path d="M12 1C5.925 1 1 5.925 1 12C1 18.075 5.925 23 12 23C18.075 23 23 18.075 23 12C23 11.998 23 11.996 23 11.994C23 5.922 18.078 1 12.006 1C12.004 1 12.002 1 11.999 1H12ZM15.5 7C16.605 7 17.5 7.895 17.5 9C17.5 10.105 16.605 11 15.5 11C14.395 11 13.5 10.105 13.5 9C13.503 7.897 14.397 7.003 15.5 7ZM8.5 7C9.605 7 10.5 7.895 10.5 9C10.5 10.105 9.605 11 8.5 11C7.395 11 6.5 10.105 6.5 9C6.503 7.897 7.397 7.003 8.5 7ZM17 17H7C6.448 17 6 16.552 6 16C6 15.448 6.448 15 7 15H17C17.552 15 18 15.448 18 16C18 16.552 17.552 17 17 17Z"/></svg>