<svg viewBox="0 0 24 24"><path fill-rule="evenodd" clip-rule="evenodd" d="M11 1C10.4477 1 10 1.44772 10 2V2.00887C8.71826 2.03436 7.66759 2.12144 6.82093 2.35355C5.72884 2.65295 4.9477 3.20173 4.43435 4.15907C3.94306 5.07528 3.72055 6.32554 3.61049 7.97397C3.51998 9.32943 3.50361 11.0049 3.50065 13.0618C3.17206 13.1832 2.92116 13.473 2.86073 13.8356L2 19H6L5.13927 13.8356C5.07892 13.4735 4.82862 13.184 4.50068 13.0623C4.50368 11.0072 4.51996 9.36308 4.60826 8.04059C4.71695 6.41285 4.93194 5.34722 5.31565 4.63164C5.6773 3.9572 6.20866 3.5583 7.08532 3.31797C7.81312 3.11844 8.7565 3.03482 10 3.00922V3.07987C10 3.59996 10.3987 4.03322 10.917 4.07641L11.0235 4.08529L8.39 8.02634C8.13833 8.54929 8 9.21073 8 9.89348V20.667C8 21.6384 8.41167 22.4741 8.96556 22.5874C10.2889 22.8596 11.635 23 13 23C14.365 23 15.7117 22.8596 17.0344 22.5874C17.5883 22.4751 18 21.6393 18 20.668V20H12V9H17.9193C17.8537 8.64636 17.7493 8.31522 17.61 8.02634L15.2096 4.43414L16 4.5L21 5V4L16 3.5L21 1V0L16.0971 0.980581C16.0325 0.993495 15.9668 1 15.901 1H11ZM14 3C14 3.55228 13.5523 4 13 4C12.4477 4 12 3.55228 12 3C12 2.44772 12.4477 2 13 2C13.5523 2 14 2.44772 14 3Z"/><path d="M18 10H13V19H18V10Z"/></svg>