<svg viewBox="0 0 24 24"><path d="M12.46 17.35C13.13 17.53 13.46 17.81 13.46 18.14C13.46 18.51 13.16 18.71 12.46 18.78V17.35ZM19 17C19 12 12 0 12 0C12 0 5 12 5 17C5 20.866 8.134 24 12 24C15.866 24 19 20.866 19 17ZM11.55 17.12L10.42 16.83C9.393 16.658 8.62 15.775 8.62 14.712C8.62 14.708 8.62 14.703 8.62 14.699V14.7C8.62 13.3 9.57 12.52 11.55 12.4V11.31H12.46V12.4C13.324 12.441 14.138 12.577 14.916 12.798L14.84 12.78V14.41C14.141 14.209 13.328 14.07 12.491 14.021L12.46 14.02V15.62L13.38 15.86C14.81 16.24 15.38 16.97 15.38 17.97C15.38 19.39 14.4 20.28 12.46 20.42V21.5H11.55V20.43C10.541 20.409 9.577 20.254 8.664 19.98L8.74 20V18.31C9.553 18.544 10.509 18.721 11.492 18.806L11.55 18.81V17.12ZM10.53 14.68C10.53 14.93 10.7 15.16 11.33 15.32L11.55 15.38V14.02C10.79 14.09 10.53 14.34 10.53 14.68Z"/></svg>