<svg viewBox="0 0 24 24"><path d="M14.984 0.18L16.209 3.951C16.289 4.195 16.155 4.457 15.911 4.536C15.863 4.552 15.815 4.559 15.767 4.559C15.571 4.559 15.389 4.434 15.326 4.238L13.976 0.083C13.155 0.037 12.332 0 11.5 0C10.668 0 9.845 0.037 9.024 0.083L7.674 4.238C7.61 4.434 7.428 4.559 7.233 4.559C7.186 4.559 7.137 4.552 7.089 4.536C6.845 4.457 6.712 4.195 6.791 3.951L8.016 0.18C6.293 0.525 5 2.01 5 3.813V22C5 23.105 5.895 24 7 24H16C17.104 24 18 23.105 18 22V3.813C18 2.01 16.707 0.525 14.984 0.18ZM11.5 5.797C12.865 5.797 14.205 5.899 15.527 6.059L13.773 10H9.227L7.473 6.059C8.795 5.899 10.135 5.797 11.5 5.797ZM6.5 7.869L8 11.239V13H6.5V7.869ZM16.5 22C16.5 22.276 16.276 22.5 16 22.5H7C6.724 22.5 6.5 22.276 6.5 22V15H16.5V22ZM16.5 13H15V11.238L16.5 7.869V13ZM0 9.999L4 7.499L0 5V9.999ZM0 20.999L4 18.499L0 16V20.999ZM23 20.999V16L19 18.499L23 20.999ZM19 7.499L23 9.999V5L19 7.499Z"/></svg>