<svg viewBox="0 0 24 24"><path d="M8.28874 12.8286H3.2256C1.66517 12.8286 0.400024 14.0937 0.400024 15.6542V20.7173C0.400024 22.2777 1.66517 23.5429 3.2256 23.5429H8.28874C9.84917 23.5429 11.1143 22.2777 11.1143 20.7173V15.6542C11.1143 14.0937 9.84917 12.8286 8.28874 12.8286ZM8.97145 20.7173C8.97145 21.0936 8.66502 21.4 8.28874 21.4H3.2256C2.84931 21.4 2.54288 21.0936 2.54288 20.7173V15.6542C2.54288 15.2779 2.84931 14.9715 3.2256 14.9715H8.28874C8.66502 14.9715 8.97145 15.2779 8.97145 15.6542V20.7173ZM20.7173 0.400024H15.6542C14.0937 0.400024 12.8286 1.66517 12.8286 3.2256V8.28874C12.8286 9.84917 14.0937 11.1143 15.6542 11.1143H20.7173C22.2777 11.1143 23.5429 9.84917 23.5429 8.28874V3.2256C23.5429 1.66517 22.2777 0.400024 20.7173 0.400024ZM21.4 8.28874C21.4 8.66502 21.0936 8.97145 20.7173 8.97145H15.6542C15.2779 8.97145 14.9715 8.66502 14.9715 8.28874V3.2256C14.9715 2.84931 15.2779 2.54288 15.6542 2.54288H20.7173C21.0936 2.54288 21.4 2.84931 21.4 3.2256V8.28874ZM20.7173 12.8286H15.6542C14.0937 12.8286 12.8286 14.0937 12.8286 15.6542V20.7173C12.8286 22.2777 14.0937 23.5429 15.6542 23.5429H20.7173C22.2777 23.5429 23.5429 22.2777 23.5429 20.7173V15.6542C23.5429 14.0937 22.2777 12.8286 20.7173 12.8286ZM21.4 20.7173C21.4 21.0936 21.0936 21.4 20.7173 21.4H15.6542C15.2779 21.4 14.9715 21.0936 14.9715 20.7173V15.6542C14.9715 15.2779 15.2779 14.9715 15.6542 14.9715H20.7173C21.0936 14.9715 21.4 15.2779 21.4 15.6542V20.7173ZM8.28874 0.400024H3.2256C1.66517 0.400024 0.400024 1.66517 0.400024 3.2256V8.28874C0.400024 9.84917 1.66517 11.1143 3.2256 11.1143H8.28874C9.84917 11.1143 11.1143 9.84917 11.1143 8.28874V3.2256C11.1143 1.66517 9.84917 0.400024 8.28874 0.400024ZM8.97145 8.28874C8.97145 8.66502 8.66502 8.97145 8.28874 8.97145H3.2256C2.84931 8.97145 2.54288 8.66502 2.54288 8.28874V3.2256C2.54288 2.84931 2.84931 2.54288 3.2256 2.54288H8.28874C8.66502 2.54288 8.97145 2.84931 8.97145 3.2256V8.28874Z"/></svg>