<svg viewBox="0 0 24 24"><g clip-path="url(#clip0_783_888)"><path d="M23 12C23 11.996 23 11.991 23 11.986C23 10.654 22.457 9.449 21.58 8.58C21.489 8.489 21.433 8.364 21.433 8.225C21.433 7.948 21.658 7.723 21.935 7.723C22.074 7.723 22.199 7.779 22.29 7.87C23.347 8.927 24 10.387 24 12C24 13.613 23.347 15.073 22.29 16.13C22.199 16.221 22.074 16.277 21.935 16.277C21.658 16.277 21.433 16.052 21.433 15.775C21.433 15.636 21.489 15.511 21.58 15.42C22.457 14.553 23 13.35 23 12.021C23 12.014 23 12.006 23 11.999V12ZM20.17 9.29C20.077 9.38 20.02 9.506 20.02 9.645C20.02 9.784 20.077 9.91 20.17 10C20.683 10.511 21 11.219 21 12C21 12.781 20.683 13.489 20.17 14C20.079 14.091 20.023 14.216 20.023 14.355C20.023 14.632 20.248 14.857 20.525 14.857C20.664 14.857 20.789 14.801 20.88 14.71C21.572 14.016 22 13.058 22 12C22 10.942 21.572 9.984 20.88 9.29C20.79 9.197 20.664 9.14 20.525 9.14C20.386 9.14 20.26 9.197 20.17 9.29ZM13.35 10.94V13.06H13.86C13.905 13.067 13.956 13.072 14.008 13.072C14.539 13.072 14.969 12.642 14.969 12.111C14.969 12.065 14.966 12.02 14.959 11.975L14.96 11.98C14.962 11.954 14.964 11.925 14.964 11.894C14.964 11.363 14.534 10.933 14.003 10.933C13.963 10.933 13.924 10.935 13.886 10.94H13.891H13.35ZM12 18C15.314 18 18 15.314 18 12C18 8.686 15.314 6 12 6C8.686 6 6 8.686 6 12C6.003 15.313 8.687 17.997 12 18ZM10.9 13.77V12.4H9.33V13.77H8.48V10.23H9.33V11.68H10.9V10.23H11.74V13.77H10.9ZM13.92 10.23C14.89 10.23 15.84 10.59 15.84 11.97C15.84 13.31 14.91 13.77 13.87 13.77H12.5V10.23H13.92ZM3 12C3 11.994 3 11.986 3 11.979C3 11.204 3.318 10.504 3.83 10.001C3.921 9.91 3.977 9.785 3.977 9.646C3.977 9.369 3.752 9.144 3.475 9.144C3.336 9.144 3.211 9.2 3.12 9.291C2.428 9.985 2 10.943 2 12.001C2 13.059 2.428 14.017 3.12 14.711C3.211 14.802 3.336 14.858 3.475 14.858C3.752 14.858 3.977 14.633 3.977 14.356C3.977 14.217 3.921 14.092 3.83 14.001C3.318 13.497 3 12.797 3 12.022C3 12.014 3 12.007 3 11.999V12ZM2.42 16.13C2.508 16.038 2.563 15.913 2.563 15.775C2.563 15.637 2.509 15.512 2.42 15.42C1.543 14.546 1 13.336 1 12C1 10.664 1.543 9.454 2.42 8.58C2.511 8.489 2.567 8.364 2.567 8.225C2.567 7.948 2.342 7.723 2.065 7.723C1.926 7.723 1.801 7.779 1.71 7.87C0.653 8.927 0 10.387 0 12C0 13.613 0.653 15.073 1.71 16.13C1.802 16.218 1.927 16.273 2.065 16.273C2.203 16.273 2.328 16.219 2.42 16.13Z"/></g></svg>