<svg viewBox="0 0 24 24"><path fill-rule="evenodd" clip-rule="evenodd" d="M0.765 1.47803L2 2.25003V17.75L0.765 18.522C0.432 18.73 0 18.491 0 18.098V1.90203C0 1.50903 0.432 1.27003 0.765 1.47803ZM11.202 8H23C23.552 8 24 8.448 24 9V11C24 11.552 23.552 12 23 12H18.366C20.426 12.995 21.775 14.638 21.775 16.5C21.775 19.538 18.193 22 13.775 22C9.357 22 5.775 19.538 5.775 16.5C5.775 16.073 5.853 15.658 5.987 15.259L3 17.126V2.875L11.202 8ZM13.775 20C17.311 20 19.775 18.155 19.775 16.5C19.775 14.845 17.311 13 13.775 13C10.239 13 7.775 14.845 7.775 16.5C7.775 18.155 10.239 20 13.775 20Z"/></svg>