<svg viewBox="0 0 24 24"><path fill-rule="evenodd" clip-rule="evenodd" d="M12 18.3663C10.6778 18.3663 9.37824 18.3119 8.11111 18.203V19.2143C8.11111 19.541 7.66389 20 7.33333 20H6.55556C6.225 20 5.77778 19.541 5.77778 19.2143V14.2277C5.77778 13.885 5.91615 13.5471 6.05565 13.2065C6.09349 13.1141 6.1314 13.0215 6.16667 12.9286L5.55093 12.9208C5.22037 12.9208 5 12.703 5 12.3762V11.8317C5 11.505 5.27546 11.3571 5.55093 11.3571H6.37732C6.65278 11.3571 6.87315 11.5049 6.92824 11.7228L8.14025 9.81683C8.41571 9.38119 8.91163 9.05446 9.46255 9.05446C10.1788 9 11.2838 9 12 9C12.7162 9 13.8212 9 14.5374 9.05446C15.0884 9.05446 15.5843 9.38119 15.8597 9.81683L17.0718 11.7228C17.1269 11.5049 17.3472 11.3571 17.6227 11.3571H18.4491C18.7245 11.3571 19 11.505 19 11.8317V12.3762C19 12.703 18.7796 12.9208 18.4491 12.9208L17.8333 12.9286C17.8686 13.0215 17.9065 13.1141 17.9443 13.2065C18.0838 13.5471 18.2222 13.885 18.2222 14.2277V19.2143C18.2222 19.541 17.775 20 17.4444 20H16.6667C16.3361 20 15.8889 19.541 15.8889 19.2143V18.203C14.6218 18.3119 13.3222 18.3663 12 18.3663ZM9.57271 9.87129C10.2338 9.81683 11.3389 9.78571 12 9.78571C12.6611 9.78571 13.7662 9.81683 14.4273 9.87129C14.7028 9.87129 14.9231 10.0347 15.0884 10.2525L16.3005 12.1584C14.9783 12.3218 12.9333 12.3762 11.6111 12.3762C10.2889 12.3762 9.02171 12.3218 7.69948 12.1584L8.91163 10.2525C9.07691 10.0347 9.29725 9.87129 9.57271 9.87129ZM13.5788 17.6429H10.4212C10.2578 17.6429 10.04 17.5358 9.93108 17.3752L8.62447 15.2871C8.13447 15.2871 7.64442 15.1264 7.20886 14.9658C6.99108 14.8587 6.77331 14.6446 6.66442 14.4839C6.60997 14.4304 6.55556 14.3233 6.55556 14.2162V13.895C6.55556 13.7344 6.77331 13.6808 6.93664 13.7344C7.3722 13.9485 7.86225 14.1091 8.35225 14.1627C8.37901 14.1715 8.40856 14.1803 8.43963 14.1895C8.59812 14.2367 8.79786 14.2961 8.88889 14.4304L10.3029 16.6965C10.3158 16.7091 10.3287 16.7248 10.3422 16.7412C10.3861 16.7946 10.4376 16.8571 10.5208 16.8571H13.4792C13.5624 16.8571 13.6139 16.7945 13.6579 16.7411C13.6714 16.7247 13.6842 16.7091 13.6971 16.6965L15.1111 14.4304C15.2021 14.2961 15.402 14.2366 15.5604 14.1895C15.5915 14.1802 15.621 14.1715 15.6478 14.1627C16.1378 14.1091 16.6278 13.9485 17.0634 13.7344C17.2267 13.6808 17.4444 13.7344 17.4444 13.895V14.2162C17.4444 14.3233 17.39 14.4304 17.3356 14.4839C17.2267 14.6446 17.0089 14.8587 16.7911 14.9658C16.3556 15.1264 15.8655 15.2871 15.3755 15.2871L14.0689 17.3752C13.96 17.5358 13.7422 17.6429 13.5788 17.6429ZM13.0889 16.0714H10.9111C10.7478 16.0714 10.5301 15.9295 10.4212 15.7689L9.44114 14.2162C9.65892 14.2698 10.0845 14.2698 10.2479 14.2698L10.7725 15.05C10.781 15.0584 10.7921 15.0701 10.8049 15.0836C10.8737 15.1563 10.9961 15.2857 11.0879 15.2857H12.9121C13.0039 15.2857 13.1264 15.1562 13.1952 15.0835C13.208 15.07 13.219 15.0584 13.2275 15.05L13.7521 14.2698C13.9155 14.2698 14.3411 14.2698 14.5589 14.2162L13.5788 15.7689C13.4699 15.9295 13.2522 16.0714 13.0889 16.0714Z"/><path d="M17.9856 3.76958C17.9474 4.12625 17.8341 4.46048 17.662 4.75617C20.2821 6.55917 22 9.57897 22 13C22 18.5228 17.5228 23 12 23C6.47715 23 2 18.5228 2 13C2 9.57897 3.71787 6.55917 6.33804 4.75617C6.16586 4.46048 6.05261 4.12625 6.01437 3.76958C2.99612 5.73083 1 9.13231 1 13C1 19.0751 5.92487 24 12 24C18.0751 24 23 19.0751 23 13C23 9.13231 21.0039 5.73083 17.9856 3.76958Z"/><path d="M9.36908 7.33807C10.0927 7.9092 11.0065 8.25005 12 8.25005C12.9934 8.25005 13.9072 7.9092 14.6309 7.33807L14.2745 6.98172C13.6436 7.46374 12.8553 7.75005 12 7.75005C11.1447 7.75005 10.3563 7.46374 9.72542 6.98172L9.36908 7.33807Z"/><path d="M10.4412 6.26592C10.8842 6.57127 11.4212 6.75005 12 6.75005C12.5787 6.75005 13.1157 6.57127 13.5587 6.26592L13.1979 5.90503C12.851 6.1236 12.4403 6.25005 12 6.25005C11.5597 6.25005 11.149 6.1236 10.8021 5.90503L10.4412 6.26592Z"/><path d="M8.5 5H15.5C16.3284 5 17 4.32843 17 3.5C17 2.82312 16.5517 2.25095 15.9357 2.06427C15.7491 1.44835 15.1769 1 14.5 1C14.1918 1 13.9052 1.09298 13.6669 1.25241C13.235 0.503832 12.4263 0 11.5 0C10.2564 0 9.22491 0.907997 9.03228 2.09719C8.86686 2.03438 8.68745 2 8.5 2C7.67157 2 7 2.67157 7 3.5C7 4.32843 7.67157 5 8.5 5Z"/></svg>