<svg viewBox="0 0 24 24"><path d="M1 9.71071C1 9.22325 1.39516 8.82809 1.88262 8.82809H4.53048C5.01793 8.82809 5.4131 9.22325 5.4131 9.71071V22.0674C5.4131 22.5548 5.01793 22.95 4.53048 22.95H1.88262C1.39516 22.95 1 22.5548 1 22.0674V9.71071Z"/><path d="M23.0743 10.3197C23.0743 10.5668 23.0478 10.814 22.9949 11.0523L21.0355 19.5254C20.5677 21.5466 18.8024 22.95 16.7371 22.95H6.29572L6.30454 8.96931C6.30454 8.33382 6.48107 7.70716 6.80764 7.15111L10.1704 1.54647C11.053 0.0813258 13.0566 -0.527682 14.6806 0.540288C15.5367 1.10516 16.0134 2.06722 16.0134 3.09106C16.0134 3.49706 15.9427 3.88542 15.7927 4.26494L13.7892 7.94547L19.8174 7.06285C21.6092 7.06285 23.0743 8.528 23.0743 10.3197Z"/></svg>