<svg viewBox="0 0 24 24"><path fill-rule="evenodd" clip-rule="evenodd" d="M6.67927 22.7772C6.83033 22.8859 7.01571 22.95 7.21606 22.95H16.7371C18.8024 22.95 20.5677 21.5466 21.0355 19.5254L22.9949 11.0523C23.0478 10.814 23.0743 10.5668 23.0743 10.3197C23.0743 8.528 21.6092 7.06285 19.8174 7.06285L13.7892 7.94547L15.7927 4.26494C15.9427 3.88542 16.0134 3.49706 16.0134 3.09106C16.0134 2.06722 15.5367 1.10516 14.6806 0.540288C13.0566 -0.527682 11.053 0.0813258 10.1704 1.54647L6.80764 7.15111C6.58378 7.53228 6.43043 7.94662 6.35611 8.37424C6.32201 8.57044 6.30454 8.76944 6.30454 8.96931L6.2963 22.0297C6.29629 22.0423 6.29654 22.0549 6.29703 22.0674C6.30864 22.3597 6.45669 22.617 6.67927 22.7772ZM5.00957 8.96931L5.0083 8.96849C4.9815 8.9512 4.95371 8.93533 4.92503 8.92097C4.80629 8.86154 4.67229 8.82809 4.53048 8.82809H1.88262C1.39516 8.82809 1 9.22325 1 9.71071V22.0674C1 22.5548 1.39516 22.95 1.88262 22.95H4.53048C4.72181 22.95 4.89892 22.8891 5.0435 22.7857C5.26726 22.6256 5.4131 22.3635 5.4131 22.0674V9.71071C5.4131 9.39986 5.25241 9.12655 5.00957 8.96931ZM7.99449 7.85478C7.78877 8.20698 7.6843 8.59186 7.6843 8.96931L7.67635 21.5702H16.7371C18.1584 21.5702 19.3677 20.6117 19.6912 19.2146L21.6491 10.748C21.6788 10.6123 21.6946 10.4674 21.6946 10.3197C21.6946 9.31908 20.8943 8.49059 19.9042 8.44462L11.2573 9.71063L14.5349 3.68965C14.6013 3.49997 14.6336 3.30515 14.6336 3.09106C14.6336 2.49275 14.3591 1.98167 13.9217 1.69256C12.9958 1.08439 11.8586 1.41928 11.353 2.25733L11.3523 2.25845L7.99449 7.85478ZM2.37976 10.2078V21.5702H4.03334V10.2078H2.37976Z"/></svg>