<svg viewBox="0 0 24 24"><g clip-path="url(#clip0_783_875)"><path d="M24 12C24 12.002 24 12.004 24 12.006C24 13.617 23.346 15.075 22.29 16.13C22.199 16.221 22.074 16.277 21.935 16.277C21.658 16.277 21.433 16.052 21.433 15.775C21.433 15.636 21.489 15.511 21.58 15.42C22.457 14.546 23 13.336 23 12C23 10.664 22.457 9.454 21.58 8.58C21.489 8.489 21.433 8.364 21.433 8.225C21.433 7.948 21.658 7.723 21.935 7.723C22.074 7.723 22.199 7.779 22.29 7.87C23.346 8.925 24 10.383 24 11.994C24 11.996 24 11.999 24 12.001V12ZM20.88 9.29C20.789 9.198 20.662 9.14 20.522 9.14C20.245 9.14 20.02 9.365 20.02 9.642C20.02 9.782 20.077 9.909 20.17 10C20.683 10.511 21 11.219 21 12C21 12.781 20.683 13.489 20.17 14C20.079 14.091 20.023 14.216 20.023 14.355C20.023 14.632 20.248 14.857 20.525 14.857C20.664 14.857 20.789 14.801 20.88 14.71C21.572 14.016 22 13.058 22 12C22 10.942 21.572 9.984 20.88 9.29ZM15.33 8.67V10H18L16.51 13.33H15.33V14.67H18L16.51 18H15.33V18.67C15.33 18.67 15.33 18.67 15.33 18.671C15.33 19.405 14.735 20 14.001 20C14.001 20 14.001 20 14 20H10C10 20 10 20 9.999 20C9.265 20 8.67 19.405 8.67 18.671C8.67 18.671 8.67 18.671 8.67 18.67V18H7.49L6 14.67H8.67V13.33H7.49L6 10H8.67V8.67H7.49L6 5.33H8.67C8.67 5.33 8.67 5.33 8.67 5.329C8.67 4.595 9.265 4 9.999 4C9.999 4 9.999 4 10 4H14C14 4 14 4 14.001 4C14.735 4 15.33 4.595 15.33 5.329C15.33 5.329 15.33 5.329 15.33 5.33H18L16.51 8.67H15.33ZM14 16.67C14 15.565 13.105 14.67 12 14.67C10.895 14.67 10 15.565 10 16.67C10 17.775 10.895 18.67 12 18.67C12 18.67 12 18.67 12.001 18.67C13.105 18.67 14 17.775 14 16.671C14 16.671 14 16.671 14 16.67ZM14 12C14 10.895 13.105 10 12 10C10.895 10 10 10.895 10 12C10 13.105 10.895 14 12 14C13.103 13.997 13.997 13.103 14 12ZM14 7.33C14 6.225 13.105 5.33 12 5.33C10.895 5.33 10 6.225 10 7.33C10 8.435 10.895 9.33 12 9.33C13.103 9.327 13.997 8.433 14 7.33ZM3.83 9.29C3.74 9.197 3.614 9.14 3.475 9.14C3.336 9.14 3.21 9.197 3.12 9.29C2.428 9.984 2 10.942 2 12C2 13.058 2.428 14.016 3.12 14.71C3.211 14.801 3.336 14.857 3.475 14.857C3.752 14.857 3.977 14.632 3.977 14.355C3.977 14.216 3.921 14.091 3.83 14C3.317 13.489 3 12.781 3 12C3 11.219 3.317 10.511 3.83 10C3.923 9.91 3.98 9.784 3.98 9.645C3.98 9.506 3.923 9.38 3.83 9.29ZM1 12C1 11.994 1 11.987 1 11.979C1 10.649 1.543 9.446 2.42 8.58C2.511 8.489 2.567 8.364 2.567 8.225C2.567 7.948 2.342 7.723 2.065 7.723C1.926 7.723 1.801 7.779 1.71 7.87C0.653 8.927 0 10.387 0 12C0 13.613 0.653 15.073 1.71 16.13C1.801 16.221 1.926 16.277 2.065 16.277C2.342 16.277 2.567 16.052 2.567 15.775C2.567 15.636 2.511 15.511 2.42 15.42C1.543 14.551 1 13.346 1 12.014C1 12.009 1 12.004 1 12V12.001V12Z"/></g></svg>