<svg viewBox="0 0 24 24"><path d="M1.75 3.5C2.716 3.5 3.5 2.716 3.5 1.75C3.5 0.784 2.716 0 1.75 0C0.784 0 0 0.784 0 1.75C0 2.716 0.784 3.5 1.75 3.5ZM12.471 1.055C5.905 0.793 0.5 6.038 0.5 12.545C0.5 16.931 2.955 20.742 6.566 22.682C6.979 22.904 7.448 23 7.916 23H16.08C16.55 23 17.022 22.904 17.436 22.681C21.106 20.708 23.582 16.801 23.497 12.324C23.389 6.547 18.244 1.285 12.471 1.055ZM5.923 19.846C3.832 18.103 2.5 15.48 2.5 12.545C2.5 10.304 3.281 8.248 4.579 6.623C4.658 6.834 4.766 7.034 4.915 7.212L5.167 7.512C4.124 8.924 3.5 10.661 3.5 12.545C3.5 14.815 4.397 16.876 5.852 18.402L7.198 16.827L7.958 17.476L5.923 19.846ZM9.706 10.59L6.064 6.249C5.887 6.038 5.914 5.722 6.126 5.545C6.337 5.368 6.653 5.395 6.83 5.607L10.464 9.938C10.175 10.111 9.921 10.332 9.706 10.59ZM12 14C11.171 14 10.5 13.328 10.5 12.5C10.5 11.672 11.171 11 12 11C12.828 11 13.5 11.672 13.5 12.5C13.5 13.328 12.828 14 12 14ZM18.077 19.846L17.432 19.077C19.305 17.517 20.501 15.169 20.501 12.546C20.501 7.859 16.688 4.046 12.001 4.046C10.646 4.046 9.368 4.373 8.23 4.94L7.98 4.642C7.829 4.462 7.645 4.323 7.447 4.208C8.798 3.467 10.35 3.045 12 3.045C17.247 3.045 21.5 7.298 21.5 12.545C21.5 15.48 20.168 18.103 18.077 19.846Z"/></svg>