<svg viewBox="0 0 24 24"><path d="M4.803 4.434C4.614 4.209 4.265 4.188 4.061 4.401C2.169 6.375 1 9.049 1 12C1 14.709 1.986 17.183 3.611 19.099C3.809 19.333 4.177 19.322 4.375 19.087L6.338 16.747C6.488 16.568 6.487 16.315 6.35 16.127C5.502 14.97 5 13.542 5 12C5 10.241 5.653 8.633 6.728 7.403C6.892 7.214 6.905 6.94 6.744 6.748L4.803 4.434ZM19.939 4.4C19.735 4.188 19.387 4.208 19.198 4.434L17.256 6.748C17.095 6.94 17.108 7.214 17.273 7.402C18.347 8.633 19 10.241 19 12C19 13.542 18.498 14.97 17.65 16.128C17.512 16.316 17.512 16.569 17.662 16.748L19.625 19.088C19.822 19.323 20.19 19.334 20.389 19.1C22.014 17.183 23 14.709 23 12C23 9.049 21.831 6.375 19.939 4.4ZM18.105 2.863C16.358 1.691 14.262 1 12 1C9.738 1 7.642 1.691 5.895 2.863C5.651 3.027 5.611 3.374 5.8 3.6L7.741 5.913C7.902 6.104 8.174 6.139 8.389 6.01C9.444 5.37 10.679 5 12 5C13.321 5 14.556 5.37 15.611 6.009C15.825 6.139 16.098 6.104 16.259 5.912L18.2 3.6C18.389 3.374 18.349 3.027 18.105 2.863ZM15.737 9.519C15.641 8.653 14.905 8 14.034 8H9.966C9.082 8 8.356 8.674 8.259 9.552C8.098 11.014 8.012 12.498 8.002 14H8V22C8 22.552 8.448 23 9 23H15C15.552 23 16 22.552 16 22V14H15.998C15.988 12.486 15.901 10.991 15.737 9.519ZM11.536 19.93C10.903 19.74 10.494 19.142 10.5 18.481C10.504 18.125 10.613 17.835 10.845 17.542C11.355 16.898 11.764 16.167 12 15.358C12.236 16.167 12.644 16.898 13.154 17.542C13.391 17.84 13.5 18.136 13.5 18.5C13.5 19.479 12.562 20.239 11.536 19.93ZM13.944 13H10.055C9.771 13 9.541 12.763 9.552 12.479C9.589 11.542 9.651 10.608 9.752 9.689C9.765 9.581 9.858 9.5 9.966 9.5H14.034C14.142 9.5 14.235 9.581 14.247 9.689C14.349 10.608 14.411 11.542 14.448 12.479C14.459 12.763 14.229 13 13.944 13Z"/></svg>