<svg viewBox="0 0 24 24"><path d="M3 13H13.05C12.955 12.681 12.888 12.35 12.888 12C12.888 11.65 12.955 11.319 13.05 11H3C2.448 11 2 11.448 2 12C2 12.552 2.448 13 3 13ZM21 11H19.76C19.855 11.319 19.922 11.65 19.922 12C19.922 12.35 19.855 12.681 19.76 13H21C21.552 13 22 12.552 22 12C22 11.448 21.552 11 21 11ZM3 19C2.448 19 2 19.448 2 20C2 20.552 2.448 21 3 21H4.24C4.145 20.681 4.078 20.35 4.078 20C4.078 19.65 4.145 19.319 4.24 19H3ZM3 5H4.24C4.144 4.681 4.078 4.35 4.078 4C4.078 3.65 4.144 3.319 4.24 3H3C2.448 3 2 3.448 2 4C2 4.552 2.448 5 3 5ZM21 19H10.951C11.046 19.319 11.113 19.65 11.113 20C11.113 20.35 11.046 20.681 10.951 21H21C21.552 21 22 20.552 22 20C22 19.448 21.552 19 21 19ZM21 5C21.552 5 22 4.552 22 4C22 3.448 21.552 3 21 3H10.951C11.046 3.319 11.113 3.65 11.113 4C11.113 4.35 11.046 4.681 10.951 5H21ZM7.595 17.5C6.214 17.5 5.095 18.619 5.095 20C5.095 21.381 6.214 22.5 7.595 22.5C8.976 22.5 10.095 21.381 10.095 20C10.095 18.619 8.976 17.5 7.595 17.5ZM7.595 6.5C8.976 6.5 10.095 5.381 10.095 4C10.095 2.619 8.976 1.5 7.595 1.5C6.214 1.5 5.095 2.619 5.095 4C5.095 5.381 6.214 6.5 7.595 6.5ZM13.905 12C13.905 13.381 15.024 14.5 16.405 14.5C17.786 14.5 18.905 13.381 18.905 12C18.905 10.619 17.786 9.5 16.405 9.5C15.024 9.5 13.905 10.619 13.905 12Z"/></svg>