<svg viewBox="0 0 24 24"><path d="M5.5 16.5C5.5 17.328 6.172 18 7 18C7.828 18 8.5 17.328 8.5 16.5C8.5 15.672 7.828 15 7 15C6.999 15 6.999 15 6.998 15C6.171 15 5.5 15.671 5.5 16.498C5.5 16.499 5.5 16.499 5.5 16.5ZM12 3H11.999C9.79 3 8 4.79 8 6.999V7V10H16V7V6.999C16 4.79 14.21 3 12.001 3H12ZM18 10H20.1C20.101 10 20.102 10 20.104 10C20.599 10 21 10.401 21 10.896C21 10.897 21 10.899 21 10.9V22.1C21 22.101 21 22.102 21 22.104C21 22.599 20.599 23 20.104 23C20.103 23 20.101 23 20.1 23H3.9C3.899 23 3.898 23 3.896 23C3.401 23 3 22.599 3 22.104C3 22.103 3 22.101 3 22.1V10.9C3 10.899 3 10.898 3 10.896C3 10.401 3.401 10 3.896 10C3.897 10 3.899 10 3.9 10H6V7C6 3.686 8.686 1 12 1C15.314 1 18 3.686 18 7V10ZM13.5 16.5C13.5 15.672 12.828 15 12 15C11.172 15 10.5 15.672 10.5 16.5C10.5 17.328 11.172 18 12 18C12.001 18 12.001 18 12.002 18C12.829 18 13.5 17.329 13.5 16.502C13.5 16.501 13.5 16.501 13.5 16.5ZM18.5 16.5C18.5 15.672 17.828 15 17 15C16.172 15 15.5 15.672 15.5 16.5C15.5 17.328 16.172 18 17 18C17.001 18 17.001 18 17.002 18C17.829 18 18.5 17.329 18.5 16.502C18.5 16.501 18.5 16.501 18.5 16.5Z"/></svg>