<svg viewBox="0 0 24 24"><path d="M16 5V1H3C2.448 1 2 1.448 2 2V9.5H0V20.5H2V22C2 22.552 2.448 23 3 23H21C21.552 23 22 22.552 22 22V7H18C16.897 7 16 6.103 16 5ZM18.5 19H1.5V11H18.5V19ZM14.378 15.599H16.597V14.682H14.378V13.555H16.828V12.638H13.293V17.188H14.378V15.599ZM11.774 16.631C12.25 16.26 12.488 15.673 12.488 14.87C12.488 14.058 12.257 13.483 11.795 13.144C11.333 12.806 10.74 12.637 10.017 12.637H8.204V17.187H9.954C10.691 17.188 11.298 17.002 11.774 16.631ZM9.289 16.271V13.555H9.982C10.411 13.555 10.747 13.67 10.99 13.902C11.233 14.132 11.354 14.463 11.354 14.892C11.354 15.811 10.882 16.271 9.94 16.271H9.289ZM4.466 15.935H5.502C5.834 15.935 6.149 15.882 6.451 15.778C6.752 15.672 7 15.496 7.196 15.248C7.392 15.001 7.49 14.68 7.49 14.282C7.49 13.185 6.825 12.637 5.495 12.637H3.381V17.187H4.466V15.935ZM4.466 13.555H5.383C5.695 13.555 5.936 13.605 6.104 13.705C6.272 13.805 6.356 13.988 6.356 14.255C6.356 14.553 6.274 14.755 6.111 14.86C5.947 14.964 5.712 15.017 5.404 15.017H4.466V13.555ZM18 6H22L17 1V5C17 5.552 17.448 6 18 6Z"/></svg>