<svg viewBox="0 0 24 24"><path fill-rule="evenodd" clip-rule="evenodd" d="M8.70001 0.518332C4.60001 1.81833 2 5.81833 2 10.1183C2 12.5183 2.79999 14.4183 4.29999 16.3183C4.29999 16.3183 6.69999 19.2183 11.3 23.4183C11.7 23.7183 12.3 23.7183 12.6 23.4183C17.2 19.2183 19.6 16.3183 19.6 16.3183C21.1 14.4183 21.9 12.3183 21.9 9.91833C22 3.41833 15.6 -1.68167 8.70001 0.518332ZM9.94568 16.8477L14.8979 11.1881C15.1351 10.9159 14.9328 10.5 14.5617 10.5H13.3902C13.0934 10.5 12.8838 10.2223 12.9755 9.95288L14.8047 4.55151C14.9532 4.11326 14.3638 3.79922 14.0553 4.15234L9.10309 9.81192C8.86443 10.0841 9.06671 10.5 9.4378 10.5H10.6107C10.9076 10.5 11.1171 10.7777 11.0255 11.0471L9.19623 16.4485C9.04779 16.8867 9.63717 17.2008 9.94568 16.8477Z"/></svg>