<svg viewBox="0 0 24 24"><path fill-rule="evenodd" clip-rule="evenodd" d="M12.46 0.910068L12.44 0.900068L12.439 0.890068L11.999 0.570068L11.559 0.890068V0.900068L11.539 0.910068L11.459 0.960068C11.399 1.01007 11.299 1.08007 11.179 1.16007C10.939 1.33007 10.599 1.56007 10.209 1.82007L10.305 1.75907C9.50502 2.30107 8.67402 2.80207 7.66902 3.33007C6.95902 3.67007 5.99902 4.03007 5.18902 4.32007C4.78902 4.46007 4.43902 4.57007 4.17902 4.65007C4.08862 4.68774 4.00389 4.71405 3.94194 4.7333C3.92166 4.7396 3.90382 4.74514 3.88902 4.75007L3.80902 4.77007L3.78902 4.78007H3.77902L3.24902 4.95007V15.2901L3.43902 15.5001L3.46902 15.5301L3.54902 15.6201C3.61902 15.7001 3.71902 15.8101 3.84902 15.9501C3.88619 15.9901 3.92539 16.0324 3.96646 16.0766C4.21275 16.3422 4.5262 16.6801 4.86902 17.0401L4.88602 17.0581C5.70702 17.9321 6.57502 18.7621 7.53002 19.5801C8.32002 20.2301 9.33002 20.9901 10.14 21.5801C10.232 21.6474 10.321 21.7127 10.4067 21.7756C10.7026 21.9927 10.9584 22.1805 11.16 22.3201C11.2379 22.3785 11.3116 22.4285 11.3729 22.4701C11.406 22.4925 11.4355 22.5125 11.46 22.5301L11.54 22.5901L12 22.9201L12.43 22.6101L12.46 22.5901L12.54 22.5301C12.5646 22.5125 12.594 22.4925 12.6271 22.4701C12.6884 22.4285 12.7621 22.3785 12.84 22.3201C13.0417 22.1805 13.2975 21.9927 13.5934 21.7755C13.679 21.7127 13.768 21.6474 13.86 21.5801C14.67 20.9901 15.68 20.2301 16.47 19.5801L16.514 19.5431C17.425 18.7621 18.293 17.9321 19.13 17.0401C19.4729 16.6801 19.7863 16.3422 20.0326 16.0766C20.0737 16.0324 20.1129 15.9901 20.15 15.9501C20.28 15.8101 20.38 15.7001 20.45 15.6201L20.53 15.5301L20.55 15.5101L20.75 15.2901V4.95007L20.22 4.78007H20.21L20.19 4.77007L20.11 4.75007C20.0952 4.74514 20.0774 4.73959 20.0571 4.7333C19.9952 4.71405 19.9104 4.68774 19.82 4.65007C19.56 4.57007 19.21 4.46007 18.81 4.32007C18 4.03007 17.04 3.67007 16.33 3.33007L16.183 3.25807C15.325 2.80207 14.494 2.30107 13.79 1.82007C13.4 1.56007 13.06 1.33007 12.82 1.16007C12.7 1.08007 12.6 1.01007 12.54 0.960068L12.46 0.910068ZM13.1804 9.70724H15.6975C15.9835 9.70724 16.1093 10.0688 15.885 10.2466L13.9102 11.8108L14.6128 14.2879C14.689 14.5576 14.3897 14.7771 14.1557 14.6229L12.0002 13.2032L9.84469 14.6229C9.6107 14.7771 9.3114 14.5576 9.38759 14.2879L10.0902 11.8108L8.11545 10.2466C7.89053 10.0688 8.01629 9.70724 8.30289 9.70724H10.82L11.7154 7.20044C11.811 6.93319 12.1895 6.93319 12.285 7.20044L13.1804 9.70724Z"/></svg>