<svg viewBox="0 0 24 24"><path d="M6.5 1.5H17.5V7.014C18.001 7.047 18.5 7.087 19 7.128V1C19 0.448 18.552 0 18 0H6C5.448 0 5 0.448 5 1V7.129C5.5 7.087 5.999 7.048 6.5 7.015V1.5ZM12 8.125C8.223 8.125 4.507 8.382 0.866 8.878C0.369 8.945 0 9.375 0 9.876V21C0 21.552 0.448 22 1 22H3.7V16.7H20.3V22H23C23.552 22 24 21.552 24 21V9.876C24 9.374 23.631 8.945 23.134 8.877C19.493 8.382 15.777 8.125 12 8.125ZM4.5 14C3.672 14 3 13.328 3 12.5C3 11.672 3.672 11 4.5 11C5.328 11 6 11.672 6 12.5C6 13.328 5.328 14 4.5 14ZM5 24H19V18H5V24Z"/></svg>