<svg viewBox="0 0 24 24"><path d="M23.04 12H16.7V23H23.04C23.57 23 24 22.57 24 22.04V12.96C24 12.43 23.57 12 23.04 12ZM20.11 21.1C19.475 21.096 18.863 21.005 18.282 20.838L18.33 20.85V19.8C18.83 19.942 19.409 20.035 20.005 20.06H20.02C20.72 20.06 21.22 19.79 21.22 19.28C21.22 18.67 20.69 18.53 19.53 18.52H19.46V18.04L20.76 16.84H18.37V15.8H22.38V16.64L21.14 17.83C21.865 17.954 22.42 18.549 22.48 19.284V19.29C22.48 20.66 21.47 21.1 20.11 21.1ZM14.74 1H9.26C8.73 1 8.3 1.43 8.3 1.96V23H15.7V1.96C15.7 1.43 15.27 1 14.74 1ZM13.04 21H11.84V17L10.42 17.21V16.23L13.04 15.71V21ZM0 7.96V22.04C0 22.57 0.43 23 0.96 23H7.3V7H0.96C0.43 7 0 7.43 0 7.96ZM1.62 19.93C3.39 18.94 4.49 18.16 4.49 17.52C4.49 16.92 4.02 16.76 3.41 16.76C2.844 16.769 2.301 16.856 1.788 17.011L1.83 17V15.99C2.408 15.819 3.072 15.72 3.759 15.72C3.777 15.72 3.795 15.72 3.813 15.72H3.81C3.868 15.713 3.936 15.709 4.004 15.709C4.963 15.709 5.74 16.486 5.74 17.445C5.74 17.457 5.74 17.469 5.74 17.481V17.479C5.74 18.469 4.8 19.219 3.45 19.959H5.66V20.999H1.62V19.93Z"/></svg>