<svg viewBox="0 0 24 24"><path d="M13.5001 2C7.70107 2 3.00008 6.70099 3.00008 12.5C3.00008 12.618 3.01008 12.733 3.01508 12.85L1.74008 11.575C1.34908 11.184 0.717085 11.184 0.326086 11.575C-0.0649128 11.965 -0.0649128 12.598 0.326086 12.989L4.00108 16.664L7.67707 12.989C8.06807 12.598 8.06807 11.965 7.67707 11.575C7.28607 11.184 6.65407 11.184 6.26307 11.575L5.01607 12.821C5.01107 12.714 5.00007 12.608 5.00007 12.5C5.00007 7.81298 8.81306 3.99999 13.5001 3.99999C18.187 3.99999 22 7.81298 22 12.5C22 17.187 18.187 21 13.5001 21C10.7491 21 8.31106 19.678 6.75807 17.644L5.33907 19.063C7.26307 21.4529 10.1921 22.9999 13.5001 22.9999C19.299 22.9999 24 18.299 24 12.5C24 6.70099 19.299 2 13.5001 2Z"/></svg>