<svg viewBox="0 0 24 24"><path d="M17.657 3.34298C17.657 3.34298 17.657 3.34298 17.656 3.34298C17.518 3.34298 17.393 3.28698 17.303 3.19698C15.946 1.83998 14.07 1.00098 11.999 1.00098C9.92797 1.00098 8.05297 1.83998 6.69497 3.19698C6.60497 3.28498 6.48097 3.33998 6.34497 3.33998C6.06897 3.33998 5.84497 3.11598 5.84497 2.83998C5.84497 2.70398 5.89997 2.57998 5.98797 2.48998C7.52597 0.951977 9.65097 0.000976562 11.999 0.000976562C14.347 0.000976562 16.471 0.951977 18.01 2.48998C18.1 2.57998 18.156 2.70498 18.156 2.84398C18.156 3.11998 17.932 3.34398 17.656 3.34398L17.657 3.34298ZM15.889 5.31798C15.979 5.22798 16.035 5.10298 16.035 4.96398C16.035 4.82498 15.979 4.70098 15.889 4.60998C14.894 3.61398 13.519 2.99898 12 2.99898C10.481 2.99898 9.10597 3.61498 8.11097 4.60998C8.01797 4.70098 7.96097 4.82698 7.96097 4.96698C7.96097 5.24298 8.18497 5.46698 8.46097 5.46698C8.60097 5.46698 8.72697 5.40998 8.81797 5.31698C9.63197 4.50198 10.757 3.99898 12 3.99898C13.243 3.99898 14.368 4.50298 15.182 5.31698C15.272 5.40698 15.397 5.46298 15.536 5.46298C15.675 5.46298 15.799 5.40698 15.89 5.31698L15.889 5.31798ZM17 11V23C16.998 23.552 16.552 23.998 16 24H7.99997C7.44797 23.998 7.00197 23.552 6.99997 23V11C7.00197 10.448 7.44797 10.002 7.99997 9.99998H9.49997C9.50197 9.44798 9.94797 9.00198 10.5 8.99998H13.5C14.052 9.00198 14.498 9.44798 14.5 9.99998H16C16.552 10.002 16.998 10.448 17 11ZM13.68 17H12.88C12.73 16.976 12.616 16.848 12.616 16.692C12.616 16.659 12.621 16.627 12.631 16.597L12.63 16.599L13.84 12.839C13.845 12.819 13.848 12.796 13.848 12.772C13.848 12.62 13.725 12.497 13.573 12.497C13.487 12.497 13.41 12.537 13.36 12.599V12.6L10.06 16.52C9.89997 16.68 10.06 17 10.31 17H11.11C11.256 17.025 11.366 17.15 11.366 17.302C11.366 17.337 11.36 17.371 11.349 17.403L11.35 17.401L10.14 21.161C10.136 21.18 10.133 21.201 10.133 21.223C10.133 21.378 10.258 21.503 10.413 21.503C10.5 21.503 10.578 21.463 10.629 21.401L13.919 17.481C13.968 17.43 13.998 17.36 13.998 17.284C13.998 17.127 13.87 16.999 13.713 16.999C13.701 16.999 13.689 17 13.677 17.001H13.678L13.68 17Z"/></svg>