<svg viewBox="0 0 24 24"><g clip-path="url(#clip0_783_851)"><path d="M17.6569 3.34298C17.6569 3.34298 17.6569 3.34298 17.6559 3.34298C17.5179 3.34298 17.3929 3.28698 17.3029 3.19698C15.9459 1.83998 14.0699 1.00098 11.9989 1.00098C9.9279 1.00098 8.0529 1.83998 6.6949 3.19698C6.6049 3.28498 6.4809 3.33998 6.3449 3.33998C6.0689 3.33998 5.8449 3.11598 5.8449 2.83998C5.8449 2.70398 5.8999 2.57998 5.9879 2.48998C7.5259 0.951977 9.6509 0.000976562 11.9989 0.000976562C14.3469 0.000976562 16.4709 0.951977 18.0099 2.48998C18.0999 2.57998 18.1559 2.70498 18.1559 2.84398C18.1559 3.11998 17.9319 3.34398 17.6559 3.34398L17.6569 3.34298ZM15.8889 5.31798C15.9789 5.22798 16.0349 5.10298 16.0349 4.96398C16.0349 4.82498 15.9789 4.70098 15.8889 4.60998C14.8939 3.61398 13.5189 2.99898 11.9999 2.99898C10.4809 2.99898 9.1059 3.61498 8.1109 4.60998C8.0179 4.70098 7.9609 4.82698 7.9609 4.96698C7.9609 5.24298 8.1849 5.46698 8.4609 5.46698C8.6009 5.46698 8.7269 5.40998 8.8179 5.31698C9.6319 4.50198 10.7569 3.99898 11.9999 3.99898C13.2429 3.99898 14.3679 4.50298 15.1819 5.31698C15.2719 5.40698 15.3969 5.46298 15.5359 5.46298C15.6749 5.46298 15.7989 5.40698 15.8899 5.31698L15.8889 5.31798ZM16.1489 18L18.6379 19.277C18.7279 19.355 18.7849 19.47 18.7849 19.598C18.7849 19.643 18.7779 19.686 18.7649 19.727L18.7659 19.724L18.6379 19.979C18.5599 20.069 18.4449 20.126 18.3179 20.126C18.2729 20.126 18.2289 20.119 18.1889 20.106L18.1919 20.107L16.1489 19.086V22.086C16.1489 22.098 16.1489 22.113 16.1489 22.128C16.1489 23.041 15.4509 23.791 14.5599 23.873L14.5529 23.874C13.7229 23.938 12.8299 24.002 11.9999 24.002C11.1059 24.002 10.2769 23.938 9.4469 23.874C8.5449 23.769 7.8509 23.009 7.8509 22.087C7.8509 22.087 7.8509 22.087 7.8509 22.086V19.086L5.8079 20.107C5.7649 20.126 5.7149 20.137 5.6619 20.137C5.5379 20.137 5.4279 20.075 5.3619 19.98L5.3609 19.979L5.2329 19.724C5.2139 19.681 5.2029 19.631 5.2029 19.578C5.2029 19.454 5.2649 19.344 5.3599 19.278L5.3609 19.277L7.8499 18V14.617L5.8069 15.638C5.7639 15.657 5.7139 15.668 5.6609 15.668C5.5369 15.668 5.4269 15.606 5.3609 15.511L5.3599 15.51L5.2319 15.255C5.2129 15.212 5.2019 15.162 5.2019 15.109C5.2019 14.985 5.2639 14.875 5.3589 14.809L5.3599 14.808L7.8489 13.531V11.425C7.8489 11.424 7.8489 11.423 7.8489 11.422C7.8489 10.281 8.6679 9.33198 9.7489 9.12898L9.7629 9.12698L8.9969 11.553C8.9879 11.58 8.9829 11.612 8.9829 11.644C8.9829 11.778 9.0679 11.891 9.1859 11.935L9.1879 11.936H9.2519C9.3799 11.936 9.4429 11.872 9.5069 11.744L10.4009 9.06298C10.7999 9.02098 11.2629 8.99698 11.7309 8.99698C11.8239 8.99698 11.9169 8.99798 12.0099 8.99998H11.9959C12.5699 8.99998 13.0809 9.06398 13.5919 9.06398L14.4859 11.745C14.4859 11.873 14.6139 11.937 14.7409 11.937H14.8049C14.9329 11.873 15.0599 11.682 14.9959 11.554L14.2299 9.12798C15.3259 9.33298 16.1449 10.282 16.1449 11.423C16.1449 11.424 16.1449 11.425 16.1449 11.426V13.532L18.6339 14.809C18.7239 14.887 18.7809 15.002 18.7809 15.13C18.7809 15.175 18.7739 15.219 18.7609 15.259L18.7619 15.256L18.6339 15.511C18.5559 15.601 18.4409 15.658 18.3139 15.658C18.2689 15.658 18.2249 15.651 18.1849 15.638L18.1879 15.639L16.1449 14.618L16.1489 18ZM9.3829 12.894L10.5319 15.383H13.4039L14.5529 12.894C13.7979 12.772 12.9279 12.702 12.0409 12.702C12.0269 12.702 12.0119 12.702 11.9979 12.702H11.9999C11.0759 12.702 10.1689 12.772 9.2829 12.906L9.3829 12.894ZM9.7659 20.872V16.149L8.8089 14.043V22.022L9.7659 20.872ZM14.5529 22.851L13.6589 21.766H10.4039L9.5099 22.851H9.5739C10.3399 22.915 11.1699 22.979 11.9999 22.979C12.7659 22.979 13.5959 22.915 14.4259 22.851H14.5529ZM15.1919 13.979L14.2349 16.149V20.872L15.1919 22.021V13.979Z"/></g></svg>