<svg viewBox="0 0 24 24"><path d="M12 1C5.925 1 1 5.925 1 12C1 18.075 5.925 23 12 23C18.075 23 23 18.075 23 12C23 5.925 18.075 1 12 1ZM16.364 16.813C15.913 17.379 15.432 17.929 14.92 18.46C14.597 18.795 14.068 18.845 13.686 18.581C12.472 17.74 11.303 16.819 10.2 15.835C9.793 15.471 9.397 15.095 9.005 14.712C8.622 14.321 8.245 13.924 7.882 13.517C6.898 12.415 5.977 11.245 5.136 10.031C4.871 9.649 4.922 9.12 5.257 8.797C5.788 8.286 6.338 7.804 6.904 7.353C7.094 7.202 7.369 7.219 7.543 7.388L9.409 9.198C9.583 9.367 9.609 9.642 9.463 9.836C9.267 10.097 9.065 10.354 8.856 10.609C8.561 10.968 8.55 11.484 8.852 11.838C9.396 12.477 10.389 13.554 11.875 14.837C12.233 15.146 12.757 15.149 13.124 14.849C13.374 14.645 13.626 14.446 13.882 14.255C14.076 14.109 14.351 14.135 14.52 14.309L16.33 16.175C16.498 16.348 16.515 16.623 16.364 16.813ZM19.033 10H15.717V12L10.916 9L15.717 6V8H19.033V10Z"/></svg>