<svg viewBox="0 0 24 24"><path d="M22.133 1.87806C18.819 1.43006 15.437 1.19806 12 1.19806C8.563 1.19806 5.181 1.43006 1.867 1.87806C1.37 1.94506 1 2.37506 1 2.87606V17.1231C1 17.6251 1.37 18.0551 1.867 18.1221C3.779 18.3801 5.716 18.5581 7.67 18.6701L11.647 22.6471C11.842 22.8421 12.159 22.8421 12.354 22.6471L16.331 18.6701C18.286 18.5581 20.222 18.3811 22.134 18.1221C22.631 18.0551 23 17.6251 23 17.1231V2.87606C23 2.37506 22.631 1.94506 22.133 1.87806ZM7.5 8.68006L5.327 10.1111L6.035 7.61206L4 6.00006H6.595L7.5 3.46706L8.405 6.00006H11L8.964 7.61306L9.673 10.1121L7.5 8.68006ZM14.173 17.1111L12 15.6801L9.827 17.1111L10.535 14.6121L8.5 13.0001H11.095L12 10.4671L12.905 13.0001H15.5L13.464 14.6131L14.173 17.1111ZM18.673 10.1111L16.5 8.68006L14.327 10.1111L15.035 7.61206L13 6.00006H15.595L16.5 3.46706L17.405 6.00006H20L17.964 7.61306L18.673 10.1111Z"/></svg>