<svg viewBox="0 0 24 24"><g clip-path="url(#clip0_783_844)"><path d="M24.0001 12C24.0001 12.002 24.0001 12.004 24.0001 12.006C24.0001 17.801 19.3021 22.5 13.5061 22.5C7.84705 22.5 3.23405 18.021 3.02005 12.414L3.01905 12.395L1.70605 13.708C1.52605 13.886 1.27705 13.996 1.00305 13.996C0.451052 13.996 0.00305176 13.548 0.00305176 12.996C0.00305176 12.722 0.113052 12.474 0.292052 12.293L3.99905 8.58602L7.70605 12.293C7.89005 12.474 8.00305 12.726 8.00305 13.004C8.00305 13.556 7.55505 14.004 7.00305 14.004C6.72505 14.004 6.47305 13.89 6.29205 13.707L5.02105 12.436C5.26605 16.926 8.96705 20.473 13.4961 20.473C18.1831 20.473 21.9831 16.673 21.9831 11.986C21.9831 7.29902 18.1831 3.49902 13.4961 3.49902C10.5081 3.49902 7.88105 5.04302 6.36905 7.37602L6.34905 7.40902L4.91905 5.96902C6.84105 3.25202 9.97005 1.49902 13.5091 1.49902C19.3021 1.49902 23.9991 6.19502 23.9991 11.989C23.9991 11.993 23.9991 11.996 23.9991 12V11.999L24.0001 12ZM12.7981 12.691C12.8181 12.719 12.8381 12.743 12.8581 12.766L12.8571 12.765C12.9011 12.797 12.9521 12.826 13.0051 12.851L13.0111 12.853C13.0421 12.874 13.0791 12.895 13.1161 12.914L13.1221 12.917C13.2331 12.966 13.3621 12.996 13.4981 12.999H13.4991H13.5001H13.5011C13.6381 12.996 13.7671 12.967 13.8841 12.915L13.8781 12.918C13.9211 12.897 13.9581 12.875 13.9921 12.852L13.9891 12.854C14.0481 12.827 14.0991 12.797 14.1461 12.763L14.1431 12.765C14.1631 12.743 14.1821 12.718 14.2011 12.693L14.2031 12.69C14.2221 12.67 14.2491 12.663 14.2671 12.641L16.5391 9.93302C16.6831 9.76102 16.7711 9.53702 16.7711 9.29302C16.7711 8.74102 16.3231 8.29302 15.7711 8.29302C15.4651 8.29302 15.1921 8.43002 15.0091 8.64602L15.0081 8.64702L13.5011 10.443L10.6311 7.02202C10.4461 6.80402 10.1731 6.66602 9.86605 6.66602C9.31405 6.66602 8.86605 7.11402 8.86605 7.66602C8.86605 7.91102 8.95405 8.13502 9.10005 8.30902L9.09905 8.30702L12.7351 12.64C12.7531 12.661 12.7791 12.669 12.7991 12.689L12.7981 12.691Z"/></g></svg>