<svg viewBox="0 0 24 24"><path fill-rule="evenodd" clip-rule="evenodd" d="M9.37581 4H14.6228C15.3018 4 15.7838 3.337 15.5738 2.691L15.1478 1.382C14.8818 0.558 14.1138 0 13.2468 0H10.7528C9.88581 0 9.11781 0.558 8.85081 1.382L8.42481 2.691C8.21481 3.337 8.69681 4 9.37581 4ZM18.2887 6.732C18.1627 5.738 17.3037 5 16.3027 5H7.69675C6.69575 5 5.83675 5.738 5.71075 6.732C5.28375 10.099 5.05475 13.526 5.01575 17H18.9837C18.9447 13.526 18.7157 10.099 18.2887 6.732ZM14.7667 9.071C14.1537 9.958 13.5587 10.923 12.9817 11.966C12.4047 13.01 11.9897 13.868 11.7367 14.541H10.0567C10.3637 13.834 10.7117 13.116 11.1017 12.386C11.4917 11.657 11.8577 11.015 12.2017 10.461C12.5447 9.908 12.7967 9.534 12.9567 9.341H9.61675V8.041H14.7667V9.071ZM5 18H19C20.657 18 22 19.343 22 21V22C22 22.552 21.552 23 21 23H3C2.448 23 2 22.552 2 22V21C2 19.343 3.343 18 5 18Z"/></svg>