<svg viewBox="0 0 24 24"><path fill-rule="evenodd" clip-rule="evenodd" d="M8.70001 0.519554C4.60001 1.81955 2 5.81955 2 10.1196C2 12.5196 2.79999 14.4196 4.29999 16.3196C4.29999 16.3196 6.69999 19.2196 11.3 23.4196C11.7 23.7196 12.3 23.7196 12.6 23.4196C17.2 19.2196 19.6 16.3196 19.6 16.3196C21.1 14.4196 21.9 12.3196 21.9 9.91955C22 3.41955 15.6 -1.68045 8.70001 0.519554ZM13.7576 12.0995C13.9625 12.0095 14.1852 11.9625 14.4107 11.9618C14.7337 11.961 15.0492 12.0548 15.315 12.2306C15.5808 12.4063 15.7843 12.6557 15.8982 12.9453C16.0121 13.2349 16.0309 13.5509 15.9522 13.851C15.8735 14.1511 15.701 14.4211 15.4579 14.6247C15.2147 14.8284 14.9124 14.956 14.5914 14.9905C14.2704 15.025 13.9461 14.9648 13.6619 14.8179C13.3776 14.671 13.1469 14.4444 13.0007 14.1685C12.8546 13.8925 12.7998 13.5804 12.8438 13.2738L8.58184 11.1931C8.3481 11.3723 8.0663 11.4845 7.76888 11.517C7.47147 11.5494 7.17053 11.5007 6.90074 11.3765C6.63094 11.2523 6.40326 11.0575 6.2439 10.8147C6.08455 10.5719 6 10.291 6 10.0042C6 9.71736 6.08455 9.43639 6.2439 9.1936C6.40326 8.95082 6.63094 8.75609 6.90074 8.63185C7.17053 8.50761 7.47147 8.45891 7.76888 8.49136C8.0663 8.5238 8.3481 8.63608 8.58184 8.81525L12.8438 6.73452C12.8311 6.66494 12.8237 6.59458 12.8216 6.52397C12.8196 6.16926 12.9474 5.8251 13.183 5.55142C13.4185 5.27774 13.7467 5.09188 14.1105 5.02621C14.4744 4.96053 14.8507 5.0192 15.174 5.192C15.4973 5.3648 15.7471 5.64078 15.88 5.97188C16.0128 6.30299 16.0202 6.66824 15.9009 7.00403C15.7816 7.33983 15.5431 7.62489 15.2271 7.80959C14.911 7.99429 14.5373 8.06692 14.1711 8.01483C13.8049 7.96274 13.4694 7.78924 13.223 7.52453L9.10443 9.53739C9.21723 9.84009 9.21723 10.1709 9.10443 10.4736L13.2225 12.4838C13.3702 12.3206 13.5527 12.1896 13.7576 12.0995Z"/></svg>