<svg viewBox="0 0 24 24"><g clip-path="url(#clip0_783_830)"><path d="M16.11 24H1V12.18C1.003 11.605 1.222 11.082 1.582 10.688L1.58 10.69L10.83 0.51C11.122 0.196 11.538 0 12 0C12.462 0 12.878 0.196 13.169 0.509L13.17 0.51L22.42 10.69C22.778 11.082 22.997 11.605 23 12.179V24H16.11ZM11.25 21H12.75C13.131 20.999 13.445 20.713 13.49 20.344V20.34C14.37 20.16 15.147 19.808 15.817 19.318L15.8 19.33C16.587 18.776 17.163 17.969 17.414 17.029L17.42 17H17.75C18.163 16.997 18.497 16.663 18.5 16.25V13.25C18.497 12.837 18.163 12.503 17.75 12.5H17.49C17.283 9.696 14.957 7.499 12.118 7.499C12.077 7.499 12.035 7.499 11.994 7.5H12C11.965 7.499 11.924 7.499 11.882 7.499C9.043 7.499 6.717 9.696 6.511 12.483L6.51 12.501H6.25C5.837 12.504 5.503 12.838 5.5 13.251V16.251C5.503 16.664 5.837 16.998 6.25 17.001H7.75C8.163 16.998 8.497 16.664 8.5 16.251V13.251C8.495 12.93 8.296 12.656 8.015 12.543L8.01 12.541C8.195 10.548 9.859 8.999 11.885 8.999C11.926 8.999 11.966 9 12.006 9.001H12C12.034 9 12.075 8.999 12.115 8.999C14.141 8.999 15.805 10.547 15.989 12.525L15.99 12.54C15.704 12.655 15.505 12.929 15.5 13.249V16.25C15.5 16.253 15.5 16.257 15.5 16.26C15.5 16.535 15.652 16.774 15.876 16.898L15.88 16.9C15.68 17.405 15.345 17.821 14.919 18.114L14.91 18.12C14.472 18.44 13.957 18.685 13.4 18.824L13.37 18.83C13.236 18.63 13.011 18.5 12.756 18.5C12.754 18.5 12.752 18.5 12.75 18.5H11.25C10.837 18.503 10.503 18.837 10.5 19.25V20.25C10.503 20.663 10.837 20.997 11.25 21Z"/></g></svg>