<svg viewBox="0 0 24 24"><g clip-path="url(#clip0_783_827)"><path d="M24.0001 24H19.5001L18.5001 11L17.0501 7.63L17.0001 7.5C16.9631 7.418 16.9421 7.323 16.9421 7.222C16.9421 6.841 17.2511 6.532 17.6321 6.532C17.9191 6.532 18.1641 6.707 18.2691 6.955L18.2711 6.96L18.4111 7.3L18.4211 7.33L18.7111 8C18.8511 8.32 19.2411 8.25 19.4511 7.82L18.9611 6.66C18.7531 6.221 18.3461 5.907 17.8591 5.831L17.8511 5.83C16.7431 3.728 14.5721 2.32 12.0731 2.32C9.58606 2.32 7.42406 3.715 6.32806 5.765L6.31106 5.8C5.73006 5.818 5.23506 6.165 5.00506 6.661L5.00106 6.67L4.51106 7.82C4.72106 8.25 5.11106 8.32 5.25106 8L5.69106 6.96C5.73606 6.856 5.80906 6.771 5.89906 6.711L5.90106 6.71C6.02706 6.611 6.18706 6.551 6.36206 6.551C6.44806 6.551 6.53006 6.565 6.60606 6.592L6.60106 6.59C6.84006 6.721 7.00006 6.972 7.00006 7.259C7.00006 7.345 6.98606 7.428 6.95906 7.505L6.96106 7.5L6.88106 7.7L5.46106 11L5.29106 13.27L4.46106 24H-0.0389404L0.12106 23.25L2.46106 12L2.05106 7.5C2.03106 7.416 2.01906 7.32 2.01906 7.22C2.01906 6.681 2.36206 6.223 2.84206 6.052L2.85106 6.049L5.12106 4.919C6.45206 2.653 8.83106 1.128 11.5751 1.01L11.5911 1.009C11.7031 1.003 11.8341 1 11.9661 1C14.8611 1 17.3931 2.549 18.7811 4.863L18.8011 4.899L21.1111 6.049C21.5991 6.223 21.9431 6.681 21.9431 7.219C21.9431 7.318 21.9311 7.415 21.9091 7.507L21.9111 7.499L21.5011 11.999L23.8411 23.249L24.0001 24ZM17.5101 10.59L16.3101 7.8C16.2531 7.664 16.2201 7.506 16.2201 7.341V7.34L15.2401 7.01C15.8431 7.708 16.2111 8.624 16.2111 9.626C16.2111 9.652 16.2111 9.678 16.2101 9.704V9.7C16.2111 9.737 16.2121 9.78 16.2121 9.823C16.2121 10.094 16.1861 10.359 16.1361 10.616L16.1401 10.59H17.5101ZM17.8201 12.02L17.9901 14.24C17.3771 14.938 16.6491 15.517 15.8311 15.95L15.7901 15.97C15.5081 16.1 15.1781 16.177 14.8311 16.18H9.17006C9.16006 16.18 9.14806 16.18 9.13706 16.18C8.80006 16.18 8.48106 16.102 8.19706 15.964L8.21006 15.97C7.33906 15.492 6.59806 14.895 5.97806 14.189L5.97006 14.18L6.16006 11.68C6.74506 12.873 7.63506 13.84 8.73006 14.503L8.76006 14.52C8.95506 14.648 9.19306 14.725 9.44906 14.73H9.45006C9.45206 14.73 9.45506 14.73 9.45706 14.73C9.83006 14.73 10.1331 14.428 10.1331 14.054C10.1331 13.951 10.1101 13.853 10.0681 13.765L10.0701 13.769L8.90006 11.149C8.68006 10.727 8.55106 10.228 8.55006 9.699C8.55006 9.695 8.55006 9.69 8.55006 9.685C8.55006 7.792 10.0841 6.258 11.9771 6.258C12.2041 6.258 12.4261 6.28 12.6411 6.322L12.6191 6.318C13.9361 6.59 14.9681 7.575 15.3041 8.844L15.3091 8.868C15.3861 9.128 15.4311 9.428 15.4311 9.737C15.4311 10.251 15.3091 10.737 15.0911 11.166L15.0991 11.148L13.9291 13.768C13.8801 13.857 13.8511 13.964 13.8511 14.077C13.8511 14.438 14.1431 14.73 14.5041 14.73C14.5201 14.73 14.5351 14.729 14.5511 14.728H14.5491C14.8531 14.717 15.1371 14.641 15.3911 14.513L15.3791 14.518C16.4071 13.911 17.2351 13.064 17.8021 12.051L17.8191 12.018L17.8201 12.02ZM12.9701 9.56C12.9701 8.988 12.5071 8.525 11.9351 8.525C11.3631 8.525 10.9001 8.988 10.9001 9.56C10.9001 10.132 11.3631 10.595 11.9351 10.595C12.5071 10.595 12.9701 10.132 12.9701 9.56ZM7.74006 7.4C7.72906 7.539 7.69706 7.669 7.64706 7.788L7.65006 7.78L6.45006 10.59H8.00006C7.95306 10.374 7.92606 10.125 7.92606 9.87C7.92606 9.81 7.92806 9.751 7.93006 9.691V9.699C7.93006 9.692 7.93006 9.683 7.93006 9.674C7.93006 8.656 8.29706 7.724 8.90506 7.003L8.90006 7.009L7.74006 7.4Z"/></g></svg>