<svg viewBox="0 0 24 24"><path d="M9.24999 5.79166C8.44458 5.79166 7.79166 6.44458 7.79166 7.25C7.79166 8.05541 8.44458 8.70833 9.24999 8.70833C10.0554 8.70833 10.7083 8.05541 10.7083 7.25C10.7083 6.44458 10.0554 5.79166 9.24999 5.79166Z"/><path d="M14.5 11.625C14.0167 11.625 13.625 12.0167 13.625 12.5C13.625 12.9832 14.0167 13.375 14.5 13.375C14.9832 13.375 15.375 12.9832 15.375 12.5C15.375 12.0167 14.9832 11.625 14.5 11.625Z"/><path fill-rule="evenodd" clip-rule="evenodd" d="M20.552 14.8061L20.6202 14.7812C21.0733 14.5845 21.4001 14.1767 21.4928 13.6915C21.6333 13.0848 21.2162 12.6193 20.9077 12.2751C20.8956 12.2616 20.8836 12.2482 20.8719 12.235C20.8573 12.2189 20.8428 12.203 20.8283 12.1873C20.7843 12.1392 20.7416 12.0925 20.7042 12.0457C20.3464 11.6136 20.0401 11.1416 19.7912 10.6389C19.6201 10.332 19.6052 9.96179 19.7509 9.64209C19.7943 9.49306 19.8378 9.33148 19.8751 9.14217C19.9613 8.67933 19.9498 8.20321 19.841 7.74489C19.7239 7.26619 19.5766 6.79508 19.4 6.33502C19.3903 6.30848 19.3806 6.28198 19.3709 6.25552C19.2967 6.05283 19.2232 5.8521 19.1546 5.64883L19.0801 5.43461C18.7516 4.4181 18.1828 3.4958 17.4221 2.74551C16.4591 1.88603 15.2628 1.33195 13.9846 1.15281C12.0934 0.835929 9.95384 1.01287 7.61562 1.67439C2.13803 3.22699 1.88353 8.29739 2.02627 10.4028C2.14111 11.8559 3.07267 13.3464 3.93281 14.6661C4.36426 15.2818 4.73855 15.9352 5.05068 16.619C5.57271 17.9907 5.10291 22.4979 5.0546 22.9615C5.05205 22.9859 5.05068 22.9991 5.05068 23L4.93891 23.3292L13.9846 24L14.1057 23.5467C14.1057 23.5467 14.5681 23.1463 14.7544 22.4632C14.7978 22.3118 14.8349 22.1417 14.872 21.9718L14.8725 21.9695C14.9387 21.629 15.0397 21.2961 15.1738 20.976H15.6395C16.3961 21.0165 17.1546 20.9684 17.9001 20.833C19.1731 20.5662 19.8502 19.9979 19.9091 19.147C19.9082 18.8165 19.8461 18.4892 19.7259 18.1814C19.6912 18.0859 19.6622 17.9884 19.639 17.8894C19.6994 17.7985 19.767 17.7123 19.8409 17.6317C20.015 17.4738 20.1419 17.2706 20.2071 17.0449C20.2253 16.8463 20.1664 16.6483 20.0425 16.4921C20.1536 16.3765 20.2574 16.2541 20.3531 16.1257C20.4675 15.9554 20.4432 15.7422 20.4032 15.3907L20.4027 15.3866C20.4003 15.3625 20.3976 15.3377 20.395 15.3126C20.3808 15.1787 20.3655 15.0337 20.3655 14.924C20.3642 14.9116 20.3642 14.899 20.3655 14.8867C20.4242 14.8525 20.4868 14.8254 20.552 14.8061ZM5.20555 7.24999C5.20555 7.0127 5.20555 6.77542 5.28333 6.53813L4.58333 5.90536L4.97222 4.87711L5.90556 4.9562C6.21667 4.56073 6.52777 4.16525 6.91666 3.92796L6.83888 2.97881L7.84999 2.58333L8.47222 3.29519C8.70555 3.2161 8.93888 3.2161 9.17222 3.2161C9.40555 3.2161 9.63888 3.2161 9.87222 3.29519L10.4944 2.58333L11.5833 2.89971L11.5055 3.84886C11.8944 4.16525 12.2833 4.48163 12.5167 4.87711L13.45 4.79802L13.9167 5.82627L13.2167 6.45903C13.2944 6.69632 13.2944 6.93361 13.2944 7.1709C13.2944 7.40819 13.2944 7.64547 13.2167 7.88276L13.9167 8.59463L13.5278 9.62288L12.5944 9.54378C12.2833 9.93926 11.9722 10.3347 11.5833 10.572V11.5212L10.5722 11.9167L9.95 11.2048C9.71666 11.2839 9.48333 11.2839 9.24999 11.2839C9.01666 11.2839 8.78333 11.2839 8.55 11.2048L7.92777 11.9167L6.91666 11.5212L6.99444 10.572C6.60555 10.2556 6.21666 9.93926 5.98333 9.54378L5.05 9.62288L4.58333 8.59463L5.28333 7.96186C5.28333 7.84322 5.26388 7.72457 5.24444 7.60593C5.22499 7.48728 5.20555 7.36863 5.20555 7.24999ZM11.5833 12.1677L12.2478 11.9462C12.3217 11.7247 12.3956 11.5031 12.5433 11.2816L12.2478 10.6909L12.6909 10.2478L13.2817 10.5432C13.5032 10.3955 13.7247 10.3217 13.9462 10.2478L14.1677 9.58333H14.8322L15.054 10.2479C15.2754 10.3217 15.497 10.3956 15.7185 10.5432L16.3091 10.2478L16.7522 10.6909L16.4569 11.2816C16.6044 11.5029 16.6784 11.7249 16.7522 11.9462L17.4167 12.1677V12.8322L16.7519 13.0545C16.6782 13.2758 16.6044 13.4971 16.4569 13.7184L16.7522 14.3091L16.3091 14.7522L15.7185 14.4568C15.497 14.6044 15.2753 14.6783 15.0538 14.7522L14.8322 15.4167H14.1677L13.9462 14.7522C13.7247 14.6783 13.5032 14.6045 13.2817 14.4568L12.6909 14.7522L12.2478 14.3091L12.5433 13.7184C12.3956 13.4969 12.3217 13.2753 12.2478 13.0538L11.5833 12.8322V12.1677Z"/></svg>