<svg viewBox="0 0 24 24"><path d="M10.447 15.224L8.633 14.317C8.217 14.108 7.757 14 7.292 14H7C6.448 14 6 13.552 6 13V11C6 10.448 5.552 10 5 10C4.448 10 4 10.448 4 11V18.201L3.79 17.865C3.411 17.258 2.759 16.925 2.092 16.925C1.73 16.925 1.364 17.023 1.034 17.229L4.347 22.531C4.53 22.822 4.85 23 5.195 23H8.571C8.916 23 9.236 22.822 9.419 22.53L10.544 20.73C10.842 20.253 11 19.702 11 19.14V16.118C11 15.739 10.786 15.393 10.447 15.224ZM10.5 10H6.722C6.894 10.295 7 10.634 7 11H10V14H10.4C10.731 14 11 13.731 11 13.4V10.5C11 10.225 10.775 10 10.5 10ZM10.5 4H4.5C4.225 4 4 4.225 4 4.5V7.5C4 7.775 4.225 8 4.5 8H10.5C10.775 8 11 7.775 11 7.5V4.5C11 4.225 10.775 4 10.5 4ZM13.5 8H19.5C19.775 8 20 7.775 20 7.5V4.5C20 4.225 19.775 4 19.5 4H13.5C13.225 4 13 4.225 13 4.5V7.5C13 7.775 13.225 8 13.5 8ZM22 1H2C1.45 1 1 1.45 1 2V15.25C1 15.664 1.336 16 1.75 16C2.164 16 2.5 15.664 2.5 15.25V2.5H21.5V15.5H11.894C11.958 15.697 12 15.903 12 16.118V17H22C22.55 17 23 16.55 23 16V2C23 1.45 22.55 1 22 1ZM13 13.5C13 13.775 13.225 14 13.5 14H19.5C19.775 14 20 13.775 20 13.5V10.5C20 10.225 19.775 10 19.5 10H13.5C13.225 10 13 10.225 13 10.5V13.5Z"/></svg>