<svg viewBox="0 0 24 24"><path d="M18.77 14L21 9H17V7H18.77L21 2H17C16.997 0.897 16.103 0.003 15 0H9C7.897 0.003 7.003 0.897 7 2H3L5.23 7H7V9H3L5.23 14H7V16H3L5.23 21H7V22C7.003 23.103 7.897 23.997 9 24H15C16.103 23.997 16.997 23.103 17 22V21H18.77L21 16H17V14H18.77ZM12 22C10.343 22 9 20.657 9 19C9 17.343 10.343 16 12 16C13.657 16 15 17.343 15 19C15 19.001 15 19.003 15 19.004C15 20.659 13.659 22 12.004 22C12.003 22 12.001 22 12 22ZM12 15C10.343 15 9 13.657 9 12C9 10.343 10.343 9 12 9C13.657 9 15 10.343 15 12C15 12.001 15 12.003 15 12.004C15 13.659 13.659 15 12.004 15C12.003 15 12.001 15 12 15ZM12 8C10.343 8 9 6.657 9 5C9 3.343 10.343 2 12 2C13.657 2 15 3.343 15 5C15 5.001 15 5.003 15 5.004C15 6.659 13.659 8 12.004 8C12.003 8 12.001 8 12 8Z"/></svg>