<svg viewBox="0 0 24 24"><g clip-path="url(#clip0_783_819)"><path d="M8.312 12.822C8.312 13.239 8.189 13.646 7.957 13.992C7.725 14.338 7.397 14.608 7.012 14.767C6.627 14.926 6.204 14.968 5.795 14.887C5.386 14.806 5.011 14.605 4.717 14.311C4.423 14.017 4.222 13.641 4.141 13.233C4.06 12.825 4.101 12.401 4.261 12.017C4.421 11.633 4.69 11.303 5.037 11.072C5.383 10.841 5.79 10.717 6.207 10.717C6.484 10.716 6.758 10.769 7.014 10.875C7.27 10.981 7.503 11.135 7.698 11.331C7.894 11.527 8.049 11.759 8.154 12.015C8.259 12.271 8.313 12.546 8.312 12.822ZM18.069 10.716C17.652 10.716 17.245 10.839 16.899 11.071C16.553 11.303 16.283 11.631 16.124 12.016C15.965 12.401 15.923 12.824 16.004 13.232C16.085 13.64 16.286 14.016 16.58 14.31C16.874 14.604 17.25 14.805 17.658 14.886C18.066 14.967 18.49 14.925 18.875 14.766C19.26 14.607 19.589 14.337 19.82 13.991C20.051 13.645 20.175 13.238 20.175 12.821C20.176 12.544 20.123 12.27 20.017 12.014C19.911 11.758 19.757 11.525 19.561 11.33C19.365 11.134 19.133 10.979 18.877 10.874C18.621 10.769 18.347 10.715 18.07 10.716H18.069ZM24 12.822C23.998 13.974 23.661 15.101 23.03 16.065C22.399 17.029 21.5 17.787 20.444 18.249C19.388 18.71 18.221 18.854 17.085 18.663C15.949 18.472 14.893 17.954 14.046 17.172L12.138 19.238L10.24 17.162C9.68 17.754 9.004 18.224 8.254 18.543C7.504 18.862 6.697 19.023 5.882 19.017C5.067 19.01 4.263 18.836 3.518 18.504C2.773 18.172 2.106 17.691 1.556 17.09C1.006 16.489 0.586004 15.781 0.321004 15.01C0.0560042 14.239 -0.0459959 13.422 0.0190041 12.61C0.0840041 11.798 0.316004 11.008 0.701004 10.289C1.086 9.57 1.613 8.939 2.252 8.433L0.275004 6.327H4.585C6.814 4.811 9.447 4 12.142 4C14.837 4 17.471 4.811 19.699 6.327H23.999L22.022 8.433C22.64 8.986 23.135 9.662 23.476 10.418C23.817 11.174 23.995 11.993 23.999 12.822H24ZM10.23 12.822C10.242 12.026 10.016 11.244 9.583 10.576C9.15 9.908 8.527 9.385 7.794 9.072C7.061 8.759 6.253 8.671 5.471 8.819C4.689 8.967 3.968 9.345 3.401 9.903C2.834 10.461 2.446 11.177 2.286 11.957C2.126 12.737 2.202 13.547 2.504 14.284C2.806 15.021 3.32 15.651 3.982 16.095C4.643 16.539 5.422 16.776 6.218 16.776H6.208C7.263 16.779 8.276 16.365 9.028 15.624C9.78 14.883 10.208 13.876 10.221 12.821H10.231L10.23 12.822ZM16.586 6.831C15.176 6.244 13.665 5.941 12.138 5.941C10.611 5.941 9.099 6.243 7.69 6.831C8.935 7.25 10.026 8.034 10.819 9.082C11.612 10.13 12.072 11.391 12.139 12.703C12.205 11.391 12.665 10.129 13.459 9.082C14.253 8.035 15.343 7.25 16.588 6.831H16.586ZM22.072 12.822C22.084 12.025 21.858 11.243 21.424 10.575C20.99 9.907 20.367 9.383 19.634 9.071C18.901 8.758 18.092 8.671 17.309 8.82C16.526 8.969 15.806 9.347 15.239 9.907C14.672 10.467 14.285 11.183 14.126 11.963C13.967 12.743 14.045 13.554 14.348 14.291C14.651 15.028 15.167 15.657 15.83 16.1C16.493 16.543 17.272 16.778 18.068 16.776C18.591 16.782 19.111 16.685 19.596 16.489C20.081 16.293 20.523 16.003 20.896 15.635C21.268 15.267 21.564 14.829 21.766 14.346C21.968 13.863 22.072 13.345 22.072 12.821V12.822Z"/></g></svg>