<svg viewBox="0 0 24 24"><g clip-path="url(#clip0_783_880)"><path d="M18.5 5V9H17.25V11.337L12.75 15.337V19.128C13.773 19.457 14.5 20.4 14.5 21.513C14.5 22.894 13.381 24.013 12 24.013C10.619 24.013 9.5 22.894 9.5 21.513C9.5 20.4 10.227 19.457 11.232 19.133L11.25 19.128V17.837L6.75 13.837V11.373C5.727 11.044 5 10.101 5 8.988C5 7.607 6.119 6.488 7.5 6.488C8.881 6.488 10 7.607 10 8.988C10 10.101 9.273 11.044 8.268 11.368L8.25 11.373V13.163L11.25 15.83V4H9.5L12.013 0L14.5 4H12.75V13.33L15.75 10.663V9H14.5V5H18.5Z"/></g></svg>