<svg viewBox="0 0 24 24"><path d="M15.6793 5.88552H7.67938V10.3282H15.6793V5.88552Z"/><path fill-rule="evenodd" clip-rule="evenodd" d="M8.70001 0.519554C4.60001 1.81955 2 5.81955 2 10.1196C2 12.5196 2.79999 14.4196 4.29999 16.3196C4.29999 16.3196 6.69999 19.2196 11.3 23.4196C11.7 23.7196 12.3 23.7196 12.6 23.4196C17.2 19.2196 19.6 16.3196 19.6 16.3196C21.1 14.4196 21.9 12.3196 21.9 9.91955C22 3.41955 15.6 -1.68045 8.70001 0.519554ZM16.3664 11.2137H7.02289C6.88549 11.2137 6.79388 11.1221 6.79388 11V5.88552C6.79388 5.39698 7.19083 5.00003 7.67938 5.00003H15.7099C16.1984 5.00003 16.5954 5.39698 16.5954 5.88552V10.9847C16.5954 11.1069 16.4885 11.2137 16.3664 11.2137ZM12.7939 11.6565H16.7938C16.916 11.6565 17.0228 11.7634 17.0228 11.8855V12.3282C17.0228 12.6947 16.7175 13 16.3511 13H7.00763C6.64122 13 6.33588 12.6947 6.33588 12.3282V11.8855C6.33588 11.7634 6.44275 11.6565 6.56488 11.6565H10.5649C10.687 11.6565 10.7939 11.7634 10.7939 11.8855V12.1145H12.5649V11.8855C12.5649 11.7634 12.6717 11.6565 12.7939 11.6565Z"/></svg>