<svg width="24" height="24" viewBox="0 0 24 24" fill="none" xmlns="http://www.w3.org/2000/svg">
<path d="M9.189 13.105H7.552C7.488 13.313 7.424 13.526 7.36 13.734H6.501C6.922 12.355 7.367 11.206 7.884 10.097L7.813 10.267H8.965C9.417 11.205 9.871 12.353 10.249 13.536L10.304 13.735H9.392L9.189 13.105ZM8.954 12.406C8.783 11.921 8.602 11.435 8.362 10.88C8.149 11.371 7.956 11.888 7.781 12.406H8.954ZM12.208 10.267C12.939 10.267 13.761 10.416 13.761 11.152C13.751 11.525 13.497 11.835 13.153 11.929L13.147 11.93V11.946C13.559 11.979 13.885 12.307 13.915 12.717V12.72C13.915 13.563 13.115 13.734 12.411 13.734H10.784V10.267H12.208ZM11.611 11.675H12.241C12.587 11.675 12.891 11.616 12.891 11.291C12.891 10.966 12.566 10.934 12.261 10.934H11.611V11.675ZM11.611 13.067H12.406C12.832 13.067 13.051 12.971 13.051 12.678C13.051 12.331 12.757 12.267 12.347 12.267H11.611V13.067ZM17.26 10.379V11.105C16.882 10.993 16.447 10.927 15.997 10.923H15.995C15.504 10.923 15.345 11.046 15.345 11.233C15.345 11.345 15.42 11.446 15.702 11.521L16.614 11.761C17.249 11.926 17.5 12.252 17.5 12.7C17.5 13.393 16.987 13.798 15.963 13.798C15.947 13.798 15.929 13.798 15.91 13.798C15.425 13.798 14.957 13.728 14.515 13.597L14.55 13.606V12.854C14.934 12.968 15.382 13.047 15.843 13.077L15.862 13.078C16.411 13.078 16.646 12.997 16.646 12.779C16.646 12.624 16.492 12.496 16.177 12.416L15.296 12.192C14.839 12.114 14.496 11.721 14.496 11.248C14.496 11.246 14.496 11.244 14.496 11.242C14.496 10.549 14.998 10.202 16.054 10.202C16.487 10.212 16.901 10.275 17.295 10.387L17.26 10.379ZM12 21C7.029 21 3 16.971 3 12C3 7.029 7.029 3 12 3C16.971 3 21 7.029 21 12C20.994 16.968 16.968 20.994 12.001 21H12ZM12 5C8.134 5 5 8.134 5 12C5 15.866 8.134 19 12 19C15.866 19 19 15.866 19 12C18.996 8.136 15.864 5.004 12 5ZM5.136 19.272C3.203 17.445 2 14.863 2 12C2 9.137 3.203 6.556 5.131 4.733L5.136 4.729L3.763 3.275C1.444 5.468 0 8.566 0 12.001C0 15.436 1.444 18.534 3.757 20.722L3.763 20.727L5.136 19.272ZM24 12C24 11.986 24 11.969 24 11.952C24 8.532 22.556 5.449 20.244 3.28L20.238 3.274L18.865 4.728C20.797 6.555 22 9.137 22 12C22 14.863 20.797 17.444 18.869 19.267L18.864 19.271L20.237 20.725C22.555 18.55 23.999 15.467 23.999 12.047C23.999 12.03 23.999 12.013 23.999 11.996V11.999L24 12Z" fill="black"/>
</svg>
