<svg width="24" height="24" viewBox="0 0 24 24" fill="none" xmlns="http://www.w3.org/2000/svg">
<path d="M18.994 14.307C18.994 14.155 18.976 14.005 18.962 13.854C18.633 13.919 18.295 13.956 17.952 13.976C17.934 14.019 17.92 14.063 17.895 14.103L17.854 14.169C17.68 14.447 17.427 14.67 17.125 14.799C16.53 15.054 15.889 15.218 15.223 15.301L13.056 18.764C12.966 18.911 12.806 19 12.633 19H7.36C7.188 19 7.027 18.911 6.936 18.765L4.77 15.302C4.104 15.219 3.463 15.054 2.867 14.8C2.565 14.671 2.313 14.448 2.138 14.17L2.097 14.104C2.016 13.974 1.972 13.824 1.972 13.671V13.295C1.972 13.05 2.23 12.895 2.449 13.005C3.105 13.334 3.819 13.563 4.573 13.674C4.815 13.71 5.033 13.84 5.163 14.047L7.637 18H12.356L14.83 14.048C14.952 13.853 15.154 13.734 15.378 13.69C14.035 13.293 12.852 12.528 11.937 11.514C11.291 11.538 10.645 11.566 9.996 11.566C8.11 11.566 6.239 11.463 4.387 11.267L6.101 8.53C6.266 8.267 6.551 8.1 6.865 8.083C7.903 8.029 8.957 8.002 9.996 8.002C10.048 8.002 10.1 8.006 10.152 8.006C10.053 7.52 10 7.017 10 6.502C9.999 6.502 9.998 6.502 9.997 6.502C8.921 6.502 7.851 6.53 6.789 6.585C5.987 6.626 5.256 7.054 4.83 7.733L2.948 10.74C2.831 10.317 2.46 10 2 10H1C0.448 10 0 10.448 0 11C0 11.552 0.448 12 1 12H1.591C1.211 12.71 0.999 13.499 0.999 14.307V19.894C0.999 19.894 0.999 19.894 1 19.894V22C1 22.552 1.448 23 2 23H3C3.552 23 4 22.552 4 22V20.251C5.974 20.443 7.972 20.55 9.997 20.55C12.024 20.55 14.024 20.442 16 20.25V22C16 22.552 16.448 23 17 23H18C18.552 23 19 22.552 19 22V16H18.994V14.307ZM7.858 13.805L8.606 15H11.388L12.136 13.805C12.54 13.791 12.944 13.777 13.347 13.755L12.089 15.765C11.997 15.911 11.837 16 11.665 16H8.329C8.157 16 7.997 15.911 7.905 15.765L6.647 13.755C7.049 13.777 7.453 13.791 7.858 13.805ZM17.5 0C13.91 0 11 2.91 11 6.5C11 10.09 13.91 13 17.5 13C21.09 13 24 10.09 24 6.5C24 2.91 21.09 0 17.5 0ZM21 7H18V10H17V7H14V6H17V3H18V6H21V7Z" fill="black"/>
</svg>
