<svg viewBox="0 0 24 24"><path fill-rule="evenodd" clip-rule="evenodd" d="M21.5 4H22C22.55 4 23 4.45 23 5V22C23 22.55 22.55 23 22 23H2C1.45 23 1 22.55 1 22V5C1 4.45 1.45 4 2 4H2.5C2.776 4 3 3.776 3 3.5V3C3 2.448 3.448 2 4 2H6C6.552 2 7 2.448 7 3V3.5C7 3.776 7.224 4 7.5 4H16.5C16.776 4 17 3.776 17 3.5V3C17 2.448 17.448 2 18 2H20C20.552 2 21 2.448 21 3V3.5C21 3.776 21.224 4 21.5 4ZM6 13C6 16.314 8.686 19 12 19C15.314 19 18 16.314 18 13C18 9.686 15.314 7 12 7C8.686 7 6 9.686 6 13ZM7 13C7 10.243 9.243 8 12 8C14.757 8 17 10.243 17 13C17 15.757 14.757 18 12 18C9.243 18 7 15.757 7 13ZM12.384 13.322L14.077 11.303C14.254 11.091 14.226 10.776 14.015 10.598C13.803 10.422 13.488 10.449 13.31 10.66L12 12.222L10.128 9.987C9.949 9.776 9.634 9.748 9.423 9.926C9.212 10.104 9.184 10.42 9.362 10.631L11.62 13.321C11.6247 13.3268 11.6306 13.3303 11.6363 13.3339C11.6416 13.3371 11.6467 13.3403 11.651 13.345C11.6564 13.3504 11.6606 13.3565 11.6648 13.3625C11.6699 13.3698 11.6749 13.377 11.682 13.383C11.698 13.3963 11.7158 13.4052 11.7336 13.4141C11.7424 13.4186 11.7513 13.423 11.76 13.428C11.7643 13.4306 11.7685 13.4333 11.7726 13.4359C11.7862 13.4445 11.7995 13.4529 11.814 13.459C11.874 13.484 11.938 13.5 12.002 13.5C12.066 13.5 12.129 13.484 12.19 13.459C12.2036 13.4536 12.2158 13.4458 12.2281 13.438C12.234 13.4343 12.2399 13.4305 12.246 13.427C12.2549 13.4216 12.2642 13.4171 12.2736 13.4125C12.2904 13.4042 12.3072 13.3959 12.322 13.383C12.3286 13.3775 12.3334 13.3705 12.3382 13.3635C12.3421 13.3577 12.346 13.352 12.351 13.347C12.3556 13.3424 12.361 13.3391 12.3663 13.3358C12.3727 13.3319 12.3791 13.328 12.384 13.322Z"/></svg>