<svg viewBox="0 0 24 24"><path fill-rule="evenodd" clip-rule="evenodd" d="M12 1.00024C5.925 1.00024 1.00012 5.92512 1.00012 12.0001C1.00012 18.0751 5.925 23 12 23C18.075 23 22.9999 18.0751 22.9999 12.0001C22.9999 5.92512 18.075 1.00024 12 1.00024ZM6.4965 8.77399V17.4297H8.85712V8.77399H6.4965ZM6.3 6.38824C6.3 7.15474 6.91687 7.77649 7.677 7.77649C8.43787 7.77649 9.054 7.15474 9.054 6.38824C9.054 5.62174 8.43712 5.00037 7.677 5.00037C6.91687 5.00037 6.3 5.62174 6.3 6.38824ZM15.9394 17.4297H18.3V12.1111C18.3 7.97749 13.8904 8.12787 12.7916 10.163V8.77399H10.431V17.4297H12.7916V13.0201C12.7916 10.5706 15.9394 10.37 15.9394 13.0201V17.4297Z"/></svg>