<svg viewBox="0 0 24 24"><path fill-rule="evenodd" clip-rule="evenodd" d="M9 12H16.001C18.21 12 20 13.79 20 15.999V22H5V16C5 13.791 6.791 12 9 12ZM15.344 15.5871C14.8358 14.4625 13.7396 13.6806 12.4659 13.6668C11.1923 13.6806 10.0961 14.4625 9.58789 15.5871C9.5662 15.6351 9.52015 15.6667 9.46904 15.6667H8.77143C8.70042 15.6667 8.64286 15.607 8.64286 15.5333V15.4667C8.64286 15.393 8.70042 15.3333 8.77143 15.3333H8.91015C8.9604 15.3333 9.00589 15.3028 9.02782 15.256C9.648 13.9306 10.953 13.0137 12.4659 13.0001C13.9788 13.0137 15.2839 13.9306 15.9041 15.256C15.926 15.3028 15.9715 15.3333 16.0217 15.3333H16.1605C16.2315 15.3333 16.289 15.393 16.289 15.4667V15.5333C16.289 15.607 16.2315 15.6667 16.1605 15.6667H15.4628C15.4117 15.6667 15.3657 15.6351 15.344 15.5871ZM15.9041 18.744C15.2839 20.0694 13.9788 20.9863 12.4659 20.9998C10.953 20.9863 9.648 20.0694 9.02782 18.744C9.00589 18.6971 8.9604 18.6667 8.91015 18.6667H8.77143C8.70042 18.6667 8.64286 18.607 8.64286 18.5333V18.4667C8.64286 18.393 8.70042 18.3333 8.77143 18.3333H9.46904C9.52015 18.3333 9.5662 18.3649 9.58789 18.4128C10.0961 19.5375 11.1923 20.3194 12.4659 20.3331C13.7396 20.3194 14.8358 19.5375 15.344 18.4128C15.3657 18.3649 15.4117 18.3333 15.4628 18.3333H16.1605C16.2315 18.3333 16.289 18.393 16.289 18.4667V18.5333C16.289 18.607 16.2315 18.6667 16.1605 18.6667H16.0217C15.9715 18.6667 15.926 18.6971 15.9041 18.744ZM16.6341 17.6835C15.2589 17.7819 13.8689 17.8325 12.4659 17.8333C11.063 17.8325 9.67295 17.7819 8.29779 17.6835C8.12986 17.6715 8 17.5264 8 17.3519V16.6481C8 16.4735 8.12986 16.3284 8.29779 16.3164C9.67294 16.2181 11.063 16.1675 12.4659 16.1667C13.8689 16.1675 15.2589 16.2181 16.6341 16.3164C16.802 16.3284 16.9319 16.4735 16.9319 16.6481V17.3519C16.9319 17.5264 16.802 17.6715 16.6341 17.6835Z"/><path d="M13.521 10.884C13.193 10.959 12.851 10.999 12.5 11C10.015 11 8 8.985 8 6.5C8 4.015 10.015 2 12.5 2C14.985 2 17 4.015 17 6.5C16.998 7.052 16.899 7.582 16.73 8.04L16.72 8.071C16.4213 8.87113 15.9011 9.5625 15.2222 10.0783C14.7297 10.4636 14.15 10.7437 13.49 10.89L13.521 10.884Z"/></svg>