<svg viewBox="0 0 24 24"><path d="M10.574 12.0071C11.845 12.0071 12.876 10.9761 12.876 9.70511C12.876 8.43411 11.845 7.40311 10.574 7.40311C9.30301 7.40311 8.27201 8.43411 8.27201 9.70511C8.27301 10.9761 9.30301 12.0061 10.574 12.0071ZM14.717 9.70511C14.722 9.77411 14.724 9.85511 14.724 9.93611C14.724 10.8791 14.372 11.7401 13.793 12.3941L13.796 12.3901C12.862 13.4701 11.884 14.4481 10.839 15.3521L10.803 15.3821C10.735 15.4531 10.64 15.4971 10.534 15.4971C10.428 15.4971 10.333 15.4531 10.266 15.3821C8.34801 13.6171 7.27301 12.3891 7.27301 12.3891C6.69801 11.6771 6.33101 10.7761 6.27601 9.79211L6.27501 9.78011C6.27401 9.74111 6.27301 9.69611 6.27301 9.65111C6.27301 7.82711 7.45001 6.27911 9.08501 5.72211L9.11401 5.71311C9.52001 5.57011 9.98901 5.48811 10.477 5.48811C12.81 5.48811 14.702 7.37211 14.716 9.70211V9.70311L14.717 9.70511ZM18.002 10.5031C17.973 6.37011 14.63 3.02711 10.5 2.99811H10.497C6.35801 3.00311 3.00501 6.35911 3.00501 10.4991C3.00501 14.6391 6.35801 17.9951 10.497 18.0001C14.628 17.9721 17.97 14.6331 18.002 10.5061V10.5031ZM8.90101 19.8041C4.33001 19.0541 0.88501 15.1331 0.88501 10.4071C0.88501 5.15111 5.14601 0.891113 10.401 0.891113C15.656 0.891113 19.917 5.15211 19.917 10.4071C19.917 12.5081 19.236 14.4511 18.082 16.0251L18.101 15.9981C17.901 16.2971 17.901 16.4971 18.101 16.7041L22.298 20.9011C22.477 21.0801 22.587 21.3271 22.587 21.5991C22.587 22.1441 22.145 22.5871 21.599 22.5871C21.326 22.5871 21.079 22.4761 20.901 22.2981L16.696 18.1011C16.593 18.0541 16.473 18.0261 16.347 18.0261C16.221 18.0261 16.1 18.0541 15.993 18.1031L15.998 18.1011C14.447 19.2391 12.5 19.9221 10.394 19.9221C9.86701 19.9221 9.34901 19.8791 8.84501 19.7971L8.90001 19.8041H8.90101Z"/></svg>