<svg viewBox="0 0 24 24"><g clip-path="url(#clip0_783_928)"><path d="M24 15L18 21L16 19L18.81 16.5H12.3L11.2 13.5H18.81L16 11L18 9L24 15ZM10.25 4.5C11.493 4.5 12.5 3.493 12.5 2.25C12.5 1.007 11.493 0 10.25 0C9.007 0 8 1.007 8 2.25C8.002 3.492 9.008 4.498 10.25 4.5ZM11.23 16.5L11.04 15.96L10.28 13.87L10.27 13.84L10.14 13.5L9.49 11.71V11.7L9.89 9.89L9.99 9.46L10.88 10.06L11.17 10.25C11.404 10.404 11.691 10.497 11.999 10.5H12C12.169 10.498 12.33 10.469 12.48 10.417L12.47 10.42L15.47 9.42C16.068 9.215 16.491 8.658 16.491 8.002C16.491 7.176 15.821 6.506 14.995 6.506C14.829 6.506 14.669 6.533 14.519 6.583L14.53 6.58L12.22 7.34L11.48 6.85L9.83 5.75C9.701 5.661 9.551 5.592 9.39 5.552L9.38 5.55C9.333 5.532 9.278 5.521 9.221 5.52H9.22C9.164 5.507 9.099 5.499 9.033 5.499C9.021 5.499 9.01 5.499 8.998 5.5H9C8.917 5.502 8.838 5.509 8.76 5.521L8.77 5.52C8.68 5.532 8.599 5.553 8.523 5.582L8.53 5.58C8.508 5.582 8.487 5.589 8.469 5.6H8.47C8.432 5.61 8.399 5.624 8.368 5.641L8.37 5.64H8.35L7.4 5.96L5.53 6.58C5.297 6.65 5.098 6.774 4.941 6.939L4.94 6.94L2.44 9.44C2.17 9.711 2.003 10.085 2.003 10.498C2.003 11.326 2.674 11.997 3.502 11.997C3.915 11.997 4.289 11.83 4.56 11.56L6.81 9.31L6.96 9.26L6.37 11.91L6.58 12.49L6.95 13.5L7.13 14.01L8.19 16.91L8.59 18.01L8.66 18.22L10.408 23.01C10.624 23.592 11.173 23.999 11.818 24C12.001 23.999 12.176 23.966 12.339 23.907L12.328 23.91C12.91 23.695 13.318 23.146 13.318 22.501C13.318 22.318 13.285 22.142 13.225 21.98L13.228 21.99L11.23 16.5ZM5.97 13.73L5.61 15.33L4.67 16.5L1.83 20.06C1.624 20.315 1.499 20.643 1.499 21C1.499 21.828 2.171 22.5 2.999 22.5H3C3.003 22.5 3.006 22.5 3.01 22.5C3.479 22.5 3.896 22.282 4.168 21.943L4.17 21.94L7.46 17.83L6.98 16.5L5.97 13.73ZM4.69 14.89L5 13.5H0V16.5H3.4L4.69 14.89Z"/></g></svg>