<svg viewBox="0 0 24 24"><path fill-rule="evenodd" clip-rule="evenodd" d="M2 1C1.44772 1 1 1.44772 1 2V22C1 22.5523 1.44772 23 2 23H22C22.5523 23 23 22.5523 23 22V2C23 1.44772 22.5523 1 22 1H2ZM13 15.496C13 15.774 13.113 16.026 13.297 16.207L17.004 19.914L20.711 16.207C20.892 16.026 21.004 15.776 21.004 15.5C21.004 14.948 20.556 14.5 20.004 14.5C19.728 14.5 19.478 14.612 19.297 14.793L18.004 16.086L18.004 4H16.004L16.004 16.086L14.711 14.793C14.53 14.61 14.278 14.496 14 14.496C13.448 14.496 13 14.944 13 15.496ZM11.004 8.418C11.004 8.14 10.891 7.888 10.707 7.707L7 4L3.293 7.707C3.112 7.888 3 8.138 3 8.414C3 8.966 3.448 9.414 4 9.414C4.276 9.414 4.526 9.302 4.707 9.121L6 7.828L6 19.914H8L8 7.828L9.293 9.121C9.474 9.304 9.726 9.418 10.004 9.418C10.556 9.418 11.004 8.97 11.004 8.418Z"/></svg>