<svg viewBox="0 0 24 24"><path d="M19 12.091C20.391 12.091 21.668 12.577 22.679 13.384L17.954 2.771H17.945C17.475 1.729 16.432 1 15.214 1C13.627 1 12.328 2.232 12.221 3.792C12.213 3.909 12.117 4 12 4C11.883 4 11.787 3.909 11.779 3.792C11.672 2.232 10.373 1 8.786 1C7.568 1 6.525 1.729 6.055 2.771H6.046L1.321 13.384C2.331 12.577 3.609 12.091 5 12.091C6.843 12.091 8.488 12.942 9.571 14.268C9.666 14.384 10.559 15.449 11.235 16.254C11.634 16.73 12.366 16.73 12.766 16.255C13.427 15.469 14.289 14.443 14.37 14.341C15.452 12.973 17.124 12.091 19 12.091ZM9.184 10C9.597 8.837 10.696 8 12 8C13.304 8 14.403 8.837 14.816 10H9.184ZM5 13C2.239 13 0 15.239 0 18C0 20.761 2.239 23 5 23C7.761 23 10 20.761 10 18C10 15.239 7.761 13 5 13ZM5 21C3.343 21 2 19.657 2 18C2 16.343 3.343 15 5 15C6.657 15 8 16.343 8 18C8 19.657 6.657 21 5 21ZM19 13C16.239 13 14 15.239 14 18C14 20.761 16.239 23 19 23C21.761 23 24 20.761 24 18C24 15.239 21.761 13 19 13ZM19 21C17.343 21 16 19.657 16 18C16 16.343 17.343 15 19 15C20.657 15 22 16.343 22 18C22 19.657 20.657 21 19 21Z"/></svg>