<svg viewBox="0 0 24 24"><path d="M12 1C5.925 1 1 5.925 1 12C1 18.075 5.925 23 12 23C18.075 23 23 18.075 23 12C23 11.998 23 11.996 23 11.994C23 5.922 18.078 1 12.006 1C12.004 1 12.002 1 11.999 1H12ZM15.5 7C16.605 7 17.5 7.895 17.5 9C17.5 10.105 16.605 11 15.5 11C14.395 11 13.5 10.105 13.5 9C13.503 7.897 14.397 7.003 15.5 7ZM8.5 7C9.605 7 10.5 7.895 10.5 9C10.5 10.105 9.605 11 8.5 11C7.395 11 6.5 10.105 6.5 9C6.503 7.897 7.397 7.003 8.5 7ZM17.78 17.63C17.595 17.859 17.315 18.004 17 18.004C16.76 18.004 16.54 17.92 16.368 17.779L16.37 17.78C15.182 16.827 13.656 16.25 11.995 16.25C10.334 16.25 8.808 16.827 7.606 17.791L7.62 17.78C7.455 17.917 7.241 18 7.008 18C7.005 18 7.002 18 7 18C6.448 17.996 6.003 17.548 6.003 16.996C6.003 16.684 6.145 16.405 6.369 16.221L6.371 16.22C7.9 14.993 9.864 14.25 12.001 14.25C14.138 14.25 16.102 14.993 17.649 16.234L17.631 16.22C17.86 16.405 18.004 16.685 18.004 17C18.004 17.24 17.92 17.46 17.779 17.632L17.78 17.63Z"/></svg>