<svg viewBox="0 0 24 24"><path fill-rule="evenodd" clip-rule="evenodd" d="M1 12C1 5.925 5.925 1 12 1C18.075 1 23 5.925 23 12C23 18.075 18.075 23 12 23C5.925 23 1 18.075 1 12ZM15.063 13.089L17.176 4.615C17.293 4.145 16.74 3.799 16.369 4.111L9.678 9.725C9.312 10.032 9.052 10.447 8.937 10.911L6.824 19.385C6.707 19.855 7.26 20.2 7.631 19.889L14.322 14.275C14.688 13.968 14.947 13.553 15.063 13.089ZM13.5 12C13.5 12.8284 12.8284 13.5 12 13.5C11.1716 13.5 10.5 12.8284 10.5 12C10.5 11.1716 11.1716 10.5 12 10.5C12.8284 10.5 13.5 11.1716 13.5 12Z"/></svg>