<svg viewBox="0 0 24 24"><g clip-path="url(#clip0_783_887)"><path d="M18.24 20.23C18.241 20.254 18.241 20.282 18.241 20.311C18.241 22.438 16.517 24.162 14.39 24.162C12.263 24.162 10.539 22.438 10.539 20.311C10.539 18.184 12.263 16.46 14.39 16.46C14.396 16.46 14.404 16.46 14.411 16.46C16.505 16.46 18.206 18.141 18.24 20.227V20.23ZM23.62 12.5C23.51 11.763 22.979 11.175 22.283 10.983L22.27 10.98C20.504 10.395 18.421 9.93098 16.275 9.67498L16.12 9.65998C15.408 9.57698 14.7 9.49098 14.009 9.40498L17.48 5.93398L23.164 4.98698C23.641 4.90498 24 4.49498 24 4.00098C24 3.44898 23.552 3.00098 23 3.00098C22.942 3.00098 22.885 3.00598 22.83 3.01498L22.836 3.01398L16.836 4.01398C16.622 4.04998 16.436 4.14998 16.293 4.29298L11.56 9.02598C10.257 8.30398 8.957 7.74498 7.47 7.01998C5.51 6.12998 3.034 5.19598 0.495 4.40298L0 4.26998V6.92998C2.446 7.69898 4.472 8.49998 6.431 9.42098L6.12 9.28998C7.243 9.76698 8.192 10.269 9.094 10.84L9.01 10.79H0V20.23H8.63C8.63 20.212 8.63 20.191 8.63 20.17C8.63 17.071 11.142 14.558 14.242 14.558C14.294 14.558 14.346 14.559 14.398 14.56H14.39C14.434 14.559 14.486 14.558 14.539 14.558C17.638 14.558 20.151 17.07 20.151 20.17C20.151 20.191 20.151 20.212 20.151 20.233V20.23H22.081C22.085 20.23 22.09 20.23 22.094 20.23C23.141 20.23 23.991 19.386 24.001 18.341V18.34C24.001 16.83 23.811 14.75 23.621 12.5H23.62Z"/></g></svg>