<svg viewBox="0 0 24 24"><g clip-path="url(#clip0_783_883)"><path d="M1.5 13.5001C1.502 7.84312 5.981 3.23312 11.587 3.02012L11.606 3.01912L10.293 1.70612C10.109 1.52512 9.996 1.27312 9.996 0.995117C9.996 0.443117 10.444 -0.00488281 10.996 -0.00488281C11.274 -0.00488281 11.526 0.109117 11.707 0.292117L15.414 3.99912L11.707 7.70612C11.526 7.88912 11.275 8.00212 10.997 8.00212C10.445 8.00212 9.997 7.55412 9.997 7.00212C9.997 6.72412 10.11 6.47312 10.293 6.29212L11.564 5.02112C7.074 5.26612 3.527 8.96712 3.527 13.4961C3.527 18.1831 7.327 21.9831 12.014 21.9831C16.701 21.9831 20.501 18.1831 20.501 13.4961C20.501 10.5081 18.957 7.88112 16.624 6.36912L16.591 6.34912L18.031 4.91912C20.742 6.84212 22.49 9.96912 22.49 13.5041C22.49 19.3001 17.791 23.9991 11.995 23.9991C6.199 23.9991 1.5 19.3001 1.5 13.5041C1.5 13.5021 1.5 13.5001 1.5 13.4981V13.5001ZM16.949 9.96512C16.768 9.78412 16.518 9.67212 16.242 9.67212C15.966 9.67212 15.716 9.78412 15.535 9.96512L10.586 14.9141L8.465 12.7931C8.285 12.6151 8.036 12.5051 7.762 12.5051C7.21 12.5051 6.762 12.9531 6.762 13.5051C6.762 13.7791 6.872 14.0271 7.051 14.2081L9.879 17.0361C10.06 17.2171 10.31 17.3291 10.586 17.3291C10.862 17.3291 11.112 17.2171 11.293 17.0361L16.949 11.3801C17.13 11.1991 17.242 10.9491 17.242 10.6731C17.242 10.3971 17.13 10.1471 16.949 9.96612V9.96512Z"/></g></svg>