<svg viewBox="0 0 24 24"><g clip-path="url(#clip0_783_903)"><path d="M20 0V16C20 16.012 20 16.027 20 16.042C20 17.722 18.638 19.084 16.958 19.084C15.278 19.084 13.916 17.722 13.916 16.042C13.916 14.362 15.278 13 16.958 13C17.332 13 17.69 13.067 18.021 13.191L18 13.184V5L10 9V21C10 21.012 10 21.027 10 21.042C10 22.722 8.63802 24.084 6.95802 24.084C5.27802 24.084 3.91602 22.722 3.91602 21.042C3.91602 19.362 5.27802 18 6.95802 18C7.33202 18 7.69002 18.067 8.02102 18.191L8.00002 18.184V6L20 0Z"/></g></svg>