<svg viewBox="0 0 24 24"><path fill-rule="evenodd" clip-rule="evenodd" d="M12.0001 5V10.974L5.45508 3.174C7.28508 1.814 9.54508 1 12.0001 1C18.0751 1 23.0001 5.925 23.0001 12C23.0001 15.145 21.6731 17.975 19.5561 19.98L13.3001 12.524V6.824L15.1321 9.007C15.2611 9.16 15.4451 9.239 15.6311 9.239C15.7781 9.239 15.9261 9.189 16.0481 9.087C16.3231 8.856 16.3581 8.446 16.1281 8.171L13.1491 4.62C12.9181 4.346 12.5091 4.31 12.2331 4.54C12.0901 4.66 12.0151 4.828 12.0051 5H12.0001ZM1 12.0001C1 8.84806 2.333 6.01306 4.457 4.00806L18.56 20.8151C16.727 22.1811 14.462 23.0001 12 23.0001C5.925 23.0001 1 18.0751 1 12.0001ZM7.077 17.1911C7.448 18.3341 9.058 18.8351 10.672 18.3101C11.78 17.9501 12.589 17.1981 12.876 16.3941L10.853 13.9831C10.372 13.9511 9.853 14.0031 9.328 14.1731C7.714 14.6971 6.706 16.0491 7.077 17.1911Z"/></svg>