<svg viewBox="0 0 24 24"><path d="M14.2922 9H11.0002V3.5C11.0002 2.672 10.3282 2 9.50023 2C8.67223 2 8.00023 2.672 8.00023 3.5V14.791C8.00023 15.293 7.34223 15.482 7.07623 15.056L6.46423 14.077C5.87923 13.14 4.64523 12.855 3.70823 13.441L2.86023 13.971L7.91423 22.06C8.28023 22.645 8.92123 23 9.61123 23H15.9462C16.6362 23 17.2772 22.645 17.6422 22.06L19.5442 19.016C19.8422 18.539 20.0002 17.988 20.0002 17.426V12.736C20.0002 11.978 19.5722 11.286 18.8942 10.947L15.6332 9.317C15.2172 9.108 14.7582 9 14.2922 9Z"/></svg>