<svg viewBox="0 0 24 24"><path d="M18 1C18 0.448 17.552 0 17 0H7C6.448 0 6 0.448 6 1V2H18V1ZM20 4C20 3.448 19.552 3 19 3H5C4.448 3 4 3.448 4 4V5H20V4ZM21 6H3C2.448 6 2 6.448 2 7V22C2 22.552 2.448 23 3 23H21C21.552 23 22 22.552 22 22V7C22 6.448 21.552 6 21 6ZM15.848 15.687C14.761 16.774 13.175 17.05 11.829 16.524L8.691 19.662C8.496 19.857 8.179 19.857 7.984 19.662L6.57 18.248C6.375 18.053 6.375 17.736 6.57 17.541L9.708 14.403C9.182 13.058 9.458 11.471 10.545 10.384C11.56 9.369 13.008 9.075 14.291 9.466L11.892 11.865L12.415 13.817L14.367 14.34L16.766 11.941C17.158 13.225 16.863 14.672 15.848 15.687Z"/></svg>