<svg viewBox="0 0 24 24"><path d="M16.5 6.00005C16.499 6.00005 16.497 6.00005 16.495 6.00005C12.964 6.00005 10.092 8.82105 10.01 12.332V12.34C10.003 12.38 10 12.426 10 12.473C10 12.482 10 12.492 10 12.501V12.5C10 16.09 12.91 19 16.5 19C20.09 19 23 16.09 23 12.5C23 8.91005 20.09 6.00005 16.5 6.00005ZM15 12.5C14.999 12.632 14.98 12.759 14.948 12.881L14.95 12.87L17.11 14.3C17.351 14.113 17.659 14 17.992 14C17.995 14 17.998 14 18 14C18.005 14 18.011 14 18.017 14C18.855 14 19.534 14.679 19.534 15.517C19.534 16.355 18.855 17.034 18.017 17.034C17.179 17.034 16.5 16.355 16.5 15.517C16.5 15.38 16.518 15.246 16.553 15.12L16.551 15.131L14.391 13.701C14.15 13.888 13.842 14.001 13.509 14.001C13.506 14.001 13.503 14.001 13.501 14.001C12.673 14.001 12.001 13.329 12.001 12.501C12.001 11.673 12.673 11.001 13.501 11.001C13.503 11.001 13.506 11.001 13.509 11.001C13.843 11.001 14.15 11.114 14.394 11.303L14.391 11.301L16.551 9.87105C16.522 9.76105 16.505 9.63405 16.505 9.50305C16.505 8.67605 17.176 8.00505 18.003 8.00505C18.83 8.00505 19.501 8.67605 19.501 9.50305C19.501 10.33 18.83 11.001 18.003 11.001C18.002 11.001 18.002 11.001 18.001 11.001C17.999 11.001 17.996 11.001 17.993 11.001C17.659 11.001 17.352 10.888 17.108 10.699L17.111 10.701L14.951 12.131C14.982 12.242 15 12.369 15.001 12.5V12.501L15 12.5ZM12 6.52005V1.50005C12.001 1.48305 12.002 1.46305 12.002 1.44305C12.002 0.921047 11.579 0.498047 11.057 0.498047C11.037 0.498047 11.017 0.499047 10.997 0.500047H11H2C1.448 0.501047 1.001 0.948047 1 1.50005V9.50005C1 9.51605 1 9.53505 1 9.55405C1 11.181 2.319 12.5 3.946 12.5C3.965 12.5 3.984 12.5 4.003 12.499H4V22.499C3.999 22.516 3.998 22.536 3.998 22.556C3.998 23.078 4.421 23.501 4.943 23.501C4.963 23.501 4.983 23.5 5.003 23.499H5H8C8.552 23.498 8.999 23.051 9 22.499V12.499C9 12.495 9 12.49 9 12.485C9 10.05 10.171 7.88805 11.981 6.53205L12 6.51805V6.52005ZM7.5 22H5.5V12.5H7.5V22ZM9 4.00005C9.001 4.00905 9.001 4.01805 9.001 4.02805C9.001 4.28905 8.79 4.50005 8.529 4.50005C8.519 4.50005 8.509 4.50005 8.499 4.49905H8.5H4.5C4.491 4.50005 4.482 4.50005 4.472 4.50005C4.211 4.50005 4 4.28805 4 4.02805C4 4.01805 4 4.00805 4.001 3.99805V3.99905V2.99905C4 2.99005 4 2.98105 4 2.97105C4 2.71005 4.211 2.49905 4.472 2.49905C4.482 2.49905 4.492 2.49905 4.502 2.50005H4.501H8.501C8.51 2.49905 8.519 2.49905 8.529 2.49905C8.79 2.49905 9.001 2.71105 9.001 2.97105C9.001 2.98105 9.001 2.99105 9 3.00105V3.00005V4.00005Z"/></svg>