<svg viewBox="0 0 24 24"><path fill-rule="evenodd" clip-rule="evenodd" d="M16.4659 4.42326L24 11.9984L16.4659 19.5728C15.9019 20.1398 14.9877 20.1398 14.4237 19.5728C13.8597 19.0059 13.8597 18.0868 14.4237 17.5199L19.9156 11.9991L14.423 6.47694C13.859 5.90926 13.859 4.99022 14.423 4.42326C14.9877 3.85631 15.9019 3.85631 16.4659 4.42326ZM7.53408 4.42326L0 11.9984L7.53407 19.5728C8.09807 20.1398 9.01229 20.1398 9.57628 19.5728C10.1403 19.0059 10.1403 18.0868 9.57628 17.5199L4.08442 11.9991L9.57701 6.47694C10.141 5.90926 10.141 4.99022 9.57701 4.42326C9.01229 3.85631 8.09807 3.85631 7.53408 4.42326Z"/></svg>