<svg viewBox="0 0 24 24"><path d="M24 9V15C23.998 15.552 23.552 15.998 23 16H21V19H16V18H20V7H21V8H23C23.552 8.002 23.998 8.448 24 9ZM19 6H18V17H19V6ZM17 5H16V17H17V5ZM15 3V21C14.998 21.552 14.552 21.998 14 22H1C0.448 21.998 0.002 21.552 0 21V3C0.002 2.448 0.448 2.002 1 2H14C14.552 2.002 14.998 2.448 15 3ZM11 15.5C11 13.015 8.985 11 6.5 11C4.015 11 2 13.015 2 15.5C2 17.985 4.015 20 6.5 20C6.502 20 6.504 20 6.506 20C8.988 20 11 17.988 11 15.506C11 15.504 11 15.502 11 15.5ZM13 6.5C13 5.119 11.881 4 10.5 4C9.119 4 8 5.119 8 6.5C8 7.881 9.119 9 10.5 9C11.88 8.999 12.999 7.881 13 6.5ZM10.5 5C9.672 5 9 5.672 9 6.5C9 7.328 9.672 8 10.5 8C11.328 8 12 7.328 12 6.5C12 6.499 12 6.499 12 6.498C12 5.671 11.329 5 10.502 5C10.501 5 10.501 5 10.5 5ZM6.5 12C4.567 12 3 13.567 3 15.5C3 17.433 4.567 19 6.5 19C8.433 19 10 17.433 10 15.5C9.998 13.568 8.432 12.002 6.5 12Z"/></svg>