<svg viewBox="0 0 24 24"><path d="M13.32 13.95C13.226 13.981 13.118 13.999 13.005 13.999C12.727 13.999 12.475 13.889 12.29 13.709L10.73 12.139L5.32 13.949C5.225 13.982 5.117 14 5.003 14C4.776 14 4.566 13.924 4.397 13.797L4.4 13.799L3 12.749V22.959C3.003 23.532 3.467 23.996 4.04 23.999H19.96C20.533 23.996 20.997 23.532 21 22.959V13.749L18.82 12.109L13.32 13.95ZM18 21H6V20H18V21ZM18 17H6V16H18V17ZM19.96 0H4.04C3.467 0.003 3.003 0.467 3 1.04V10.25L5.18 11.89L10.68 10.05C10.774 10.019 10.882 10.001 10.995 10.001C11.273 10.001 11.525 10.111 11.71 10.291L13.27 11.861L18.68 10.051C18.776 10.017 18.886 9.997 19.001 9.997C19.228 9.997 19.436 10.074 19.602 10.203L19.6 10.201L21 11.251V1.041C20.997 0.468 20.533 0.004 19.96 0.001V0ZM18 8H6V7H18V8ZM18 4H6V3H18V4Z"/></svg>