<svg viewBox="0 0 24 24"><path d="M15.856 18L7.196 23H21C21.552 23 22 22.552 22 22V19C22 18.448 21.552 18 21 18H15.856ZM8.112 21.316L20.055 14.421C20.533 14.145 20.697 13.533 20.421 13.055L18.921 10.457C18.645 9.979 18.033 9.815 17.555 10.091L13.112 12.656L8.112 21.316ZM10.631 4.953L8 9.511V19.511L14.961 7.453C15.237 6.975 15.073 6.363 14.595 6.087L11.997 4.587C11.519 4.311 10.907 4.475 10.631 4.953ZM2 20.5C2 21.881 3.119 23 4.5 23C5.881 23 7 21.881 7 20.5V4C7 3.448 6.552 3 6 3H3C2.448 3 2 3.448 2 4V20.5Z"/></svg>