<svg viewBox="0 0 24 24"><g clip-path="url(#clip0_783_820)"><path d="M23.28 10.51H22.21C21.864 10.524 21.577 10.763 21.491 11.085L21.49 11.09L19.91 8.58002C19.55 7.98902 18.919 7.59402 18.193 7.57002H18.19C18.137 7.56302 18.077 7.56002 18.015 7.56002C18.003 7.56002 17.99 7.56002 17.978 7.56002H17.98C17.5 7.52002 17.02 7.51002 16.55 7.51002C16.527 7.50502 16.502 7.50302 16.475 7.50302C16.448 7.50302 16.423 7.50602 16.398 7.51102H16.4C16.06 7.50102 15.73 7.50102 15.39 7.50102C14.45 7.50102 13.52 7.50102 12.59 7.57102C11.866 7.62402 11.243 8.00902 10.865 8.57302L10.86 8.58102L9.28002 11.091C9.22402 10.76 8.93902 10.51 8.59602 10.51C8.58702 10.51 8.57702 10.51 8.56802 10.511H8.56902H7.48902C7.47702 10.51 7.46402 10.51 7.45002 10.51C7.07302 10.51 6.76802 10.815 6.76802 11.192C6.76802 11.206 6.76802 11.219 6.76902 11.233V11.231V11.951C6.76802 11.963 6.76802 11.976 6.76802 11.99C6.76802 12.367 7.07302 12.672 7.45002 12.672C7.46402 12.672 7.47702 12.672 7.49102 12.671H7.48902H7.84902L7.72902 12.971C7.70902 13.031 7.69902 13.081 7.67902 13.141C7.64202 13.237 7.61102 13.352 7.59102 13.47L7.58902 13.481C7.57202 13.543 7.55802 13.618 7.55002 13.695L7.54902 13.701C7.53002 13.767 7.51902 13.843 7.51902 13.921C7.50802 14 7.50102 14.094 7.49902 14.189V14.191C7.49202 14.24 7.48802 14.297 7.48802 14.354C7.48802 14.367 7.48802 14.38 7.48902 14.392V14.39V21.28C7.48802 21.292 7.48802 21.305 7.48802 21.319C7.48802 21.696 7.79402 22.001 8.17002 22.001C8.18402 22.001 8.19702 22.001 8.21102 22H8.20902H9.63902C9.65102 22.001 9.66402 22.001 9.67802 22.001C10.055 22.001 10.36 21.695 10.36 21.319C10.36 21.305 10.36 21.292 10.359 21.278V21.28V19.63C12.009 19.77 13.659 19.85 15.389 19.85C17.109 19.85 18.759 19.77 20.409 19.63V21.28C20.408 21.292 20.408 21.305 20.408 21.319C20.408 21.696 20.714 22.001 21.09 22.001C21.104 22.001 21.117 22.001 21.131 22H21.129H22.559C22.572 22.001 22.588 22.001 22.603 22.001C22.977 22.001 23.28 21.698 23.28 21.324C23.28 21.308 23.279 21.293 23.278 21.278V21.28V14.39C23.278 14.38 23.278 14.368 23.278 14.357C23.278 14.298 23.274 14.24 23.267 14.184L23.268 14.191C23.266 14.108 23.259 14.029 23.247 13.951L23.248 13.961C23.238 13.881 23.228 13.801 23.208 13.711C23.143 13.319 23.042 12.97 22.906 12.638L22.918 12.671H23.278C23.29 12.672 23.303 12.672 23.317 12.672C23.694 12.672 23.999 12.367 23.999 11.99C23.999 11.976 23.999 11.963 23.998 11.949V11.951V11.231C23.996 10.834 23.675 10.513 23.278 10.511L23.28 10.51ZM11.73 9.15002C11.915 8.86002 12.228 8.66702 12.588 8.65002H12.59C13.52 8.58002 14.45 8.58002 15.31 8.58002C16.17 8.58002 17.15 8.58002 18 8.65002H18.04C18.402 8.66702 18.715 8.86002 18.897 9.14602L18.9 9.15002L20.48 11.66C19.4 11.8 18.33 11.88 17.25 11.92C16.6 11.94 15.96 11.95 15.31 11.95H15C14.61 11.95 14.22 11.94 13.83 11.93C12.501 11.902 11.227 11.805 9.97402 11.641L10.15 11.66L11.73 9.15002ZM16.89 16.26H13.88C13.628 16.256 13.411 16.113 13.302 15.904L13.3 15.9L12.01 13.82C12.3 13.82 12.59 13.89 12.87 13.89L13.81 15.32C13.882 15.398 13.979 15.452 14.087 15.47H14.09H16.75C16.869 15.469 16.974 15.41 17.039 15.321L17.04 15.32L17.25 15L17.97 13.89C18.002 13.891 18.039 13.892 18.076 13.892C18.318 13.892 18.554 13.866 18.781 13.816L18.759 13.82L17.469 15.9C17.408 15.989 17.335 16.065 17.251 16.128L17.249 16.13C17.151 16.208 17.026 16.256 16.89 16.26H16.889H16.89ZM22.42 14.18L22.35 14.25C22.186 14.493 21.967 14.687 21.71 14.816L21.7 14.82C21.154 15.062 20.519 15.217 19.852 15.25H19.84L18.11 18.05C17.993 18.253 17.784 18.391 17.542 18.41H17.54H13.23H13.229C12.979 18.41 12.763 18.265 12.661 18.054L12.659 18.05L11.869 16.76L10.939 15.25C10.248 15.181 9.61502 15.029 9.01702 14.803L9.06902 14.82C8.79002 14.706 8.56602 14.508 8.42202 14.256L8.41902 14.25L8.34902 14.18C8.27902 14.03 8.20902 13.96 8.20902 13.82V13.46C8.21102 13.287 8.35102 13.148 8.52402 13.148C8.56602 13.148 8.60502 13.156 8.64102 13.171L8.63902 13.17C9.17802 13.452 9.80602 13.656 10.469 13.747L10.499 13.75C10.5 13.75 10.501 13.75 10.502 13.75C10.732 13.75 10.929 13.894 11.008 14.096L11.009 14.1L12.619 16.72L13.089 17.48C13.166 17.553 13.265 17.604 13.376 17.62H13.379H17.319C17.319 17.62 17.319 17.62 17.32 17.62C17.437 17.62 17.541 17.566 17.609 17.481L17.61 17.48L19.69 14.1C19.809 13.927 19.987 13.801 20.194 13.751L20.2 13.75C20.893 13.656 21.521 13.452 22.092 13.155L22.06 13.17C22.094 13.156 22.134 13.148 22.175 13.148C22.348 13.148 22.488 13.287 22.49 13.46V13.82H22.56C22.555 13.958 22.503 14.083 22.419 14.181L22.42 14.18ZM5.77002 11.95V11.23C5.77002 11.219 5.77002 11.206 5.77002 11.192C5.77002 10.263 6.52302 9.50902 7.45302 9.50902C7.46602 9.50902 7.47902 9.50902 7.49202 9.50902H7.49002H8.57002C8.57402 9.50902 8.57802 9.50902 8.58202 9.50902C8.74802 9.50902 8.91002 9.53102 9.06302 9.57202L9.05002 9.56902L10.01 8.04902C10.291 7.60902 10.668 7.25402 11.114 7.00702L11.13 6.99902H2.77002C2.77302 6.88902 2.80202 6.78602 2.85202 6.69602L2.85002 6.69902C3.00002 5.64902 3.15002 4.59902 3.38002 3.54902C3.45002 3.32902 3.60002 3.17902 3.75002 3.17902C5.25902 2.98702 7.00602 2.87802 8.77802 2.87802C8.88402 2.87802 8.99002 2.87802 9.09602 2.87902H9.08002C10.73 2.87902 12.45 2.94902 14.17 3.09902C14.177 3.09802 14.185 3.09802 14.194 3.09802C14.391 3.09802 14.551 3.25802 14.551 3.45502C14.551 3.46302 14.551 3.47202 14.55 3.48002V3.47902C14.76 4.48902 14.92 5.48902 15.06 6.49902H15.39C15.68 6.49902 15.97 6.49902 16.27 6.50902C16.11 5.46902 15.9 4.36902 15.67 3.32902C15.53 2.63902 14.96 2.11602 14.256 2.05002H14.25C12.53 1.90002 10.8 1.75002 9.08002 1.75002C9.00702 1.75002 8.92202 1.74902 8.83602 1.74902C6.99102 1.74902 5.17202 1.85802 3.38402 2.07102L3.60002 2.05002C2.90802 2.12102 2.35802 2.64802 2.25102 3.32102L2.25002 3.33002C2.03002 4.38002 1.88002 5.43002 1.73002 6.48002C1.65002 7.08002 1.57002 7.68002 1.50002 8.20002V6.62002C1.50002 6.61502 1.50002 6.60902 1.50002 6.60302C1.50002 6.40702 1.34102 6.24902 1.14602 6.24902C1.13702 6.24902 1.12802 6.24902 1.11902 6.25002H1.12002H0.370023C0.364023 6.25002 0.358023 6.24902 0.351023 6.24902C0.157023 6.24902 -0.000976562 6.40602 -0.000976562 6.60102C-0.000976562 6.60802 -0.000976562 6.61402 2.34375e-05 6.62102V6.62002V8.88002C2.34375e-05 8.88602 2.34375e-05 8.89202 2.34375e-05 8.89902C2.34375e-05 9.09302 0.157023 9.25102 0.352023 9.25102C0.359023 9.25102 0.365023 9.25102 0.372023 9.25002H0.371023H1.05102C0.882023 9.69302 0.773023 10.206 0.751023 10.74V10.75V18.25C0.750023 18.263 0.750023 18.278 0.750023 18.293C0.750023 18.684 1.06702 19.002 1.45902 19.002C1.47402 19.002 1.48902 19.002 1.50402 19.001H1.50202H3.00202C3.01502 19.002 3.03002 19.002 3.04502 19.002C3.43602 19.002 3.75402 18.685 3.75402 18.293C3.75402 18.278 3.75402 18.263 3.75302 18.248V18.25V16.6C4.66302 16.68 5.57302 16.74 6.49302 16.78V14.39C6.49302 14.384 6.49302 14.378 6.49302 14.371C6.49302 14.038 6.52602 13.713 6.58802 13.398L6.58302 13.43C6.09402 13.123 5.77302 12.587 5.77302 11.976C5.77302 11.967 5.77302 11.958 5.77302 11.949V11.95H5.77002ZM4.27002 11.88H4.20002C4.20002 11.883 4.20002 11.885 4.20002 11.888C4.20002 12.092 4.03402 12.258 3.83002 12.258C3.80202 12.258 3.77402 12.255 3.74802 12.249H3.75002C2.95102 12.095 2.24402 11.78 1.63502 11.338L1.65002 11.349C1.52002 11.239 1.43402 11.08 1.42002 10.901V10.899C1.41902 10.871 1.41802 10.837 1.41802 10.803C1.41802 10.225 1.59002 9.68702 1.88602 9.23802L1.87902 9.24902C1.95202 9.06902 2.12502 8.94402 2.32802 8.94402C2.35302 8.94402 2.37802 8.94602 2.40202 8.95002H2.39902H2.47902C2.62902 8.95002 2.69902 9.03002 2.84902 9.18002C3.22202 9.63602 3.64302 10.031 4.10902 10.367L4.12902 10.38C4.21502 10.448 4.26902 10.552 4.26902 10.669V10.67L4.27002 11.88Z"/></g></svg>