<svg viewBox="0 0 24 24"><path d="M20.131 3.879C18.441 3.656 16.728 3.504 15 3.411V2C15 0.895 14.105 0 13 0H10C8.895 0 8 0.895 8 2V3.411C6.272 3.504 4.559 3.656 2.869 3.879C2.371 3.945 2 4.376 2 4.879V7H3V21C3 22.105 3.895 23 5 23H18C19.105 23 20 22.105 20 21V7H21V4.879C21 4.376 20.629 3.945 20.131 3.879ZM7.3 20H6V8H7.3V20ZM12.15 20H10.85V8H12.15V20ZM13.5 3.344C12.835 3.324 12.17 3.307 11.5 3.307C10.83 3.307 10.165 3.323 9.5 3.344V2C9.5 1.724 9.724 1.5 10 1.5H13C13.276 1.5 13.5 1.724 13.5 2V3.344ZM17 20H15.7V8H17V20Z"/></svg>