<svg viewBox="0 0 24 24"><g clip-path="url(#clip0_783_818)"><path d="M18.0401 20.23C18.0401 20.253 18.0411 20.279 18.0411 20.306C18.0411 22.43 16.3191 24.152 14.1951 24.152C12.0711 24.152 10.3491 22.43 10.3491 20.306C10.3491 18.182 12.0711 16.46 14.1951 16.46C14.1971 16.46 14.1991 16.46 14.2001 16.46C14.2061 16.46 14.2131 16.46 14.2201 16.46C16.3121 16.46 18.0121 18.142 18.0401 20.227V20.23ZM12.4701 8.14998C12.7851 7.96098 13.0441 7.70898 13.2341 7.40898L13.2401 7.39998C14.6121 7.09298 16.3141 6.82498 18.0451 6.65498L18.2301 6.63998C19.4321 6.52098 20.8271 6.45298 22.2391 6.45298C22.5211 6.45298 22.8021 6.45598 23.0821 6.46098L23.0401 6.45998H24.0001V3.99998H23.2301C22.9821 3.99498 22.6901 3.99198 22.3981 3.99198C20.9301 3.99198 19.4801 4.06398 18.0491 4.20398L18.2301 4.18998C15.7721 4.41998 13.5461 4.80398 11.3811 5.34398L11.6931 5.27798L7.70808 1.29298C7.56508 1.14998 7.37908 1.04998 7.17108 1.01498L7.16508 1.01398L1.16508 0.0139766C1.11708 0.00597656 1.06308 0.000976562 1.00708 0.000976562C0.45508 0.000976562 0.00708008 0.448977 0.00708008 1.00098C0.00708008 1.49298 0.36308 1.90198 0.83108 1.98498L0.83708 1.98598L6.52108 2.93298L10.3321 6.74398C9.35808 7.43898 8.50708 8.23898 7.67108 8.89898C7.31108 9.28098 7.09008 9.79698 7.09008 10.364C7.09008 10.383 7.09008 10.402 7.09108 10.422V10.419V12.299C7.08308 12.73 6.93808 13.125 6.69708 13.444L6.70108 13.439L5.74108 14.559C5.49308 14.807 5.34008 15.15 5.34008 15.528C5.34008 15.588 5.34408 15.647 5.35108 15.705L5.35008 15.698V17.768C4.59008 18.708 5.16008 19.478 6.12008 19.658C6.80708 19.88 7.59908 20.017 8.41908 20.038H8.43008C8.55308 16.985 11.0581 14.558 14.1301 14.558C14.1551 14.558 14.1791 14.558 14.2041 14.558H14.2001C14.2441 14.557 14.2961 14.556 14.3491 14.556C17.4481 14.556 19.9611 17.068 19.9611 20.168C19.9611 20.189 19.9611 20.21 19.9611 20.231V20.228H24.0011V10.788H14.2011L12.4711 9.65798C11.9011 9.47798 11.9011 8.51798 12.4711 8.14798L12.4701 8.14998Z"/></g></svg>