<svg viewBox="0 0 24 24"><path d="M23.5 6H22.507C22.231 6 22.007 6.224 22.007 6.5V8.623C21.911 7.876 21.805 7.112 21.685 6.301C21.471 4.863 21.219 3.441 20.933 2.032C20.75 1.131 19.996 0.447 19.082 0.355C16.795 0.124 14.488 0 12.161 0C9.72 0 7.301 0.134 4.904 0.386C3.993 0.482 3.243 1.166 3.061 2.064C2.778 3.462 2.527 4.874 2.315 6.301C2.194 7.112 2.089 7.876 1.993 8.622V6.5C1.993 6.224 1.769 6 1.493 6H0.5C0.224 6 0 6.224 0 6.5V9.49C0 9.766 0.224 9.99 0.5 9.99H1.362C1.132 10.634 1 11.31 1 12V22C1 22.552 1.448 23 2 23H4C4.552 23 5 22.552 5 22V19.807C7.306 20.021 9.638 20.143 12 20.143C14.362 20.143 16.694 20.021 19 19.807V22C19 22.552 19.448 23 20 23H22C22.552 23 23 22.552 23 22V12C23 11.31 22.868 10.634 22.638 9.991H23.5C23.776 9.991 24 9.767 24 9.491V6.5C24 6.224 23.776 6 23.5 6ZM3.799 6.521C4.001 5.16 4.248 3.761 4.531 2.362C4.583 2.104 4.801 1.905 5.06 1.878C7.448 1.627 9.837 1.5 12.161 1.5C14.367 1.5 16.645 1.617 18.932 1.847C19.192 1.873 19.411 2.072 19.463 2.33C19.748 3.736 19.997 5.146 20.201 6.521C20.225 6.683 20.247 6.84 20.27 7H3.73C3.753 6.84 3.775 6.683 3.799 6.521ZM5.611 13.37C5.611 13.698 5.301 13.936 4.983 13.854C2.978 13.337 2.175 12.614 2.175 12.614C2.01 12.458 1.911 12.239 1.911 12.002V12C1.911 11.014 2.231 10.223 2.47 9.769C2.604 9.513 2.881 9.367 3.168 9.4C3.201 9.404 3.234 9.407 3.267 9.411C3.448 9.431 3.614 9.521 3.728 9.662C4.224 10.275 4.791 10.826 5.418 11.305C5.538 11.397 5.611 11.538 5.611 11.689V13.37ZM16.063 16.654C15.996 16.861 15.804 17 15.587 17H8.413C8.196 17 8.004 16.861 7.937 16.654L6.41 11.953C6.768 11.979 7.126 12.006 7.486 12.028L8.776 16H15.224L16.515 12.028C16.875 12.007 17.233 11.98 17.591 11.953L16.063 16.654ZM22.089 12.002C22.089 12.238 21.99 12.458 21.825 12.614C21.825 12.614 21.022 13.338 19.017 13.854C18.699 13.936 18.389 13.698 18.389 13.37V11.688C18.389 11.537 18.462 11.396 18.582 11.304C19.209 10.825 19.776 10.274 20.272 9.661C20.386 9.52 20.553 9.43 20.733 9.41C20.766 9.406 20.799 9.403 20.832 9.399C21.119 9.367 21.396 9.512 21.53 9.768C21.769 10.222 22.089 11.014 22.089 11.999V12.002Z"/></svg>