<svg viewBox="0 0 24 24"><g clip-path="url(#clip0_783_826)"><path d="M17.09 12.41C17.717 11.783 18.105 10.917 18.105 9.96005C18.105 8.04605 16.554 6.49505 14.64 6.49505C13.683 6.49505 12.817 6.88305 12.19 7.51005L12 7.70005L11.81 7.51005C11.183 6.88305 10.317 6.49505 9.36005 6.49505C7.44605 6.49505 5.89505 8.04605 5.89505 9.96005C5.89505 10.917 6.28305 11.783 6.91005 12.41L12 17.5L16.9 12.6L17.09 12.41ZM22.5 10C22.795 10.708 22.977 11.53 23 12.391V12.4V22C23.001 22.017 23.002 22.037 23.002 22.057C23.002 22.579 22.579 23.0021 22.057 23.0021C22.037 23.0021 22.017 23.001 21.997 23H22H20C19.983 23.001 19.963 23.0021 19.943 23.0021C19.421 23.0021 18.998 22.579 18.998 22.057C18.998 22.037 18.999 22.017 19 21.997V22V19.7001C16.7 19.9001 14.4 20 12 20C9.60005 20 7.30005 19.9001 5.00005 19.7001V22C5.00105 22.017 5.00205 22.037 5.00205 22.057C5.00205 22.579 4.57905 23.0021 4.05705 23.0021C4.03705 23.0021 4.01705 23.001 3.99705 23H4.00005H2.00005C1.98305 23.001 1.96305 23.0021 1.94305 23.0021C1.42105 23.0021 0.998047 22.579 0.998047 22.057C0.998047 22.037 0.999047 22.017 1.00005 21.997V22V12.4C1.00105 11.532 1.18505 10.707 1.51505 9.96105L1.50005 10H1.00005C0.983047 10.001 0.963047 10.002 0.943047 10.002C0.421047 10.002 -0.00195312 9.57905 -0.00195312 9.05705C-0.00195312 9.03705 -0.000953125 9.01705 4.68751e-05 8.99705V9.00005V8.00005C-0.000953125 7.98305 -0.00195312 7.96305 -0.00195312 7.94305C-0.00195312 7.42105 0.421047 6.99805 0.943047 6.99805C0.963047 6.99805 0.983047 6.99905 1.00305 7.00005H1.00005H2.50005C2.51205 6.99905 2.52705 6.99905 2.54205 6.99905C3.01905 6.99905 3.41505 7.34205 3.49905 7.79405L3.50005 7.80005L5.70005 4.30005C6.23305 3.50905 7.09705 2.97605 8.08905 2.90105L8.10005 2.90005C9.40005 2.80005 10.7 2.80005 12 2.80005C13.3 2.80005 14.6 2.80005 15.9 2.90005C16.915 2.93105 17.797 3.47805 18.293 4.28705L18.3 4.30005L20.5 7.80005C20.623 7.34905 21.02 7.01905 21.498 7.00005H21.5H23C23.552 7.00105 23.999 7.44805 24 8.00005V9.00005C24.001 9.01705 24.002 9.03705 24.002 9.05705C24.002 9.57905 23.579 10.002 23.057 10.002C23.037 10.002 23.017 10.001 22.997 10H23H22.5Z"/></g></svg>