<svg viewBox="0 0 24 24"><path fill-rule="evenodd" clip-rule="evenodd" d="M1 12C1 5.925 5.925 1 12 1C18.075 1 23 5.925 23 12C23 18.075 18.075 23 12 23C5.925 23 1 18.075 1 12ZM3 12C3 16.971 7.029 21 12 21C16.971 21 21 16.971 21 12C21 7.029 16.97 3 12 3C7.029 3 3 7.029 3 12ZM19.227 10.5941C19.534 10.4511 19.89 10.6491 19.934 10.9861C19.977 11.3181 20 11.6561 20 12.0001C20 14.1221 19.165 16.0481 17.811 17.4801C17.58 17.7241 17.177 17.6701 17.014 17.3761L15.287 14.2701C14.774 15.0101 14.015 15.5541 13.133 15.8171L15.567 18.4341C15.795 18.6791 15.724 19.0791 15.422 19.2231C14.384 19.7191 13.225 20.0001 12 20.0001C10.775 20.0001 9.617 19.7191 8.578 19.2231C8.276 19.0791 8.205 18.6791 8.433 18.4341L10.867 15.8171C9.985 15.5541 9.226 15.0101 8.713 14.2701L6.986 17.3761C6.823 17.6691 6.42 17.7241 6.189 17.4801C4.835 16.0481 4 14.1221 4 12.0001C4 11.6561 4.023 11.3181 4.067 10.9851C4.11 10.6491 4.466 10.4501 4.774 10.5931L8.01 12.0971C8.00953 12.0815 8.00728 12.0664 8.00503 12.0513C8.00251 12.0344 8 12.0175 8 12.0001C8 11.0861 8.32 10.2521 8.838 9.57807L5.332 8.89107C5.002 8.82707 4.825 8.46007 4.987 8.16507C6.119 6.10107 8.133 4.58607 10.519 4.13807C10.85 4.07607 11.145 4.35707 11.104 4.69107L10.673 8.24407C11.091 8.09607 11.533 8.00007 12 8.00007C12.467 8.00007 12.909 8.09607 13.326 8.24207L12.895 4.68907C12.855 4.35507 13.149 4.07407 13.48 4.13607C15.867 4.58507 17.88 6.10007 19.013 8.16407C19.175 8.45907 18.998 8.82607 18.668 8.89107L15.162 9.57807C15.68 10.2521 16 11.0861 16 12.0001C16 12.0165 15.9978 12.0323 15.9956 12.0483C15.9933 12.0646 15.991 12.0809 15.991 12.0981L19.227 10.5941ZM9.5 12.0001C9.5 13.3811 10.619 14.5001 12 14.5001C13.381 14.5001 14.5 13.3811 14.5 12.0001C14.5 10.6191 13.381 9.50007 12 9.50007C10.619 9.50007 9.5 10.6191 9.5 12.0001Z"/></svg>