<svg viewBox="0 0 24 24"><path d="M11.7861 1.172C5.71113 1.172 0.786133 6.097 0.786133 12.172C0.786133 18.247 5.71113 23.172 11.7861 23.172C17.8611 23.172 22.7861 18.247 22.7861 12.172C22.7861 6.097 17.8611 1.172 11.7861 1.172ZM11.7861 21.172C6.82313 21.172 2.78613 17.135 2.78613 12.172C2.78613 7.209 6.82313 3.172 11.7861 3.172C16.7491 3.172 20.7861 7.209 20.7861 12.172C20.7861 17.135 16.7491 21.172 11.7861 21.172ZM7.00013 13H17.0001C17.5521 13 18.0001 12.552 18.0001 12C18.0001 11.448 17.5521 11 17.0001 11H7.00013C6.44813 11 6.00013 11.448 6.00013 12C6.00013 12.552 6.44813 13 7.00013 13Z"/></svg>