<svg viewBox="0 0 24 24"><path d="M18.563 1.933L17.437 1.283L16.422 3.041C16.812 3.234 17.193 3.444 17.552 3.684L18.563 1.933ZM22.717 6.563L22.067 5.437L20.316 6.448C20.556 6.807 20.766 7.188 20.959 7.578L22.717 6.563ZM12.65 2.033V0H11.35V2.033C11.566 2.019 11.781 2 12 2C12.219 2 12.434 2.019 12.65 2.033ZM7.578 3.041L6.563 1.283L5.437 1.933L6.448 3.684C6.807 3.444 7.188 3.234 7.578 3.041ZM3.684 6.448L1.933 5.437L1.283 6.563L3.041 7.578C3.234 7.188 3.443 6.807 3.684 6.448ZM20.316 17.552L22.067 18.563L22.717 17.437L20.959 16.422C20.766 16.812 20.556 17.193 20.316 17.552ZM21.967 11.35C21.981 11.566 22 11.781 22 12C22 12.219 21.981 12.434 21.967 12.65H24V11.35H21.967ZM11.35 21.967V24H12.65V21.967C12.434 21.981 12.219 22 12 22C11.781 22 11.566 21.981 11.35 21.967ZM16.422 20.959L17.437 22.717L18.563 22.067L17.552 20.316C17.193 20.556 16.812 20.766 16.422 20.959ZM2 12C2 11.781 2.019 11.566 2.033 11.35H0V12.65H2.033C2.019 12.434 2 12.219 2 12ZM1.283 17.437L1.933 18.563L3.684 17.552C3.444 17.193 3.234 16.812 3.041 16.422L1.283 17.437ZM5.437 22.067L6.563 22.717L7.578 20.959C7.188 20.766 6.807 20.556 6.448 20.316L5.437 22.067ZM12 3C7.029 3 3 7.029 3 12C3 16.971 7.029 21 12 21C16.97 21 21 16.971 21 12C21 7.029 16.971 3 12 3ZM8.511 15.458C7.913 15.803 7.149 15.598 6.804 15C6.459 14.402 6.664 13.638 7.262 13.292C7.86 12.947 8.624 13.152 8.97 13.75C9.314 14.348 9.109 15.112 8.511 15.458ZM8.969 10.25C8.624 10.848 7.859 11.053 7.261 10.708C6.663 10.363 6.459 9.598 6.804 9C7.149 8.402 7.914 8.197 8.512 8.542C9.109 8.888 9.314 9.652 8.969 10.25ZM12 18C11.31 18 10.75 17.44 10.75 16.75C10.75 16.06 11.31 15.5 12 15.5C12.69 15.5 13.25 16.06 13.25 16.75C13.25 17.44 12.69 18 12 18ZM12 8.5C11.31 8.5 10.75 7.94 10.75 7.25C10.75 6.56 11.31 6 12 6C12.69 6 13.25 6.56 13.25 7.25C13.25 7.94 12.69 8.5 12 8.5ZM17.196 15C16.851 15.598 16.086 15.803 15.488 15.458C14.89 15.113 14.685 14.348 15.03 13.75C15.375 13.152 16.14 12.947 16.738 13.292C17.337 13.638 17.541 14.402 17.196 15ZM16.739 10.708C16.141 11.053 15.377 10.848 15.031 10.25C14.686 9.652 14.891 8.888 15.489 8.542C16.087 8.197 16.851 8.402 17.197 9C17.541 9.598 17.337 10.362 16.739 10.708Z"/></svg>