<svg viewBox="0 0 24 24"><g clip-path="url(#clip0_783_940)"><path d="M23.734 19.196C23.734 19.196 23.734 19.197 23.734 19.198C23.734 20.082 23.02 20.8 22.137 20.805H20.747L11.995 5.348L11.086 6.956L3.24299 20.805H1.86399C0.979991 20.8 0.265991 20.082 0.265991 19.198C0.265991 19.197 0.265991 19.197 0.265991 19.196C0.265991 19.193 0.265991 19.19 0.265991 19.187C0.265991 18.898 0.343991 18.627 0.478991 18.394L0.474991 18.402L10.616 0.804C10.895 0.32 11.41 0 12 0C12.59 0 13.104 0.32 13.38 0.796L13.384 0.804L23.515 18.402C23.651 18.629 23.732 18.903 23.734 19.195V19.196ZM11.995 7.467L4.43399 20.804L2.92999 23.467L3.46299 24L11.996 20.804L20.529 24L21.062 23.467L19.558 20.804L11.995 7.467Z"/></g></svg>