<svg viewBox="0 0 24 24"><path d="M22 4H21.5C21.224 4 21 3.776 21 3.5V3C21 2.448 20.552 2 20 2H18C17.448 2 17 2.448 17 3V3.5C17 3.776 16.776 4 16.5 4H7.5C7.224 4 7 3.776 7 3.5V3C7 2.448 6.552 2 6 2H4C3.448 2 3 2.448 3 3V3.5C3 3.776 2.776 4 2.5 4H2C1.45 4 1 4.45 1 5V22C1 22.55 1.45 23 2 23H22C22.55 23 23 22.55 23 22V5C23 4.45 22.55 4 22 4ZM14.459 13.598L10.332 18.516C10.075 18.822 9.584 18.55 9.707 18.17L11.232 13.477C11.309 13.241 11.134 13 10.886 13H9.909C9.6 13 9.432 12.639 9.63 12.402L13.757 7.484C14.014 7.178 14.505 7.45 14.382 7.83L12.857 12.523C12.781 12.759 12.956 13 13.203 13H14.18C14.489 13 14.658 13.361 14.459 13.598Z"/></svg>