<svg viewBox="0 0 24 24"><path d="M9.5 4.53689C9.4 6.43689 7.9 7.93691 6 7.93691C4.1 7.93691 2.6 6.43692 2.5 4.63692V3.53689C2.5 1.83689 3.9 0.236887 5.5 0.0368869C6.9 -0.163113 8.20002 0.436887 8.90002 1.53689C9.10002 1.73689 9.39995 1.93691 9.69995 1.93691H11C11.6 1.93691 12 2.33691 12 2.93691V3.93691H9.5V4.53689Z"/><path d="M14.6 17.2369L11 11.3369C10.9 11.1369 10.3 10.2369 10 9.83694L14 5.03689C14.3 4.63689 15 4.53691 15.4 4.93691L16.6 5.93691L16.7 5.83694C17 5.43694 17.7 5.3369 18.1 5.7369L19 6.53689C19.4 6.83689 19.5 7.53691 19.1 7.93691L19 8.03689L20.2 9.03689C20.6 9.33689 20.7 10.0369 20.3 10.4369L14.6 17.2369Z"/><path d="M1 13.768C1.31474 13.6613 1.65086 13.6036 1.99999 13.6036C3.28817 13.6036 4.39937 14.3894 4.91211 15.524C4.9338 15.572 4.97985 15.6036 5.03095 15.6036H5.72857C5.79958 15.6036 5.85714 15.5439 5.85714 15.4702V15.4036C5.85714 15.3299 5.79958 15.2702 5.72857 15.2702H5.58985C5.5396 15.2702 5.49411 15.2397 5.47218 15.1929C4.84735 13.8575 3.52734 12.9369 1.99999 12.9369C1.67069 12.9369 1.35102 12.9797 1.04589 13.0602C1.40283 10.8411 3.23231 9.13692 5.59998 9.13692C7.39998 9.13692 8.89995 10.0369 9.69995 11.4369C9.74353 11.4805 10.1479 12.1128 10.6483 12.8951C11.2962 13.9081 12.1051 15.1727 12.5 15.7369L14.2 18.4369C14.3 18.5369 14.4 18.6369 14.6 18.6369C14.8 18.6369 14.9 18.5369 15 18.4369L19.6 12.9369L20.4 13.5369C21.2 14.2369 21.3 15.4369 20.6 16.4369L16.1 21.7369C15.5 22.4369 14.6 22.8369 13.8 22.8369C12.9 22.8369 11.9 22.3369 11.3 21.4369L9.30005 18.1369C9.10005 17.8369 8.79998 17.8369 8.59998 17.9369C8.29998 18.0369 8.20002 18.4369 8.40002 18.6369L10.4 21.9369C10.6 22.3369 11 22.7369 11.4 23.0369H1V20.8012C1.31892 20.8897 1.65414 20.9369 1.99999 20.9369C3.52734 20.9369 4.84735 20.0163 5.47218 18.6809C5.49411 18.634 5.5396 18.6036 5.58985 18.6036H5.72857C5.79958 18.6036 5.85714 18.5439 5.85714 18.4702V18.4036C5.85714 18.3299 5.79958 18.2702 5.72857 18.2702H5.03095C4.97985 18.2702 4.9338 18.3018 4.91211 18.3497C4.39937 19.4844 3.28817 20.2702 1.99999 20.2702C1.65086 20.2702 1.31474 20.2125 1 20.1058V17.7618C1.33257 17.7674 1.6659 17.7702 1.99997 17.7702C3.41451 17.7702 4.81592 17.7196 6.20221 17.6204C6.37014 17.6084 6.5 17.4633 6.5 17.2888V16.585C6.5 16.4104 6.37014 16.2653 6.20221 16.2533C4.81594 16.1542 3.41456 16.1036 2.00003 16.1036C1.66595 16.1036 1.33259 16.1064 1 16.112V13.768Z"/></svg>