<svg viewBox="0 0 24 24"><path d="M9.15819 17.812L5.45719 14.112C5.06619 13.722 5.06619 13.088 5.45719 12.698C5.84719 12.308 6.48019 12.308 6.87119 12.698L9.15819 14.984L16.1502 7.99196C16.5402 7.60196 17.1742 7.60196 17.5642 7.99196C17.9542 8.38196 17.9542 9.01596 17.5642 9.40596L9.15819 17.812Z"/><path fill-rule="evenodd" clip-rule="evenodd" d="M12 22C17.5228 22 22 17.5228 22 12C22 6.47715 17.5228 2 12 2C6.47715 2 2 6.47715 2 12C2 17.5228 6.47715 22 12 22ZM12 23C18.0751 23 23 18.0751 23 12C23 5.92487 18.0751 1 12 1C5.92487 1 1 5.92487 1 12C1 18.0751 5.92487 23 12 23Z"/></svg>