<svg viewBox="0 0 24 24"><path d="M11.9979 16.1441C11.4229 16.1441 10.8639 16.0261 10.3339 15.7941C9.77591 15.5491 9.29891 15.1841 8.90591 14.7411C7.98991 15.6151 6.75491 16.1241 5.42591 16.0161C5.28091 16.0041 5.13491 15.9861 4.98991 15.9601C4.90691 15.9461 4.76891 15.9251 4.67391 15.9111C4.60491 15.9011 4.53591 15.8941 4.46591 15.8941C3.53691 15.8921 2.65091 16.4251 2.25391 17.3301C1.88191 18.1781 2.03691 19.1241 2.57591 19.8011C3.42291 20.8471 4.51691 21.7141 5.83491 22.2921C6.62491 22.6391 7.43791 22.8591 8.25191 22.9611C10.3339 23.2281 12.4489 22.1241 13.3139 20.0951C13.6569 19.2911 13.7239 18.3291 13.7239 18.3291C13.7919 17.4901 13.7239 16.6501 13.5579 15.8301C13.0699 16.0281 12.5449 16.1441 11.9979 16.1441ZM3.90491 13.3141C4.70891 13.6571 5.67091 13.7241 5.67091 13.7241C6.50891 13.7911 7.34691 13.7241 8.16691 13.5591C8.15891 13.5401 8.14691 13.5241 8.13991 13.5051C7.73791 12.4741 7.76191 11.3481 8.20691 10.3351C8.45191 9.77505 8.81291 9.29005 9.25291 8.90005C8.38291 7.98505 7.87791 6.75205 7.98491 5.42705C7.99691 5.28205 8.01491 5.13605 8.04091 4.99105C8.05491 4.90805 8.07591 4.77005 8.08891 4.67505C8.09891 4.60605 8.10591 4.53705 8.10591 4.46705C8.10791 3.53805 7.57491 2.65205 6.66991 2.25505C5.82391 1.88305 4.87691 2.03705 4.19991 2.57705C3.15391 3.42305 2.28691 4.51805 1.70891 5.83505C1.36191 6.62505 1.14191 7.43805 1.03991 8.25205C0.771907 10.3331 1.87691 12.4491 3.90491 13.3141ZM12.0019 7.85605C12.5759 7.85605 13.1359 7.97405 13.6659 8.20605C14.2239 8.45105 14.7009 8.81605 15.0939 9.25905C16.0099 8.38505 17.2459 7.87605 18.5739 7.98405C18.7189 7.99605 18.8649 8.01405 19.0099 8.04005C19.0929 8.05405 19.2309 8.07505 19.3259 8.08905C19.3949 8.09905 19.4639 8.10605 19.5339 8.10605C20.4629 8.10805 21.3489 7.57505 21.7459 6.67005C22.1179 5.82205 21.9629 4.87605 21.4239 4.19905C20.5769 3.15305 19.4829 2.28605 18.1649 1.70805C17.3749 1.36105 16.5619 1.14105 15.7479 1.03905C13.6669 0.772054 11.5509 1.87605 10.6859 3.90505C10.3429 4.70905 10.2759 5.67105 10.2759 5.67105C10.2079 6.51005 10.2759 7.35005 10.4419 8.17005C10.9299 7.97205 11.4549 7.85605 12.0019 7.85605ZM20.0949 10.6861C19.2909 10.3431 18.3289 10.2761 18.3289 10.2761C17.4909 10.2081 16.6529 10.2761 15.8329 10.4411C15.8409 10.4601 15.8529 10.4761 15.8599 10.4951C16.2619 11.5261 16.2379 12.6521 15.7929 13.6651C15.5479 14.2241 15.1869 14.7091 14.7469 15.0991C15.6169 16.0141 16.1219 17.2471 16.0149 18.5721C16.0029 18.7181 15.9849 18.8631 15.9589 19.0091C15.9449 19.0921 15.9239 19.2301 15.9099 19.3251C15.8999 19.3941 15.8929 19.4631 15.8919 19.5331C15.8899 20.4621 16.4229 21.3481 17.3279 21.7451C18.1759 22.1171 19.1219 21.9621 19.7989 21.4231C20.8449 20.5761 21.7119 19.4821 22.2899 18.1641C22.6369 17.3741 22.8569 16.5611 22.9589 15.7471C23.2279 13.6671 22.1229 11.5511 20.0949 10.6861ZM13.2629 9.12205C12.8519 8.94205 12.4229 8.85605 12.0009 8.85605C10.7919 8.85605 9.63891 9.55805 9.12091 10.7361C8.42291 12.3251 9.14591 14.1801 10.7359 14.8781C11.1469 15.0581 11.5759 15.1441 11.9979 15.1441C13.2069 15.1441 14.3599 14.4421 14.8779 13.2641C15.5759 11.6741 14.8529 9.82005 13.2629 9.12205Z"/></svg>