<svg viewBox="0 0 24 24"><path fill-rule="evenodd" clip-rule="evenodd" d="M2 1H10C10.55 1 11 1.45 11 2V22C11 22.55 10.55 23 10 23H2C1.45 23 1 22.55 1 22V9H3.958C4.148 8.093 4.954 7.41 5.916 7.41C6.878 7.41 7.683 8.093 7.873 9H8C8.552 9 9 8.552 9 8V7.312C9 6.866 8.704 6.473 8.275 6.351L7.02 5.992C6.69 5.898 6.378 5.748 6.099 5.548L4.456 4.373C4.116 4.13 3.71 4 3.293 4H1V2C1 1.45 1.45 1 2 1ZM6.916 9.41C6.916 8.859 6.467 8.41 5.916 8.41C5.364 8.41 4.916 8.859 4.916 9.41C4.916 9.961 5.365 10.41 5.916 10.41C6.467 10.41 6.916 9.961 6.916 9.41ZM3 20H9V19H3V20ZM3 17H9V16H3V17ZM3 14H9V13H3V14ZM14 1H22C22.55 1 23 1.45 23 2V22C23 22.55 22.55 23 22 23H14C13.45 23 13 22.55 13 22V9H15.958C16.148 8.093 16.954 7.41 17.916 7.41C18.878 7.41 19.683 8.093 19.873 9H20C20.552 9 21 8.552 21 8V7.312C21 6.866 20.704 6.473 20.275 6.351L19.02 5.992C18.69 5.898 18.378 5.748 18.099 5.548L16.456 4.373C16.117 4.13 15.71 4 15.293 4H13V2C13 1.45 13.45 1 14 1ZM18.916 9.41C18.916 8.859 18.467 8.41 17.916 8.41C17.364 8.41 16.916 8.859 16.916 9.41C16.916 9.961 17.365 10.41 17.916 10.41C18.467 10.41 18.916 9.961 18.916 9.41ZM15 20H21V19H15V20ZM15 17H21V16H15V17ZM15 14H21V13H15V14Z"/></svg>