<svg viewBox="0 0 24 24"><path fill-rule="evenodd" clip-rule="evenodd" d="M1.61489 22.3832C2.02429 22.7936 2.56176 22.9983 3.09922 22.9983C3.63669 22.9983 4.17416 22.7936 4.58356 22.3842L12.0003 14.967L19.4164 22.3832C19.8269 22.7936 20.3633 22.9983 20.9008 22.9983C21.4382 22.9983 21.9757 22.7936 22.3851 22.3832C23.205 21.5633 23.205 20.2343 22.3851 19.4145L14.9689 11.9983L22.3851 4.58161C23.205 3.76176 23.205 2.43278 22.3851 1.61293C21.5653 0.793084 20.2363 0.793084 19.4164 1.61293L12 9.02937L4.58356 1.61293C3.76476 0.793084 2.43369 0.793084 1.61489 1.61293C0.795038 2.43278 0.795038 3.76176 1.61489 4.58161L9.03133 11.998L1.61489 19.4145C0.795038 20.2343 0.795038 21.5633 1.61489 22.3832Z"/></svg>