<svg viewBox="0 0 24 24"><path fill-rule="evenodd" clip-rule="evenodd" d="M5 13H12.001C14.21 13 16 14.79 16 16.999V23H1V17C1 14.791 2.791 13 5 13ZM11.344 16.5871C10.8358 15.4625 9.73963 14.6805 8.46594 14.6668C7.19226 14.6805 6.09611 15.4625 5.58789 16.5871C5.5662 16.6351 5.52015 16.6666 5.46904 16.6666H4.77143C4.70042 16.6666 4.64286 16.6069 4.64286 16.5333V16.4666C4.64286 16.393 4.70042 16.3333 4.77143 16.3333H4.91015C4.9604 16.3333 5.00589 16.3028 5.02782 16.2559C5.648 14.9305 6.95305 14.0137 8.46594 14.0001C9.97884 14.0137 11.2839 14.9305 11.9041 16.2559C11.926 16.3028 11.9715 16.3333 12.0217 16.3333H12.1605C12.2315 16.3333 12.289 16.393 12.289 16.4666V16.5333C12.289 16.6069 12.2315 16.6666 12.1605 16.6666H11.4628C11.4117 16.6666 11.3657 16.6351 11.344 16.5871ZM11.9041 19.744C11.2839 21.0694 9.97884 21.9862 8.46594 21.9998C6.95305 21.9862 5.648 21.0694 5.02782 19.744C5.00589 19.6971 4.9604 19.6666 4.91015 19.6666H4.77143C4.70042 19.6666 4.64286 19.6069 4.64286 19.5333V19.4666C4.64286 19.393 4.70042 19.3333 4.77143 19.3333H5.46904C5.52015 19.3333 5.5662 19.3648 5.58789 19.4128C6.09611 20.5374 7.19226 21.3194 8.46594 21.3331C9.73963 21.3194 10.8358 20.5374 11.344 19.4128C11.3657 19.3648 11.4117 19.3333 11.4628 19.3333H12.1605C12.2315 19.3333 12.289 19.393 12.289 19.4666V19.5333C12.289 19.6069 12.2315 19.6666 12.1605 19.6666H12.0217C11.9715 19.6666 11.926 19.6971 11.9041 19.744ZM12.6341 18.6835C11.2589 18.7819 9.86891 18.8325 8.46594 18.8333C7.06298 18.8325 5.67295 18.7819 4.29779 18.6835C4.12986 18.6715 4 18.5264 4 18.3519V17.6481C4 17.4735 4.12986 17.3284 4.29779 17.3164C5.67294 17.2181 7.06296 17.1674 8.46594 17.1666C9.86892 17.1674 11.2589 17.2181 12.6341 17.3164C12.802 17.3284 12.9319 17.4735 12.9319 17.6481V18.3519C12.9319 18.5264 12.802 18.6715 12.6341 18.6835Z"/><path d="M9.521 11.884C9.193 11.959 8.851 11.999 8.5 12C6.015 12 4 9.98498 4 7.49998C4 5.01498 6.015 2.99998 8.5 2.99998C10.985 2.99998 13 5.01498 13 7.49998C12.998 8.05198 12.899 8.58198 12.73 9.03998L12.72 9.07098C12.4213 9.87111 11.9011 10.5625 11.2222 11.0783C10.7297 11.4636 10.15 11.7436 9.49 11.89L9.521 11.884Z"/><path d="M11.72 3.05998C12.534 1.81298 13.922 1.00098 15.5 1.00098C17.985 1.00098 20 3.01598 20 5.50098C20 7.98598 17.985 10.001 15.5 10.001H15.484C14.796 10.001 14.144 9.84198 13.564 9.55998L13.59 9.57098C13.849 8.96698 14 8.26298 14 7.52498V7.48898C14 5.66998 13.107 4.05998 11.736 3.07198L11.72 3.05998Z"/><path d="M19 11H12.74C12.423 11.38 12.065 11.71 11.668 11.988L11.65 12H12C12.6662 12.0002 13.3019 12.1307 13.8831 12.3673C14.3652 12.1362 14.9011 12.0052 15.4659 12.0001C16.9788 12.0137 18.2839 12.9305 18.9041 14.2559C18.926 14.3028 18.9715 14.3333 19.0217 14.3333H19.1605C19.2315 14.3333 19.289 14.393 19.289 14.4666V14.5333C19.289 14.6069 19.2315 14.6666 19.1605 14.6666H18.4628C18.4117 14.6666 18.3657 14.6351 18.344 14.5871C17.8358 13.4625 16.7396 12.6805 15.4659 12.6668C15.1934 12.6698 14.9291 12.7079 14.6768 12.777C15.568 13.3431 16.2678 14.1835 16.6576 15.1793C17.6569 15.2 18.6493 15.246 19.6341 15.3164C19.802 15.3284 19.9319 15.4735 19.9319 15.6481V16.3519C19.9319 16.5264 19.802 16.6715 19.6341 16.6835C18.7607 16.746 17.8814 16.7892 16.9965 16.8126C16.9988 16.8748 17 16.9372 17 17V18.9104C17.5855 18.5704 18.0579 18.0459 18.344 17.4128C18.3657 17.3648 18.4117 17.3333 18.4628 17.3333H19.1605C19.2315 17.3333 19.289 17.393 19.289 17.4666V17.5333C19.289 17.6069 19.2315 17.6666 19.1605 17.6666H19.0217C18.9715 17.6666 18.926 17.6971 18.9041 17.744C18.5077 18.5912 17.8314 19.2714 17 19.6556V21H23V14.999C23 12.79 21.209 11 19 11Z"/></svg>