<svg viewBox="0 0 24 24"><path fill-rule="evenodd" clip-rule="evenodd" d="M6.67927 1.22281C6.83033 1.11406 7.01571 1.05 7.21606 1.05H16.7371C18.8024 1.05 20.5677 2.45336 21.0355 4.47456L22.9949 12.9477C23.0478 13.186 23.0743 13.4332 23.0743 13.6803C23.0743 15.472 21.6092 16.9372 19.8174 16.9372L13.7892 16.0545L15.7927 19.7351C15.9427 20.1146 16.0134 20.5029 16.0134 20.9089C16.0134 21.9328 15.5367 22.8948 14.6806 23.4597C13.0566 24.5277 11.053 23.9187 10.1704 22.4535L6.80764 16.8489C6.58378 16.4677 6.43043 16.0534 6.35611 15.6258C6.32201 15.4296 6.30454 15.2306 6.30454 15.0307L6.2963 1.97034C6.29629 1.95771 6.29654 1.94513 6.29703 1.93262C6.30864 1.6403 6.45669 1.38304 6.67927 1.22281ZM5.00957 15.0307L5.0083 15.0315C4.9815 15.0488 4.95371 15.0647 4.92503 15.079C4.80629 15.1385 4.67229 15.1719 4.53048 15.1719H1.88262C1.39516 15.1719 1 14.7768 1 14.2893V1.93262C1 1.44516 1.39516 1.05 1.88262 1.05H4.53048C4.72181 1.05 4.89892 1.11088 5.0435 1.21433C5.26726 1.37443 5.4131 1.63649 5.4131 1.93262V14.2893C5.4131 14.6001 5.25241 14.8734 5.00957 15.0307ZM7.99449 16.1452C7.78877 15.793 7.6843 15.4081 7.6843 15.0307L7.67635 2.42976H16.7371C18.1584 2.42976 19.3677 3.38827 19.6912 4.78543L21.6491 13.252C21.6788 13.3877 21.6946 13.5326 21.6946 13.6803C21.6946 14.6809 20.8943 15.5094 19.9042 15.5554L11.2573 14.2894L14.5349 20.3104C14.6013 20.5 14.6336 20.6949 14.6336 20.9089C14.6336 21.5073 14.3591 22.0183 13.9217 22.3074C12.9958 22.9156 11.8586 22.5807 11.353 21.7427L11.3523 21.7416L7.99449 16.1452ZM2.37976 13.7922V2.42976H4.03334V13.7922H2.37976Z"/></svg>