<svg viewBox="0 0 24 24"><path d="M7.865 5.34C8.269 4.343 9.227 3.699 10.306 3.699C10.752 3.699 11.195 3.813 11.589 4.029C13.005 4.807 14.479 5.505 15.969 6.155C15.978 5.956 16 5.76 16 5.558V1.331C16 0.581 15.387 0 14.656 0C14.602 0 14.547 0.003 14.492 0.01C12.364 0.263 10.198 0.393 8.002 0.393C5.805 0.393 3.639 0.262 1.511 0.01C1.455 0.003 1.4 0 1.346 0C0.616 0 0.003 0.58 0.002 1.33L0 5.558C0 9.119 1.497 12.325 3.896 14.591C4.332 15.002 4.824 15.31 5.336 15.566C5.152 13.448 5.454 11.3 6.279 9.26L7.865 5.34ZM4.585 6.772C3.573 6.772 2.752 6.195 2.752 5.484C2.752 4.773 3.573 4.196 4.585 4.196C5.597 4.196 6.418 4.773 6.418 5.484C6.418 6.195 5.597 6.772 4.585 6.772ZM22.999 10.032C20.931 9.469 18.874 8.779 16.838 7.956C14.801 7.133 12.842 6.201 10.963 5.169C10.753 5.054 10.527 4.999 10.306 4.999C9.782 4.999 9.283 5.303 9.07 5.828L7.484 9.748C6.15 13.05 6.337 16.584 7.712 19.583C8.711 21.763 10.881 23.068 13.156 23.068C13.879 23.068 14.613 22.936 15.323 22.658C18.395 21.455 20.985 19.044 22.319 15.742L23.903 11.822C24.204 11.074 23.777 10.243 22.999 10.032ZM10.063 10.709C10.33 10.049 11.307 9.822 12.246 10.201C13.185 10.58 13.73 11.423 13.463 12.082C13.196 12.742 12.219 12.969 11.28 12.59C10.342 12.211 9.797 11.368 10.063 10.709ZM15.893 18.986C15.196 19.952 13.633 20.484 11.965 19.81C10.297 19.136 9.542 17.668 9.712 16.489C9.746 16.252 10.024 16.138 10.225 16.269C10.702 16.579 11.607 17.113 12.854 17.611C14.097 18.119 15.12 18.364 15.677 18.472C15.912 18.517 16.033 18.792 15.893 18.986ZM19.422 14.49C19.156 15.15 18.178 15.377 17.24 14.998C16.301 14.619 15.756 13.776 16.023 13.117C16.29 12.457 17.267 12.23 18.206 12.609C19.143 12.988 19.688 13.83 19.422 14.49Z"/></svg>