<svg viewBox="0 0 24 24"><g clip-path="url(#clip0_783_896)"><path d="M23.84 23.54C23.66 23.818 23.351 24 23 24H17.04C17.597 23.715 18.076 23.382 18.506 22.995L18.5 23C18.83 22.705 19.12 22.377 19.368 22.018L19.38 22C19.881 21.305 20.183 20.439 20.19 19.502V19.5C20.19 19.498 20.19 19.496 20.19 19.493C20.19 19.344 20.179 19.197 20.158 19.054L20.16 19.07C20.05 18.104 19.649 17.248 19.046 16.576L19.05 16.58C18.498 15.933 17.83 15.402 17.076 15.017L17.04 15H16.92C16.928 14.982 16.942 14.968 16.96 14.96C17.32 14.59 17.62 14.27 17.86 14C18.4 13.42 18.68 13.07 18.71 13.04C18.72 13.03 18.73 13.01 18.74 13H19C19.002 13 19.004 13 19.006 13C19.408 13 19.753 13.24 19.907 13.584L19.91 13.59L23.91 22.59C23.966 22.711 23.998 22.852 23.998 23C23.998 23.2 23.939 23.387 23.838 23.544L23.84 23.54ZM4.57995 9C4.50695 8.647 4.44395 8.206 4.40295 7.758L4.39995 7.71C4.39995 7.706 4.39995 7.702 4.39995 7.698C4.39995 6.635 4.59795 5.618 4.95895 4.683L4.93995 4.74C5.10495 4.32 5.27595 3.968 5.47095 3.631L5.44995 3.67C6.33295 2.107 7.75595 0.938 9.46095 0.403L9.51095 0.39C10.249 0.143 11.098 0.001 11.981 0C11.983 0 11.985 0 11.987 0C14.084 0 15.984 0.848 17.361 2.22C17.702 2.554 18.008 2.92 18.275 3.315L18.291 3.34C19.105 4.525 19.591 5.99 19.591 7.569C19.591 7.57 19.591 7.57 19.591 7.571C19.6 7.697 19.604 7.845 19.604 7.994C19.604 9.692 18.969 11.241 17.925 12.418L17.931 12.411C17.931 12.411 17.821 12.551 17.591 12.801C17.541 12.861 17.491 12.931 17.431 13.001H17.421C17.341 13.099 17.259 13.187 17.172 13.27L17.171 13.271C17.091 13.371 16.991 13.471 16.901 13.571C16.781 13.711 16.651 13.851 16.501 14.001C16.351 14.171 16.171 14.351 15.981 14.541H15.971C15.831 14.691 15.681 14.841 15.531 15.001C15.421 15.101 15.311 15.211 15.201 15.331C14.471 16.041 13.581 16.881 12.541 17.791C12.421 17.92 12.25 18 12.061 18.001C11.872 17.998 11.702 17.918 11.581 17.791C10.651 16.941 9.84095 16.161 9.14095 15.481C8.97095 15.311 8.81095 15.151 8.66095 15.001C8.49095 14.831 8.32095 14.661 8.17095 14.501H8.16095C8.09095 14.431 8.02095 14.351 7.95095 14.281C7.86095 14.191 7.76095 14.091 7.68095 14.001C7.53095 13.851 7.39095 13.711 7.27095 13.571C7.05095 13.351 6.87095 13.161 6.73095 13.001C6.59095 12.851 6.48095 12.731 6.39095 12.631C6.26095 12.491 6.19095 12.411 6.19095 12.411C6.06395 12.256 5.93595 12.084 5.81595 11.905L5.80095 11.881C5.24095 11.062 4.81795 10.1 4.59095 9.065L4.58095 9.011C4.57095 9.011 4.58095 9.001 4.58095 9.001L4.57995 9ZM7.98995 7.57C7.98995 7.571 7.98995 7.573 7.98995 7.575C7.98995 9.864 9.84595 11.72 12.135 11.72C14.424 11.72 16.28 9.864 16.28 7.575C16.28 5.286 14.424 3.43 12.135 3.43C12.133 3.43 12.131 3.43 12.13 3.43C12.129 3.43 12.127 3.43 12.125 3.43C9.84095 3.43 7.98995 5.282 7.98995 7.565C7.98995 7.567 7.98995 7.568 7.98995 7.57ZM19.19 19.5C19.19 17.9 18.01 16.5 16.22 15.7C15.43 16.5 14.42 17.46 13.22 18.53C12.92 18.821 12.511 19 12.06 19C11.609 19 11.2 18.821 10.9 18.53C9.63995 17.37 8.58995 16.35 7.74995 15.5H3.23995L2.34995 17.5H4.49995C4.50195 17.5 4.50395 17.5 4.50595 17.5C4.51895 17.5 4.52995 17.504 4.53995 17.51H4.54095C4.66395 17.51 4.77395 17.564 4.84895 17.65L5.58895 18.39C5.85495 18.301 6.16095 18.25 6.47795 18.25C6.48495 18.25 6.49195 18.25 6.49995 18.25H6.49895C6.57095 18.241 6.65395 18.236 6.73895 18.236C7.76595 18.236 8.61395 19 8.74795 19.99L8.74895 20C8.74695 20.426 8.56695 20.809 8.27995 21.079L8.27895 21.08L8.84895 21.65C8.94095 21.736 8.99895 21.858 8.99895 21.994C8.99895 21.996 8.99895 21.998 8.99895 22C8.99895 22.004 8.99895 22.009 8.99895 22.013C8.99895 22.037 8.99495 22.06 8.98795 22.081V22.079L8.83795 22.999L8.66795 23.999H12.808C12.84 23.999 12.879 24 12.917 24C14.345 24 15.686 23.629 16.849 22.978L16.808 22.999C17.307 22.72 17.735 22.388 18.106 22.001L18.108 21.999C18.758 21.361 19.167 20.48 19.188 19.503V19.499L19.19 19.5ZM6.53995 20.75C6.54995 20.75 6.56095 20.75 6.57195 20.75C6.95595 20.75 7.30595 20.606 7.57195 20.368L7.57095 20.369C7.67595 20.278 7.74395 20.147 7.75095 20V19.999C7.75095 19.649 7.24095 19.249 6.50095 19.249H6.45095C6.43995 19.249 6.42795 19.249 6.41595 19.249C6.03495 19.249 5.68795 19.398 5.43095 19.64L5.43195 19.639C5.32795 19.726 5.25895 19.854 5.25195 19.998V19.999C5.25195 20.349 5.76195 20.749 6.50195 20.749L6.53995 20.75ZM6.75995 14.5C6.58995 14.31 6.43995 14.15 6.29995 14C5.74995 13.42 5.44995 13.08 5.40995 13.03C5.39995 13.02 5.38995 13.01 5.38995 13H4.99995C4.99795 13 4.99595 13 4.99395 13C4.59195 13 4.24695 13.24 4.09295 13.584L4.08995 13.59L3.68995 14.5H6.75995ZM7.39995 21.61C7.13495 21.699 6.82995 21.75 6.51295 21.75C6.50795 21.75 6.50395 21.75 6.49895 21.75H6.49995C6.42795 21.759 6.34495 21.764 6.25995 21.764C5.23295 21.764 4.38495 21 4.25095 20.01L4.24995 20C4.25195 19.578 4.43195 19.198 4.71895 18.931L4.71995 18.93L4.28995 18.5H1.90995L0.0899531 22.59C0.0339531 22.711 0.00195312 22.852 0.00195312 23C0.00195312 23.552 0.448953 23.999 0.999953 24H7.65995L7.81995 23L7.95995 22.17L7.78995 22L7.39995 21.61Z"/></g></svg>