<svg viewBox="0 0 24 24"><path d="M14.97 20.5V18.93H11.37C11.8 18.56 11.96 18.29 11.96 17.19V17H13.44V15.56H11.96V14.85C11.96 14.31 12.1 14.05 12.91 14.05C13.349 14.063 13.768 14.128 14.167 14.239L14.13 14.23V12.76C13.658 12.633 13.116 12.56 12.557 12.56C12.544 12.56 12.531 12.56 12.518 12.56H12.52C10.91 12.56 10.1 13.32 10.1 14.86V15.56H9.03V17H10.1V17.41C10.102 17.45 10.104 17.496 10.104 17.543C10.104 18.307 9.754 18.988 9.205 19.436L9.201 19.439V20.499L14.97 20.5ZM19 17C19 20.866 15.866 24 12 24C8.134 24 5 20.866 5 17C5 12 12 0 12 0C12 0 19 12 19 17Z"/></svg>