<svg viewBox="0 0 24 24"><path d="M21.532 4.907L20.231 3.357C20.042 3.131 19.761 3 19.465 3H16.5C16.224 3 16 3.224 16 3.5V5.5C16 5.776 16.224 6 16.5 6H17.787C18.083 6 18.363 6.131 18.553 6.357L20.266 8.398C20.417 8.578 20.5 8.806 20.5 9.041V17.25C20.5 17.801 20.052 18.25 19.5 18.25C18.948 18.25 18.5 17.801 18.5 17.25V14.5C18.5 13.119 17.381 12 16 12H15C14.998 9.198 14.842 6.384 14.54 3.662C14.373 2.145 13.086 1 11.56 1H4.441C2.914 1 1.628 2.145 1.46 3.662C1.158 6.384 1.002 9.198 1 12V22C1 22.552 1.448 23 2 23H14C14.552 23 15 22.552 15 22V13.5H16C16.552 13.5 17 13.948 17 14.5V17.102C17 18.409 17.938 19.604 19.239 19.736C20.734 19.889 22 18.715 22 17.25V6.22C22.006 5.741 21.84 5.275 21.532 4.907ZM9.587 15.493L6.184 19.548C5.972 19.801 5.567 19.576 5.669 19.262L6.926 15.392C6.989 15.199 6.845 15 6.641 15H5.835C5.58 15 5.441 14.702 5.605 14.507L9.008 10.452C9.22 10.199 9.625 10.424 9.523 10.738L8.266 14.608C8.203 14.801 8.347 15 8.551 15H9.356C9.611 15 9.75 15.298 9.587 15.493ZM2.653 7.468C2.725 6.24 2.818 5.019 2.952 3.813C3.035 3.062 3.685 2.5 4.441 2.5H11.56C12.316 2.5 12.965 3.062 13.048 3.813C13.182 5.019 13.275 6.24 13.347 7.468C13.364 7.756 13.133 8 12.845 8H3.155C2.867 8 2.636 7.756 2.653 7.468Z"/></svg>