<svg viewBox="0 0 24 24"><path d="M12 1C10.914 1 9.866 1.164 8.875 1.457L9.895 1.692C10.054 1.729 10.167 1.87 10.167 2.034V2.071C10.167 2.265 10.324 2.422 10.518 2.422H12.39C12.632 2.422 12.857 2.547 12.985 2.752L13.216 3.123C13.32 3.29 13.376 3.483 13.376 3.681V4.538C13.376 4.785 13.289 5.025 13.13 5.214L11 7.747C10.867 7.906 10.67 7.998 10.462 7.998H9.21C9.003 7.998 8.806 8.09 8.673 8.249L8.396 8.583C8.177 8.844 8.177 9.224 8.396 9.485L8.74 9.894C8.873 10.053 9.07 10.145 9.277 10.145H9.789C9.996 10.145 10.193 10.237 10.326 10.396L11.462 11.751C11.596 11.908 11.793 12 12 12H14.6C14.987 12 15.369 12.092 15.715 12.268L17.14 12.994C17.237 13.044 17.299 13.144 17.298 13.253C17.298 13.362 17.359 13.463 17.456 13.512L18.449 14.018C18.816 14.205 18.943 14.666 18.725 15.015L17.286 17.319C17.134 17.562 16.919 17.759 16.664 17.889L15.483 18.491C15.189 18.641 14.929 18.848 14.717 19.1L12.87 21.301C12.776 21.413 12.637 21.478 12.491 21.478C12.154 21.478 11.915 21.15 12.019 20.829L13.049 17.66C13.156 17.332 13.008 16.975 12.7 16.818C12.497 16.714 12.325 16.558 12.205 16.364L11.412 15.095C11.251 14.837 11.274 14.505 11.47 14.272L11.657 14.05C11.876 13.789 11.876 13.409 11.657 13.148L10.799 12.126C10.587 11.873 10.327 11.666 10.033 11.517L7.419 10.185C7.134 10.04 6.895 9.821 6.727 9.551L5.514 7.61C5.129 6.995 5.037 6.24 5.261 5.55L6.068 3.066C6.1 2.969 6.087 2.861 6.032 2.773L6.03 2.769C3.005 4.729 1 8.128 1 12C1 18.075 5.925 23 12 23C18.075 23 23 18.075 23 12C23 5.925 18.075 1 12 1Z"/></svg>