<svg viewBox="0 0 24 24"><path d="M8 6.56364C9.04322 6.30909 10.4578 6 12.0668 6C15.1611 6 17 7.09091 17 9.18182C17 11.2256 15.4977 11.988 14.3049 12.5935C13.8104 12.8444 13.3691 13.0684 13.11 13.3455C12.9862 13.4727 12.9509 13.6 12.9332 13.8182H10.2456C10.1925 13.5636 10.1749 13.4 10.1749 13.1636C10.1749 11.8142 11.3767 11.2695 12.4289 10.7926C13.248 10.4214 13.9764 10.0912 13.9764 9.45455C13.9764 8.70909 13.3045 8.49091 12.0138 8.49091C10.5285 8.49091 9.32613 8.76364 8 9.09091V6.56364Z"/><path d="M13.0747 15.1818V18H10.2102V15.1818H13.0747Z"/><path fill-rule="evenodd" clip-rule="evenodd" d="M1 5C1 2.79086 2.79086 1 5 1H19C21.2091 1 23 2.79086 23 5V19C23 21.2091 21.2091 23 19 23H5C2.79086 23 1 21.2091 1 19V5ZM5 2.5H19C20.3807 2.5 21.5 3.61929 21.5 5V19C21.5 20.3807 20.3807 21.5 19 21.5H5C3.61929 21.5 2.5 20.3807 2.5 19V5C2.5 3.61929 3.61929 2.5 5 2.5Z"/></svg>