<svg viewBox="0 0 24 24"><g clip-path="url(#clip0_783_877)"><path d="M23.7 12.9999C23.888 12.7019 24 12.3389 24 11.9499C24 11.5609 23.888 11.1979 23.695 10.8919L23.7 10.8999C21.337 6.7909 16.994 4.0559 12.008 3.9999H12C9.853 4.0009 7.829 4.5259 6.048 5.4539L6.12 5.4199L2.35 1.6499L1.65 2.3499L21.65 22.3499L22.35 21.6499L18.71 18.0099C20.764 16.7449 22.442 15.0599 23.663 13.0649L23.7 12.9999ZM12.12 11.4199L10.59 9.8899C10.71 9.8329 10.851 9.7999 11 9.7999C11.003 9.7999 11.006 9.7999 11.009 9.7999C11.667 9.7999 12.2 10.3329 12.2 10.9909C12.2 11.1449 12.171 11.2929 12.117 11.4279L12.12 11.4199ZM16.57 15.8699L15.66 14.9599C16.308 14.1599 16.7 13.1299 16.7 12.0079C16.7 9.4079 14.592 7.2999 11.992 7.2999C10.87 7.2999 9.84 7.6919 9.032 8.3469L9.041 8.3399L8.131 7.4299C9.164 6.5409 10.519 5.9999 12 5.9999C12 5.9999 12 5.9999 12.001 5.9999C15.311 6.0099 17.991 8.6899 18.001 11.9989V11.9999C18.001 11.9999 18.001 11.9999 18.001 12.0009C18.001 13.4819 17.46 14.8369 16.564 15.8779L16.571 15.8699H16.57ZM15.04 17.1599L16.83 18.9499C15.402 19.5499 13.742 19.8989 12 19.8999C7.006 19.8439 2.663 17.1089 0.335 13.0659L0.3 12.9999C0.112 12.7019 0 12.3389 0 11.9499C0 11.5609 0.112 11.1979 0.305 10.8919L0.3 10.8999C1.373 9.1479 2.732 7.6809 4.327 6.5199L4.37 6.4899L6.84 8.9599C6.313 9.8279 6 10.8779 6 11.9999C6.01 15.3099 8.69 17.9899 11.999 17.9999H12C13.122 17.9999 14.172 17.6869 15.066 17.1449L15.04 17.1599ZM7.3 11.9999C7.3 11.9919 7.3 11.9839 7.3 11.9749C7.3 11.2219 7.481 10.5109 7.802 9.8839L7.79 9.9099L14.09 16.2099C13.489 16.5189 12.778 16.6999 12.025 16.6999C12.016 16.6999 12.007 16.6999 11.998 16.6999H11.999C11.997 16.6999 11.995 16.6999 11.994 16.6999C9.401 16.6999 7.299 14.5979 7.299 12.0049C7.299 12.0029 7.299 12.0009 7.299 11.9989L7.3 11.9999Z"/></g></svg>