<svg viewBox="0 0 24 24"><path d="M1.006 13H1.506C1.506 12.98 1.5 12.961 1.5 12.94C1.5 11.562 2.622 10.44 4 10.44C5.378 10.44 6.5 11.562 6.5 12.94C6.5 12.961 6.494 12.98 6.494 13H17.506C17.506 12.98 17.5 12.961 17.5 12.94C17.5 11.562 18.622 10.44 20 10.44C21.378 10.44 22.5 11.562 22.5 12.94C22.5 12.947 22.498 12.953 22.498 12.96C22.551 12.956 22.604 12.956 22.657 12.951C22.936 12.922 23.211 12.882 23.481 12.83C23.795 12.77 24.014 12.549 23.998 12.23C23.974 11.751 23.925 11.267 23.849 10.782C23.775 10.311 23.678 9.85 23.558 9.399C23.462 9.037 23.215 8.735 22.878 8.571C22.459 8.366 22.025 8.181 21.578 8.017C21.33 7.926 21.082 7.844 20.833 7.769C20.63 7.708 20.445 7.601 20.295 7.451L16.488 3.644C16.077 3.232 15.518 3 14.935 3H2.234C1.462 3 0.817 3.584 0.733 4.351C0.582 5.716 0.504 7.103 0.503 8.509V9.54L0.295 9.747C0.106 9.936 0 10.192 0 10.459V12.054C0 12.61 0.45 13 1.006 13ZM13.584 4.304H14.944C15.24 4.304 15.525 4.422 15.735 4.631L17.952 6.848C18.025 6.921 18.067 7.021 18.067 7.125V7.628L17.169 7.973C16.911 8.072 16.626 8.072 16.368 7.973L14.432 7.23C14.117 7.109 13.874 6.853 13.769 6.532L13.211 4.816C13.13 4.563 13.318 4.304 13.584 4.304ZM24 19.5L18.399 16V18H5.601V16L0 19.5L5.601 23V21H18.399V23L24 19.5ZM18.5 12.94C18.5 13.767 19.173 14.44 20 14.44C20.827 14.44 21.5 13.767 21.5 12.94C21.5 12.113 20.827 11.44 20 11.44C19.173 11.44 18.5 12.113 18.5 12.94ZM2.5 12.94C2.5 13.767 3.173 14.44 4 14.44C4.827 14.44 5.5 13.767 5.5 12.94C5.5 12.113 4.827 11.44 4 11.44C3.173 11.44 2.5 12.113 2.5 12.94Z"/></svg>