<svg viewBox="0 0 24 24"><path d="M19.851 9.156C21.382 7.331 21.382 4.67 19.851 2.845L17.465 0H15V12H17.465L19.851 9.156ZM12.552 12H14V0H12.552C12.049 0 11.616 0.371 11.554 0.871C11.344 2.551 11.235 4.263 11.235 6C11.235 7.737 11.344 9.449 11.554 11.129C11.617 11.629 12.049 12 12.552 12ZM1 12.259V21.627C1 22 1.394 22.242 1.727 22.072L3 21.424V12.462L1.727 11.813C1.394 11.644 1 11.886 1 12.259ZM20.981 16H9.943L4 12.972V20.915L7.339 19.214C7.218 19.51 7.148 19.819 7.148 20.138C7.148 22.209 9.835 23.888 13.148 23.888C16.462 23.888 19.148 22.209 19.148 20.138C19.148 19.343 18.749 18.607 18.074 18H20.982C21.534 18 21.982 17.552 21.982 17C21.981 16.448 21.534 16 20.981 16ZM13.148 21.951C10.627 21.951 9.085 20.777 9.085 20.137C9.085 19.497 10.628 18.324 13.148 18.324C15.668 18.324 17.211 19.498 17.211 20.137C17.211 20.776 15.668 21.951 13.148 21.951ZM9.599 6C9.599 5.75 9.608 5.5 9.613 5.25H4.14V6.75H9.612C9.608 6.5 9.599 6.25 9.599 6ZM9.706 9H4.14V10.5H9.838C9.786 10.001 9.741 9.501 9.706 9ZM9.838 1.5H4.14V3H9.705C9.741 2.499 9.786 1.999 9.838 1.5Z"/></svg>