<svg viewBox="0 0 24 24"><path fill-rule="evenodd" clip-rule="evenodd" d="M0 4V21C0 22.105 0.895 23 2 23H6V2H2C0.895 2 0 2.895 0 4ZM4.289 15.578H2.94V11.078L1.338 11.312V10.213L4.289 9.62V15.578ZM8 23H15V2H8V23ZM9.154 14.372C10.234 13.772 11.043 13.256 11.579 12.824C12.116 12.392 12.385 12.005 12.385 11.663C12.385 11.345 12.277 11.123 12.061 10.997C11.845 10.871 11.548 10.809 11.17 10.809C10.636 10.809 10.042 10.899 9.388 11.079V9.936C9.712 9.839 10.068 9.766 10.454 9.715C10.841 9.664 11.229 9.638 11.62 9.638C12.011 9.638 12.369 9.707 12.696 9.845C13.023 9.984 13.288 10.2 13.492 10.498C13.696 10.795 13.798 11.168 13.798 11.618C13.798 12.139 13.577 12.622 13.136 13.062C12.695 13.503 12.054 13.952 11.215 14.408H13.699V15.578H9.154V14.372ZM17 2H22C23.105 2 24 2.895 24 4V21C24 21.933 23.359 22.709 22.495 22.931V22.145H23.359V20.975H22.495V19.698H21.136V20.975H19.444C20.062 20.046 21.142 18.828 22.684 17.322H20.992C19.606 18.731 18.571 19.976 17.887 21.056V22.145H21.136V23H17V2ZM19.314 10.86C19.614 10.902 19.932 10.923 20.268 10.923C22.044 10.923 22.932 10.244 22.932 8.889C22.932 8.606 22.858 8.349 22.711 8.119C22.564 7.888 22.375 7.697 22.144 7.548C21.913 7.397 21.675 7.299 21.429 7.25L22.815 5.909V4.965H18.306V6.135H20.997L19.53 7.485V8.025H19.612C20.074 8.031 20.44 8.056 20.71 8.101C20.98 8.146 21.182 8.231 21.317 8.353C21.453 8.476 21.52 8.651 21.52 8.88C21.52 9.161 21.395 9.378 21.146 9.527C20.897 9.678 20.571 9.753 20.169 9.753C19.665 9.753 19.029 9.656 18.261 9.465V10.644C18.663 10.746 19.014 10.818 19.314 10.86Z"/></svg>