<svg viewBox="0 0 24 24"><path d="M23 4.99998H22C21.537 4.99998 21.165 5.32098 21.051 5.74798L19.163 2.73298C18.737 2.05398 18.006 1.62598 17.205 1.58398C16.143 1.52898 15.073 1.50098 13.997 1.50098C12.921 1.50098 11.851 1.52898 10.789 1.58398C9.987 1.62598 9.256 2.05398 8.83 2.73298L7.05 5.57698C9.121 5.48098 11.187 5.47898 13.257 5.58498C14.383 5.64298 15.413 6.24698 16.011 7.20098L17.235 9.15598C17.472 9.05498 17.731 8.99998 18 8.99998H19C20.103 8.99998 21 9.89698 21 11C21 11.818 20.506 12.524 19.8 12.833C19.928 13.317 19.995 13.813 19.995 14.308L19.996 15.251C19.997 15.251 19.999 15.251 20.001 15.251V17C20.001 17.552 20.449 18 21.001 18H22.001C22.553 18 23.001 17.552 23.001 17L22.995 9.30698C22.995 8.49898 22.784 7.70998 22.403 6.99998H23C23.552 6.99998 24 6.55198 24 5.99998C24 5.44798 23.552 4.99998 23 4.99998ZM19 9.99998H18C17.537 9.99998 17.165 10.321 17.051 10.748L15.163 7.73298C14.737 7.05398 14.006 6.62598 13.205 6.58398C12.143 6.52898 11.073 6.50098 9.997 6.50098C8.921 6.50098 7.851 6.52998 6.788 6.58498C5.987 6.62598 5.256 7.05398 4.83 7.73298L2.948 10.74C2.831 10.317 2.46 9.99998 2 9.99998H1C0.448 9.99998 0 10.448 0 11C0 11.552 0.448 12 1 12H1.591C1.211 12.71 0.999 13.499 0.999 14.307V19.894H1V22C1 22.552 1.448 23 2 23H3C3.552 23 4 22.552 4 22V20.251C5.974 20.443 7.972 20.55 9.997 20.55C12.023 20.55 14.024 20.442 16 20.25V22C16 22.552 16.448 23 17 23H18C18.552 23 19 22.552 19 22V16H18.994V14.307C18.994 13.499 18.783 12.709 18.402 12H19C19.552 12 20 11.552 20 11C20 10.448 19.552 9.99998 19 9.99998ZM6.102 8.52898C6.267 8.26598 6.552 8.09898 6.866 8.08198C7.905 8.02798 8.958 8.00098 9.997 8.00098C11.036 8.00098 12.089 8.02798 13.128 8.08198C13.441 8.09798 13.727 8.26498 13.892 8.52898L15.606 11.266C13.754 11.462 11.884 11.565 9.997 11.565C8.11 11.565 6.24 11.462 4.388 11.266L6.102 8.52898ZM13.346 13.755L12.088 15.765C11.997 15.911 11.837 16 11.665 16H8.329C8.157 16 7.997 15.911 7.905 15.765L6.647 13.755C7.049 13.777 7.453 13.791 7.858 13.805L8.606 15H11.388L12.136 13.805C12.54 13.791 12.944 13.777 13.346 13.755ZM18.021 13.671C18.021 13.824 17.978 13.974 17.897 14.104L17.856 14.17C17.682 14.448 17.429 14.671 17.127 14.8C16.532 15.055 15.891 15.22 15.225 15.302L13.058 18.765C12.966 18.911 12.805 19 12.633 19H7.36C7.188 19 7.028 18.911 6.936 18.765L4.769 15.302C4.103 15.219 3.462 15.054 2.867 14.8C2.565 14.671 2.313 14.448 2.138 14.17L2.097 14.104C2.016 13.974 1.973 13.824 1.973 13.671V13.295C1.973 13.05 2.231 12.895 2.45 13.005C3.106 13.334 3.82 13.563 4.574 13.674C4.816 13.71 5.034 13.84 5.164 14.047L5.655 14.832H5.656L7.637 18H12.356L14.338 14.833H14.339L14.83 14.048C14.96 13.841 15.178 13.71 15.42 13.675C16.173 13.564 16.887 13.334 17.543 13.006C17.762 12.896 18.02 13.052 18.02 13.296V13.671H18.021Z"/></svg>