<svg viewBox="0 0 24 24"><path d="M23 0H15C13.343 0 12 1.343 12 3H2C1.45 3 1 3.45 1 4V7C1 7.55 1.45 8 2 8H12C12 9.657 13.343 11 15 11H23C23.552 11 24 10.552 24 10V1C24 0.448 23.552 0 23 0ZM12 6.5H2.5V4.5H12V6.5ZM22 7.5C22 7.775 21.775 8 21.5 8H20.5C20.225 8 20 7.775 20 7.5V3.5C20 3.225 20.225 3 20.5 3H21.5C21.775 3 22 3.225 22 3.5V7.5ZM4.994 19.006C3.889 19.006 2.994 19.901 2.994 21.006C2.994 22.111 3.889 23.006 4.994 23.006C6.098 23.006 6.994 22.111 6.994 21.006C6.994 19.901 6.099 19.006 4.994 19.006ZM18.994 19.006C17.889 19.006 16.994 19.901 16.994 21.006C16.994 22.111 17.889 23.006 18.994 23.006C20.098 23.006 20.994 22.111 20.994 21.006C20.994 19.901 20.099 19.006 18.994 19.006ZM23.041 15.992C21.994 15.682 20.917 15.432 19.813 15.248C19.032 15.117 18.255 15.023 17.48 14.962C16.767 14.577 16.035 14.215 15.282 13.88C13.844 13.24 12.384 12.716 10.911 12.304C10.466 12.282 10.018 12.271 9.569 12.271C8.698 12.271 7.82 12.313 6.935 12.398C5.595 12.527 4.27 12.757 3 13.071V13.567C2.441 13.996 1.892 14.445 1.356 14.916C1.138 15.107 1.011 15.382 1.011 15.672V16.637C1.011 16.872 0.928 17.1 0.777 17.28L0.233 17.928C0.083 18.107 0 18.335 0 18.57V19.702C0 20.173 0.328 20.581 0.789 20.68C1.136 20.754 1.564 20.84 2.003 20.915C2.053 19.304 3.371 18.007 4.994 18.007C6.646 18.007 7.99 19.35 7.994 21.001H15.995C15.998 19.35 17.342 18.007 18.995 18.007C20.648 18.007 21.991 19.35 21.995 21.001H22.992C23.554 21.001 24.007 20.538 23.992 19.975C23.972 19.204 23.913 18.071 23.754 16.83C23.702 16.435 23.423 16.105 23.041 15.992ZM5 16L4.104 15.44C3.813 15.258 3.788 14.845 4.054 14.628C4.311 14.418 4.5 14.272 4.5 14.272C5.353 14.102 6.217 13.974 7.08 13.89C7.905 13.81 8.743 13.77 9.569 13.77C9.937 13.77 10.304 13.778 10.669 13.794C12.029 14.183 13.375 14.673 14.672 15.25C15.183 15.477 15.69 15.74 16.196 16H5Z"/></svg>