<svg viewBox="0 0 24 24"><path fill-rule="evenodd" clip-rule="evenodd" d="M17.529 3.186L18.253 4.813C18.574 5.535 19.29 6 20.08 6H22C23.105 6 24 6.895 24 8V21C24 22.105 23.105 23 22 23H2C0.895 23 0 22.105 0 21V8C0 6.895 0.895 6 2 6H3.92C4.71 6 5.426 5.535 5.747 4.813L6.472 3.187C6.793 2.465 7.509 2 8.299 2H15.701C16.491 2 17.207 2.465 17.529 3.186ZM5 13C5 16.866 8.134 20 12 20C15.866 20 19 16.866 19 13C19 9.134 15.866 6 12 6C8.134 6 5 9.134 5 13ZM6.29993 13C6.29993 9.85705 8.85693 7.30005 11.9999 7.30005C15.1429 7.30005 17.6999 9.85705 17.6999 13C17.6999 16.143 15.1429 18.7 11.9999 18.7C8.85693 18.7 6.29993 16.143 6.29993 13ZM8.99993 11.25C8.99993 11.94 9.55993 12.5 10.2499 12.5C10.9399 12.5 11.4999 11.94 11.4999 11.25C11.4999 10.56 10.9399 10 10.2499 10C9.55993 10 8.99993 10.56 8.99993 11.25Z"/></svg>