<svg viewBox="0 0 24 24"><path d="M20.298 8.22275L14.298 1.07175C13.099 -0.35725 10.901 -0.35725 9.702 1.07175L3.702 8.22275C3.249 8.76275 3 9.44575 3 10.1507V21.2467C3 22.2498 3.741 23.1127 4.738 23.2297C7.12 23.5107 9.543 23.6558 12 23.6558C14.457 23.6558 16.881 23.5107 19.262 23.2297C20.259 23.1138 21 22.2507 21 21.2477V10.1507C21 9.44575 20.752 8.76275 20.298 8.22275ZM12 2.84175C12.828 2.84175 13.5 3.51375 13.5 4.34175C13.5 5.16975 12.828 5.84175 12 5.84175C11.172 5.84175 10.5 5.16975 10.5 4.34175C10.5 3.51375 11.172 2.84175 12 2.84175ZM15 20.0007H9V19.0007H15V20.0007ZM18 17.0007H6V16.0007H18V17.0007ZM18 14.0007H6V13.0007H18V14.0007Z"/></svg>