<svg viewBox="0 0 24 24"><path d="M5.5 9H18.5C19.052 9.002 19.498 9.448 19.5 10V23C19.498 23.552 19.052 23.998 18.5 24H5.5C4.948 23.998 4.502 23.552 4.5 23V10C4.502 9.448 4.948 9.002 5.5 9ZM8.16 21.1H10.33V18.59H12.4C14.19 18.59 16.38 17.82 16.38 15.29C16.38 12.65 14.47 12 12.39 12H8.16V21.1ZM14.11 15.23C14.11 14.1 13.28 13.83 12.16 13.83H10.33V16.76H12.21C13.27 16.76 14.11 16.53 14.11 15.23ZM15.54 5.46C15.542 5.46 15.544 5.46 15.547 5.46C15.681 5.46 15.802 5.407 15.89 5.32C15.978 5.228 16.033 5.103 16.033 4.965C16.033 4.827 15.979 4.702 15.89 4.61C14.894 3.615 13.519 3 12 3C10.481 3 9.106 3.615 8.11 4.61C8.019 4.701 7.963 4.826 7.963 4.965C7.963 5.242 8.188 5.467 8.465 5.467C8.604 5.467 8.729 5.411 8.82 5.32C9.633 4.505 10.758 4 12 4C13.242 4 14.367 4.505 15.18 5.32C15.269 5.407 15.391 5.46 15.526 5.46C15.531 5.46 15.536 5.46 15.541 5.46H15.54ZM5.99 3.2C6.082 3.288 6.207 3.343 6.345 3.343C6.483 3.343 6.608 3.289 6.7 3.2C8.055 1.841 9.929 1 12 1C14.071 1 15.945 1.841 17.3 3.2C17.395 3.286 17.521 3.339 17.66 3.34C17.796 3.339 17.919 3.286 18.01 3.2C18.103 3.11 18.16 2.984 18.16 2.845C18.16 2.706 18.103 2.58 18.01 2.49C16.472 0.952 14.347 0 12 0C9.653 0 7.528 0.952 5.99 2.49C5.897 2.58 5.84 2.706 5.84 2.845C5.84 2.984 5.897 3.11 5.99 3.2Z"/></svg>