<svg viewBox="0 0 24 24"><g clip-path="url(#clip0_783_852)"><path d="M18.1359 8.99998H5.86293C5.85093 8.99898 5.83793 8.99898 5.82393 8.99898C5.46793 8.99898 5.17993 9.28698 5.17993 9.64298C5.17993 9.65698 5.17993 9.66998 5.18093 9.68398V9.68198V23.318C5.17993 23.33 5.17993 23.343 5.17993 23.357C5.17993 23.713 5.46793 24.001 5.82393 24.001C5.83793 24.001 5.85093 24.001 5.86493 24H5.86293H18.1359C18.1479 24.001 18.1609 24.001 18.1749 24.001C18.5309 24.001 18.8189 23.713 18.8189 23.357C18.8189 23.343 18.8189 23.33 18.8179 23.316V23.318V9.68198C18.8189 9.66998 18.8189 9.65698 18.8189 9.64298C18.8189 9.28698 18.5309 8.99898 18.1749 8.99898C18.1609 8.99898 18.1479 8.99898 18.1339 8.99998H18.1359ZM9.68193 12.477L10.9769 13.772L13.9769 10.772L14.4539 11.249L10.9769 14.726L9.20393 12.953L9.68193 12.477ZM16.7729 21.273H7.22793V20.591H16.7729V21.273ZM16.7729 19.227H7.22793V18.545H16.7729V19.227ZM16.7729 17.182H7.22793V16.5H16.7729V17.182ZM17.6569 3.34298C17.6569 3.34298 17.6569 3.34298 17.6559 3.34298C17.5179 3.34298 17.3929 3.28698 17.3029 3.19698C15.9459 1.83998 14.0699 1.00098 11.9989 1.00098C9.92793 1.00098 8.05293 1.83998 6.69493 3.19698C6.60493 3.28498 6.48093 3.33998 6.34493 3.33998C6.06893 3.33998 5.84493 3.11598 5.84493 2.83998C5.84493 2.70398 5.89993 2.57998 5.98793 2.48998C7.52593 0.951977 9.65093 0.000976562 11.9989 0.000976562C14.3469 0.000976562 16.4709 0.951977 18.0099 2.48998C18.0999 2.57998 18.1559 2.70498 18.1559 2.84398C18.1559 3.11998 17.9319 3.34398 17.6559 3.34398L17.6569 3.34298ZM15.5349 5.46498C15.5349 5.46498 15.5349 5.46498 15.5339 5.46498C15.3959 5.46498 15.2709 5.40898 15.1809 5.31898C14.3669 4.50398 13.2419 4.00098 11.9989 4.00098C10.7559 4.00098 9.63093 4.50498 8.81693 5.31898C8.72593 5.41198 8.59993 5.46898 8.45993 5.46898C8.18393 5.46898 7.95993 5.24498 7.95993 4.96898C7.95993 4.82898 8.01693 4.70298 8.10993 4.61198C9.10493 3.61598 10.4799 3.00098 11.9989 3.00098C13.5179 3.00098 14.8929 3.61698 15.8879 4.61198C15.9779 4.70198 16.0339 4.82698 16.0339 4.96598C16.0339 5.24198 15.8099 5.46598 15.5339 5.46598L15.5349 5.46498Z"/></g></svg>