<svg viewBox="0 0 24 24"><path d="M8.67399 0.536944C4.53399 1.87694 1.94199 5.80394 2.00099 10.1549C2.03299 12.5099 2.80199 14.4999 4.29699 16.3759C4.29699 16.3759 6.69399 19.2899 11.328 23.4549C11.707 23.7949 12.294 23.7949 12.672 23.4549C17.306 19.2899 19.703 16.3759 19.703 16.3759C21.231 14.4589 22 12.4229 22 9.99994C22 3.39994 15.606 -1.70706 8.67399 0.536944ZM14.491 4.22094C14.369 3.93994 14.498 3.61294 14.779 3.49094C15.059 3.36894 15.387 3.49694 15.509 3.77894C15.679 4.16894 15.765 4.57994 15.765 4.99994C15.765 5.41994 15.679 5.83194 15.51 6.22094C15.401 6.47094 15.346 6.73294 15.346 6.99994C15.346 7.26694 15.401 7.52894 15.51 7.77894C15.632 8.05994 15.503 8.38694 15.222 8.50894C15.15 8.53994 15.075 8.55494 15.001 8.55494C14.787 8.55494 14.582 8.42994 14.491 8.22094C14.321 7.83194 14.235 7.42094 14.235 6.99994C14.235 6.57894 14.321 6.16794 14.49 5.77894C14.598 5.52894 14.654 5.26694 14.654 4.99994C14.654 4.73294 14.599 4.47094 14.491 4.22094ZM11.46 4.22094C11.338 3.93994 11.467 3.61294 11.748 3.49094C12.029 3.36894 12.357 3.49694 12.478 3.77894C12.648 4.16894 12.734 4.57994 12.734 4.99994C12.734 5.41994 12.648 5.83194 12.479 6.22094C12.37 6.47094 12.315 6.73294 12.315 6.99994C12.315 7.26694 12.37 7.52894 12.479 7.77894C12.601 8.05994 12.472 8.38694 12.191 8.50894C12.119 8.53994 12.044 8.55494 11.97 8.55494C11.756 8.55494 11.551 8.42994 11.46 8.22094C11.291 7.83194 11.205 7.42094 11.205 6.99994C11.205 6.57894 11.291 6.16794 11.46 5.77894C11.568 5.52894 11.624 5.26694 11.624 4.99994C11.624 4.73294 11.568 4.47094 11.46 4.22094ZM8.42899 4.22094C8.30699 3.93994 8.43599 3.61294 8.71699 3.49094C8.99699 3.36894 9.32499 3.49694 9.44699 3.77894C9.61699 4.16794 9.70299 4.57894 9.70299 4.99994C9.70299 5.42094 9.61699 5.83194 9.44799 6.22094C9.33899 6.46994 9.28399 6.73194 9.28399 6.99994C9.28399 7.26794 9.33899 7.52994 9.44699 7.77794C9.56999 8.05894 9.44099 8.38594 9.16099 8.50894C9.08799 8.54094 9.01299 8.55494 8.93899 8.55494C8.72499 8.55494 8.52099 8.42994 8.42999 8.22194C8.25999 7.83294 8.17399 7.42194 8.17399 6.99994C8.17399 6.57794 8.25999 6.16694 8.42999 5.77794C8.53799 5.52994 8.59199 5.26794 8.59199 4.99994C8.59199 4.73194 8.53799 4.46994 8.42899 4.22094ZM12 16.4999C8.40999 16.4999 5.49999 13.5899 5.49999 9.99994H18.5C18.5 13.5899 15.59 16.4999 12 16.4999Z"/></svg>