<svg viewBox="0 0 24 24"><path d="M18.6243 16.5681C18.4489 16.4038 18.3707 16.134 18.5188 15.928C18.5199 15.927 18.5188 15.926 18.5199 15.925C19.5535 14.3963 20.1703 12.5653 20.1703 10.5852C20.1703 5.30008 15.8702 1 10.5852 1C5.30008 1 1 5.30008 1 10.5852C1 15.8702 5.30008 20.1703 10.5852 20.1703C12.4922 20.1703 14.2624 19.5992 15.7566 18.6345C15.9534 18.4752 16.2395 18.4752 16.4109 18.6619L20.4016 22.6485C20.6988 22.9457 21.0883 23.0938 21.4779 23.0938C21.8674 23.0938 22.2569 22.9457 22.5542 22.6485C23.1486 22.0541 23.1486 21.0914 22.5542 20.4969L18.6243 16.5681ZM10.5841 17.1271C6.9769 17.1271 4.04221 14.1914 4.04221 10.5852C4.04221 6.97791 6.9769 4.04323 10.5841 4.04323C14.1914 4.04323 17.1261 6.97791 17.1261 10.5852C17.1271 14.1924 14.1914 17.1271 10.5841 17.1271Z"/></svg>