<svg viewBox="0 0 24 24"><path d="M10.9599 5.49947C10.9599 5.67747 11.081 5.84123 11.5295 5.95515L11.6862 5.99787V5.02954C11.1451 5.07938 10.9599 5.25738 10.9599 5.49947Z"/><path d="M13.012 7.93248C13.012 7.69752 12.777 7.49816 12.3 7.37V8.38817C12.7984 8.33833 13.012 8.19592 13.012 7.93248Z"/><path fill-rule="evenodd" clip-rule="evenodd" d="M21 1H3C2.448 1 2 1.448 2 2V22C2 22.552 2.448 23 3 23H21C21.552 23 22 22.552 22 22V2C22 1.448 21.552 1 21 1ZM19 19H5V18H19V19ZM19 16H5V15H19V16ZM19 13H5V12H19V13ZM11.6862 7.23676L10.8816 7.03028C10.1504 6.90782 9.6 6.27911 9.6 5.52225V5.51299C9.6 4.51618 10.2764 3.96153 11.6862 3.87609V3.1H12.3341V3.87609C12.9493 3.90528 13.5289 4.00211 14.0828 4.15947L14.0287 4.14665V5.30722C13.531 5.16411 12.9521 5.06514 12.3562 5.03025L12.3341 5.02954V6.16875L12.9892 6.33963C14.0073 6.6102 14.4132 7.12996 14.4132 7.84197C14.4132 8.85302 13.7154 9.48671 12.3341 9.58639V10.3554H11.6862V9.59351C10.9678 9.57856 10.2814 9.4682 9.63133 9.27311L9.68544 9.28735V8.08405C10.2643 8.25066 10.945 8.37669 11.6449 8.43721L11.6862 8.44006V7.23676Z"/></svg>