<svg viewBox="0 0 24 24"><g clip-path="url(#clip0_783_824)"><path d="M24 8.00005V9.00005C24.001 9.01705 24.002 9.03705 24.002 9.05705C24.002 9.57905 23.579 10.002 23.057 10.002C23.037 10.002 23.017 10.001 22.997 10H23H22.5C22.601 10.259 22.708 10.593 22.795 10.934L22.81 11H17.59L14.27 14.31L10.27 6.31005L5.59005 11H1.17005C1.26305 10.613 1.37605 10.28 1.51505 9.96005L1.50005 10H1.00005C0.983047 10.001 0.963047 10.002 0.943047 10.002C0.421047 10.002 -0.00195312 9.57905 -0.00195312 9.05705C-0.00195312 9.03705 -0.000953125 9.01705 4.68751e-05 8.99705V9.00005V8.00005C-0.000953125 7.98305 -0.00195312 7.96305 -0.00195312 7.94305C-0.00195312 7.42105 0.421047 6.99805 0.943047 6.99805C0.963047 6.99805 0.983047 6.99905 1.00305 7.00005H1.00005H2.50005C2.51205 6.99905 2.52705 6.99905 2.54205 6.99905C3.01905 6.99905 3.41505 7.34205 3.49905 7.79405L3.50005 7.80005L5.70005 4.30005C6.23305 3.50905 7.09705 2.97605 8.08905 2.90105L8.10005 2.90005C9.40005 2.80005 10.7 2.80005 12 2.80005C13.3 2.80005 14.6 2.80005 15.9 2.90005C16.915 2.93105 17.797 3.47805 18.293 4.28705L18.3 4.30005L20.5 7.80005C20.623 7.34905 21.02 7.01905 21.498 7.00005H21.5H23C23.552 7.00105 23.999 7.44805 24 8.00005ZM13.73 17.69L9.73005 9.69005L6.41005 13H1.00005V22C0.999047 22.017 0.998047 22.037 0.998047 22.057C0.998047 22.579 1.42105 23.0021 1.94305 23.0021C1.96305 23.0021 1.98305 23.001 2.00305 23H2.00005H4.00005C4.01705 23.001 4.03705 23.0021 4.05705 23.0021C4.57905 23.0021 5.00205 22.579 5.00205 22.057C5.00205 22.037 5.00105 22.017 5.00005 21.997V22V19.7001C7.30005 19.9001 9.60005 20 12 20C14.4 20 16.7 19.9001 19 19.7001V22C18.999 22.017 18.998 22.037 18.998 22.057C18.998 22.579 19.421 23.0021 19.943 23.0021C19.963 23.0021 19.983 23.001 20.003 23H20H22C22.017 23.001 22.037 23.0021 22.057 23.0021C22.579 23.0021 23.002 22.579 23.002 22.057C23.002 22.037 23.001 22.017 23 21.997V22V13H18.41L13.73 17.69Z"/></g></svg>