<svg viewBox="0 0 24 24"><path d="M12.929 1.66896L4.398 6.99996H0.7C0.314 6.99996 0 7.31296 0 7.69996V16.3C0 16.687 0.314 17 0.7 17H4.398L12.929 22.331C13.395 22.622 14 22.287 14 21.737V2.26296C14 1.71296 13.395 1.37796 12.929 1.66896ZM17.688 12.25C17.688 13.945 16.683 15.401 15.244 16.082L16.722 17.56C18.5 16.458 19.688 14.495 19.688 12.25C19.688 10.005 18.5 8.04096 16.722 6.93996L15.244 8.41796C16.683 9.09896 17.688 10.555 17.688 12.25ZM23.938 12.25C23.938 8.83296 22.299 5.80696 19.772 3.88996L18.342 5.31996C20.514 6.86096 21.938 9.38996 21.938 12.25C21.938 15.11 20.514 17.639 18.342 19.18L19.772 20.61C22.298 18.693 23.938 15.667 23.938 12.25Z"/></svg>