<svg viewBox="0 0 24 24"><path fill-rule="evenodd" clip-rule="evenodd" d="M2.17857 8.28309H21.8171C22.1302 8.28272 22.4306 8.40378 22.6524 8.61967C22.8742 8.83557 22.9992 9.12866 23 9.43455V20.8485C22.9992 21.1537 22.8748 21.4461 22.654 21.6619C22.4331 21.8777 22.1338 21.9993 21.8214 22H2.17857C1.86623 21.9993 1.5669 21.8777 1.34604 21.6619C1.12518 21.4461 1.00076 21.1537 1 20.8485V7.76099C1.00564 7.77266 1.01348 7.78319 1.02311 7.79203C1.17016 7.94789 1.34887 8.07207 1.54783 8.15662C1.74679 8.24118 1.96161 8.28425 2.17857 8.28309ZM18 17.0754C19.1046 17.0754 20 16.2006 20 15.1215C20 14.0423 19.1046 13.1675 18 13.1675C16.8954 13.1675 16 14.0423 16 15.1215C16 16.2006 16.8954 17.0754 18 17.0754Z"/><path d="M2.03766 7.02278C2.10159 7.14301 2.18846 7.24438 2.29149 7.31899L2.31156 7.33238C2.43009 7.4125 2.56465 7.45464 2.70162 7.45455H20.25V2.45584C20.2494 2.38886 20.2363 2.32283 20.2115 2.2624C20.1868 2.20198 20.1509 2.14862 20.1066 2.10608C20.0631 2.06427 20.0125 2.0337 19.9581 2.01639C19.9037 1.99909 19.8468 1.99543 19.7911 2.00567L2.82495 5.45138C1.81108 5.6773 1.92007 6.55254 1.92007 6.55254C1.92186 6.71885 1.96252 6.88145 2.03766 7.02278Z"/></svg>