<svg viewBox="0 0 24 24"><path fill-rule="evenodd" clip-rule="evenodd" d="M2.00099 10.155C1.94199 5.804 4.53399 1.877 8.67399 0.537005C15.606 -1.707 22 3.4 22 10C22 12.423 21.231 14.459 19.703 16.376C19.703 16.376 17.306 19.29 12.672 23.455C12.294 23.795 11.707 23.795 11.328 23.455C6.69399 19.29 4.29699 16.376 4.29699 16.376C2.80199 14.5 2.03299 12.51 2.00099 10.155ZM17.5 15C17.775 15 18 14.775 18 14.5V6.5C18 6.225 17.775 6 17.5 6H15V5C15 3.895 14.104 3 13 3H11C9.89499 3 8.99999 3.895 8.99999 5V6H6.49999C6.22499 6 5.99999 6.225 5.99999 6.5V14.5C5.99999 14.775 6.22499 15 6.49999 15H17.5ZM8 9H10V10H8V9ZM13 4.5H11C10.724 4.5 10.5 4.724 10.5 5V6H13.5V5C13.5 4.724 13.276 4.5 13 4.5ZM14 9H16V10H14V9Z"/></svg>